<svg width="101" height="48" viewBox="0 0 101 48" fill="none" xmlns="http://www.w3.org/2000/svg">
<g clip-path="url(#clip0_2016_11859)">
<path d="M97.8632 40.4145H96.2823L96.2603 39.7326C96.2478 39.3338 96.2415 38.9756 96.2415 38.6409C96.2415 32.7039 91.3985 27.8757 85.4467 27.8757C79.495 27.8757 74.652 32.7054 74.652 38.6409C74.652 38.9709 74.6457 39.3275 74.6332 39.7311L74.6128 40.413H31.6533L31.6329 39.7311C31.6188 39.2916 31.6125 38.9006 31.6125 38.5361C31.6125 32.7461 26.5029 27.6662 20.6766 27.6662C14.8503 27.6662 9.74065 32.7461 9.74065 38.5361C9.74065 38.899 9.73438 39.2775 9.72184 39.7295L9.70145 40.413H5.17684C3.4909 40.413 1.8567 38.9272 2.11861 37.3631C2.38052 35.7991 4.94316 23.2134 4.94316 23.2134C5.30859 21.6712 6.31388 20.5905 7.92455 20.2386L27.5396 16.2175C28.777 15.2947 38.6731 7.92344 39.5215 7.23214C40.2806 6.61435 42.9593 4.59831 45.5094 4.59831H73.7126C74.3383 4.59831 74.9484 4.61708 75.5444 4.65618L78.2858 0.328519C78.4944 7.30647e-05 78.9304 -0.0984607 79.2597 0.109555C79.5891 0.317571 79.6879 0.75237 79.4793 1.08082L77.1205 4.80477C88.0784 6.15296 93.6726 13.9528 97.3629 20.8298C100.921 27.4628 100.921 32.4974 100.921 37.3647C100.921 38.9897 99.4926 40.4145 97.8632 40.4145ZM96.1176 21.4914C96.0894 21.4382 96.0612 21.385 96.0314 21.3334H92.6281C92.5638 21.4413 92.5309 21.6102 92.5309 21.8542C92.5309 22.3719 92.5309 23.95 95.8902 24.3817C96.276 24.4317 96.5505 24.7836 96.5003 25.17C96.4548 25.525 96.1505 25.7846 95.8008 25.7846C95.771 25.7846 95.7396 25.7831 95.7098 25.7784C91.7169 25.2654 91.1194 23.1008 91.1194 21.8558C91.1194 21.6665 91.1335 21.4945 91.1601 21.335H83.3562C82.9657 21.335 82.6504 21.0206 82.6504 20.6312C82.6504 20.2417 82.9657 19.9273 83.3562 19.9273H95.2472C91.3452 13.1379 85.3072 6.0075 73.711 6.0075H66.1877C66.4214 9.04641 67.6526 25.0886 67.7498 26.7152C67.9239 29.604 67.3953 31.656 66.136 32.9917C64.8954 34.3055 62.9366 34.9436 60.145 34.9436H45.0891C44.6986 34.9436 44.3833 34.6292 44.3833 34.2398C44.3833 33.8503 44.6986 33.5359 45.0891 33.5359H60.145C62.5257 33.5359 64.1489 33.0417 65.1087 32.0267C66.0874 30.9897 66.4904 29.2802 66.3414 26.7997C66.2442 25.1872 64.977 8.6773 64.7715 6.0075H45.5063C43.3686 6.0075 40.8876 7.93751 40.4108 8.32539C39.4855 9.07769 28.7127 17.1011 28.2547 17.4421L28.1292 17.5359L10.8118 21.0863C10.8165 21.2208 10.8212 21.3569 10.8212 21.4914C10.8212 24.6601 9.60735 27.394 7.80064 28.2949C7.6987 28.3449 7.59206 28.37 7.4854 28.37C7.22664 28.37 6.97728 28.2276 6.85338 27.9805C6.6793 27.6333 6.82045 27.2095 7.16862 27.0359C8.28212 26.4806 9.40974 24.3973 9.40974 21.4898C9.40974 21.4507 9.40817 21.4116 9.4066 21.3725L7.99825 21.6462C7.09647 21.8417 6.53501 22.4032 6.35152 23.2884L4.31113 33.5328H6.66518C7.05569 33.5328 7.37093 33.8472 7.37093 34.2366C7.37093 34.6261 7.05569 34.9404 6.66518 34.9404H4.15586C4.11352 34.9404 4.07117 34.9358 4.03197 34.9279C4.03197 34.9279 3.59127 36.7094 3.53011 37.4288C3.4705 38.1467 4.28917 39.0069 5.17527 39.0069H8.32447C8.32761 38.8443 8.3276 38.6894 8.3276 38.5377C8.3276 35.3096 9.6842 32.2237 12.148 29.848C14.5131 27.5676 17.6199 26.2601 20.6766 26.2601C23.7332 26.2601 26.8401 27.5676 29.2051 29.848C31.669 32.2237 33.0256 35.3096 33.0256 38.5377C33.0256 38.6879 33.0256 38.8443 33.0287 39.0069H73.2374C73.2389 38.8802 73.2405 38.7598 73.2405 38.6425C73.2405 31.9297 78.7171 26.4697 85.4467 26.4697C92.1764 26.4697 97.6546 31.9297 97.6546 38.6425C97.6546 38.7614 97.6546 38.8818 97.6577 39.0069H97.8647C98.7916 39.0069 99.5115 38.1248 99.5115 37.3647C99.5115 36.5514 99.5115 35.7475 99.4958 34.9404H98.7273C98.3368 34.9404 98.0216 34.6261 98.0216 34.2366C98.0216 33.8472 98.3368 33.5328 98.7273 33.5328H99.4503C99.2794 29.9121 98.6238 26.1616 96.1192 21.4914H96.1176Z" fill="#292B49"/>
<path d="M32.8251 28.858C32.8737 29.2443 32.5992 29.5946 32.2119 29.6431C32.1821 29.6462 32.1523 29.6494 32.124 29.6494C31.7727 29.6494 31.47 29.3882 31.4246 29.0331C30.8913 24.7774 32.3216 19.2032 32.3828 18.9686C32.48 18.5917 32.8658 18.3665 33.2438 18.4634C33.6218 18.5604 33.8476 18.9451 33.7504 19.3221C33.7363 19.3768 32.3263 24.8681 32.8266 28.8595L32.8251 28.858Z" fill="#292B49"/>
<path d="M36.4633 14.8424C36.4633 13.244 39.6502 10.8056 41.551 9.49343L41.7282 9.36987C43.0534 8.45178 44.0995 7.72607 46.9178 7.72607H60.3787C62.0552 7.72607 63.4212 9.07896 63.4369 10.7478L63.749 14.7892V14.844C63.7506 16.5253 62.3799 17.8938 60.6924 17.8938H39.2063C37.6161 17.8938 36.4618 16.6113 36.4618 14.844L36.4633 14.8424ZM62.3407 14.8674L62.0286 10.8307V10.7759C62.027 9.87036 61.2883 9.1337 60.3803 9.1337H46.9194C44.5433 9.1337 43.7435 9.68736 42.5343 10.5257L42.354 10.6508C39.5874 12.5605 37.8748 14.3138 37.8748 14.8424C37.8748 15.5994 38.2246 16.4846 39.2079 16.4846H60.6939C61.5941 16.4846 62.3266 15.762 62.3407 14.8674Z" fill="#292B49"/>
<path d="M85.5519 34.002C88.1459 34.002 90.2568 36.1071 90.2568 38.694C90.2568 41.2809 88.1459 43.3861 85.5519 43.3861C82.9579 43.3861 80.8469 41.2809 80.8469 38.694C80.8469 36.1071 82.9579 34.002 85.5519 34.002ZM85.5519 41.9785C87.368 41.9785 88.8453 40.5052 88.8453 38.694C88.8453 36.8829 87.368 35.4096 85.5519 35.4096C83.7357 35.4096 82.2584 36.8829 82.2584 38.694C82.2584 40.5052 83.7357 41.9785 85.5519 41.9785Z" fill="#292B49"/>
<path d="M20.7804 34.002C23.3744 34.002 25.4854 36.1071 25.4854 38.694C25.4854 41.2809 23.3744 43.3861 20.7804 43.3861C18.1864 43.3861 16.0754 41.2809 16.0754 38.694C16.0754 36.1071 18.1864 34.002 20.7804 34.002ZM20.7804 41.9785C22.5965 41.9785 24.0739 40.5052 24.0739 38.694C24.0739 36.8829 22.5965 35.4096 20.7804 35.4096C18.9643 35.4096 17.4869 36.8829 17.4869 38.694C17.4869 40.5052 18.9643 41.9785 20.7804 41.9785Z" fill="#292B49"/>
<path d="M55.44 19.9258H63.1248C63.5153 19.9258 63.8306 20.2401 63.8306 20.6296C63.8306 21.019 63.5153 21.3334 63.1248 21.3334H55.44C55.0495 21.3334 54.7343 21.019 54.7343 20.6296C54.7343 20.2401 55.0495 19.9258 55.44 19.9258Z" fill="#292B49"/>
<path d="M68.8557 15.1881C68.655 14.0057 68.1923 9.69683 68.0684 8.41901C68.0496 8.22195 68.1139 8.02488 68.2488 7.87786C68.3821 7.73084 68.5719 7.64795 68.771 7.64795C81.0636 7.64795 87.2929 11.4845 88.8926 14.7705C89.291 15.5885 89.3255 16.2689 88.9961 16.7928C88.6684 17.3152 88.0363 17.5811 87.1204 17.5811H71.9469C70.0633 17.5811 69.1396 16.8663 68.8557 15.1897V15.1881ZM87.7995 16.0452C87.7995 16.0452 87.8607 15.8716 87.6239 15.3836C86.5041 13.0829 81.4415 9.22292 69.5536 9.06027C69.7324 10.787 70.0837 13.9807 70.2484 14.9535C70.388 15.7825 70.6013 16.1719 71.9485 16.1719H87.122C87.6709 16.1719 87.7995 16.0452 87.8011 16.0452H87.7995Z" fill="#292B49"/>
<path d="M72.8486 45.8887H79.641C77.5551 44.1808 76.2205 41.5892 76.2205 38.6941C76.2205 33.5626 80.4063 29.3882 85.552 29.3882C90.6977 29.3882 94.8835 33.5626 94.8835 38.6941C94.8835 41.5892 93.5505 44.1808 91.463 45.8887H100.294C100.685 45.8887 101 46.203 101 46.5925C101 46.9819 100.685 47.2963 100.294 47.2963H89.1592C89.145 47.2963 89.1325 47.2932 89.1184 47.2916C88.019 47.7467 86.8145 48.0001 85.552 48.0001C84.2895 48.0001 83.085 47.7467 81.9857 47.2916C81.9715 47.2916 81.959 47.2963 81.9449 47.2963H72.8486C72.4581 47.2963 72.1429 46.9819 72.1429 46.5925C72.1429 46.203 72.4581 45.8887 72.8486 45.8887ZM93.472 38.6941C93.472 34.3383 89.9198 30.7958 85.552 30.7958C81.1842 30.7958 77.632 34.3383 77.632 38.6941C77.632 43.05 81.1842 46.5925 85.552 46.5925C89.9198 46.5925 93.472 43.05 93.472 38.6941Z" fill="#292B49"/>
<path d="M0.705757 45.8887H14.8693C12.7834 44.1808 11.4488 41.5892 11.4488 38.6941C11.4488 33.5626 15.6346 29.3882 20.7803 29.3882C25.926 29.3882 30.1118 33.5626 30.1118 38.6941C30.1118 41.5892 28.7787 44.1808 26.6913 45.8887H33.4837C33.8742 45.8887 34.1895 46.203 34.1895 46.5925C34.1895 46.9819 33.8742 47.2963 33.4837 47.2963H24.3874C24.3733 47.2963 24.3608 47.2932 24.3467 47.2916C23.2473 47.7467 22.0428 48.0001 20.7803 48.0001C19.5178 48.0001 18.3133 47.7467 17.2139 47.2916C17.1998 47.2916 17.1873 47.2963 17.1731 47.2963H0.705757C0.315243 47.2963 1.14441e-05 46.9819 1.14441e-05 46.5925C1.14441e-05 46.203 0.315243 45.8887 0.705757 45.8887ZM28.7003 38.6941C28.7003 34.3383 25.1481 30.7958 20.7803 30.7958C16.4125 30.7958 12.8603 34.3383 12.8603 38.6941C12.8603 43.05 16.4125 46.5925 20.7803 46.5925C25.1481 46.5925 28.7003 43.05 28.7003 38.6941Z" fill="#292B49"/>
<path d="M84.5482 38.683L83.8283 37.9652C83.5523 37.6899 83.5523 37.2441 83.8283 36.9704C84.1043 36.6952 84.5513 36.6952 84.8258 36.9704L85.5456 37.6883L86.2843 36.9501C86.5603 36.6748 87.0073 36.6748 87.2818 36.9501C87.5578 37.2254 87.5578 37.6711 87.2818 37.9448L86.5415 38.683L87.2629 39.4025C87.539 39.6778 87.539 40.1235 87.2629 40.3972C87.1249 40.5349 86.9446 40.6037 86.7642 40.6037C86.5838 40.6037 86.4035 40.5349 86.2655 40.3972L85.544 39.6778L84.8101 40.4113C84.6721 40.5489 84.4917 40.6177 84.3113 40.6177C84.131 40.6177 83.9506 40.5489 83.8126 40.4113C83.5366 40.136 83.5366 39.6903 83.8126 39.4166L84.5466 38.683H84.5482Z" fill="#292B49"/>
<path d="M19.7767 38.683L19.0568 37.9652C18.7808 37.6899 18.7808 37.2441 19.0568 36.9704C19.3328 36.6952 19.7798 36.6952 20.0543 36.9704L20.7741 37.6883L21.5128 36.9501C21.7888 36.6748 22.2342 36.6748 22.5103 36.9501C22.7863 37.2254 22.7863 37.6711 22.5103 37.9448L21.77 38.683L22.4914 39.4025C22.7675 39.6778 22.7675 40.1235 22.4914 40.3972C22.3534 40.5349 22.1731 40.6037 21.9927 40.6037C21.8124 40.6037 21.632 40.5349 21.494 40.3972L20.7726 39.6778L20.0386 40.4113C19.9006 40.5489 19.7202 40.6177 19.5399 40.6177C19.3595 40.6177 19.1791 40.5489 19.0411 40.4113C18.7651 40.136 18.7651 39.6903 19.0411 39.4166L19.7751 38.683H19.7767Z" fill="#292B49"/>
</g>
<defs>
<clipPath id="clip0_2016_11859">
<rect width="101" height="48" fill="white" transform="matrix(-1 0 0 1 101 0)"/>
</clipPath>
</defs>
</svg>
