<svg width="97" height="80" viewBox="0 0 97 80" fill="none" xmlns="http://www.w3.org/2000/svg">
<path d="M95.1201 35.7891L95.0821 35.742L95.0362 35.7026C93.3751 34.2794 92.0313 32.4144 90.6085 30.44C89.5065 28.9106 88.3669 27.329 86.959 25.7569C86.6414 25.378 86.1525 25.2327 85.6917 25.3667C85.5684 25.0532 85.441 24.7409 85.3095 24.4298C83.2966 19.6666 80.4148 15.389 76.7443 11.7156C73.0739 8.0422 68.7997 5.15835 64.0402 3.14357C59.1124 1.05761 53.878 0 48.4827 0C43.0872 0 37.8531 1.05761 32.9252 3.14357C28.1658 5.15813 23.8914 8.0422 20.2211 11.7156C16.5507 15.389 13.6691 19.6666 11.6559 24.4298C11.5256 24.7382 11.3993 25.0478 11.2771 25.3586C10.8254 25.2397 10.3509 25.3863 10.0405 25.7571C8.63258 27.3292 7.49297 28.9106 6.39095 30.4402C4.96818 32.4146 3.62441 34.2796 1.96328 35.7028L1.91736 35.7422L1.87909 35.7893C1.17119 36.6595 0.810839 37.7564 0.864634 38.878C0.943189 40.5159 1.13743 43.7063 1.55789 46.6703C2.08122 50.3588 2.78641 52.6248 3.71399 53.5975C4.81691 54.7538 4.98618 59.4123 4.15583 65.7549C4.06647 66.437 4.27512 67.1245 4.72822 67.6412C5.18087 68.1573 5.83386 68.4536 6.52014 68.4536H14.4866C15.131 68.4536 15.735 68.2004 16.1869 67.7404C16.6389 67.2804 16.8818 66.6719 16.8712 66.027L16.8448 64.4492C17.8825 65.7907 19.0086 67.0706 20.2214 68.2844C23.8918 71.9578 28.166 74.8416 32.9255 76.8564C37.8533 78.9424 43.0874 80 48.4829 80C53.8783 80 59.1127 78.9424 64.0405 76.8564C68.7999 74.8419 73.0743 71.9578 76.7446 68.2844C77.9708 67.0571 79.1084 65.7623 80.1555 64.4046L80.1285 66.027C80.1177 66.6719 80.3608 67.2804 80.8128 67.7404C81.2647 68.2004 81.8687 68.4536 82.5133 68.4536H90.4796C91.1658 68.4536 91.819 68.1575 92.2714 67.6412C92.7245 67.1245 92.9332 66.437 92.8441 65.7549C92.0137 59.4123 92.183 54.7538 93.2859 53.5975C94.2137 52.6248 94.9189 50.3591 95.442 46.6706C95.8625 43.7065 96.0567 40.5161 96.1351 38.8782C96.1886 37.7561 95.8283 36.6593 95.1201 35.7891ZM12.1617 26.8267L12.175 26.7701C12.2038 26.6174 12.2033 26.4667 12.1781 26.323C17.717 11.6451 31.9013 1.17858 48.4827 1.17858C65.0882 1.17858 79.2896 11.6758 84.8114 26.3874C84.7966 26.5115 84.7997 26.6399 84.8243 26.7699L84.8375 26.8265C85.8092 30.2969 86.7431 33.8534 86.5687 35.863L86.5606 35.9554L86.5777 36.0466C86.7206 36.8021 86.7929 37.5752 86.7929 38.3441V39.2949C86.7929 39.8207 86.5432 40.3242 86.125 40.6416C85.2845 41.2797 83.6275 42.4121 81.9704 42.8266C80.928 43.0873 80.2044 41.2815 79.8656 40.182C79.4832 38.9408 79.2894 37.6225 79.2894 36.2637V35.4746V32.7705V28.8897C79.2894 27.3364 78.1876 26.036 76.725 25.7299C74.7836 21.8911 72.0641 18.4482 68.7166 15.658C65.935 13.3393 62.8099 11.5309 59.4287 10.2829C55.929 8.99125 52.2462 8.3364 48.4827 8.3364C44.7177 8.3364 41.0335 8.99169 37.5327 10.2843C34.1504 11.5331 31.0246 13.3429 28.2423 15.663C24.8948 18.4545 22.176 21.8985 20.2355 25.7384C18.7923 26.0592 17.7094 27.3497 17.7094 28.8894V32.6223V35.5521V36.2635C17.7094 37.6223 17.5156 38.9408 17.1334 40.1818C16.7947 41.2815 16.0701 43.087 15.0286 42.8264C13.3713 42.4117 11.7142 41.2793 10.8738 40.6413C10.4556 40.3237 10.2059 39.8202 10.2059 39.2947V38.3438C10.2059 37.575 10.2784 36.8019 10.4211 36.0464L10.4384 35.9551L10.4303 35.8628C10.2561 33.8536 11.19 30.2971 12.1617 26.8267ZM73.7313 27.5966C73.9857 29.1431 73.2794 30.5981 72.8359 31.3279C72.603 31.7109 72.4648 32.1529 72.4362 32.6061C72.3624 33.771 72.3257 35.0101 72.3259 36.3309L61.4583 38.1409C60.4481 36.6235 58.7674 35.3284 56.5694 34.3794C54.1999 33.3562 51.4034 32.8156 48.4827 32.8156C42.7709 32.8156 37.6286 34.9461 35.498 38.1551L24.6734 36.3521C24.674 35.0232 24.6373 33.7768 24.5631 32.6059C24.5343 32.1529 24.396 31.7109 24.1633 31.3277C23.7197 30.5981 23.0136 29.1429 23.2679 27.5964C23.3642 27.0105 23.0872 26.4135 22.578 26.1114C22.2633 25.9245 21.9194 25.7941 21.5622 25.7233C26.7338 15.9768 36.9905 9.51545 48.4829 9.51545C59.9754 9.51545 70.2353 15.9801 75.4064 25.7296C75.0602 25.8017 74.7271 25.9301 74.4212 26.1117C73.9123 26.4138 73.635 27.0107 73.7313 27.5966ZM73.0189 46.5032L76.1209 52.8073C72.1028 61.4392 64.1382 67.9359 54.5607 69.8765C54.0554 69.979 53.5377 69.8511 53.1402 69.5258C52.747 69.2039 52.5212 68.7272 52.5212 68.2184V58.6536C52.5212 52.3784 57.0103 47.0763 63.1955 46.0459L72.7016 44.4625C72.7376 44.8977 72.7761 45.339 72.8175 45.7878C72.8402 46.0373 72.9082 46.2779 73.0189 46.5032ZM24.2961 44.4839L33.7702 46.0619C39.9553 47.092 44.4445 52.3943 44.4445 58.6696V68.2186C44.4445 68.7275 44.2189 69.2041 43.8255 69.526C43.4282 69.8513 42.9105 69.979 42.4052 69.8765C32.8422 67.9388 24.8854 61.4563 20.8615 52.8419L23.9805 46.503C24.0913 46.2777 24.159 46.0371 24.182 45.788C24.2225 45.3465 24.2603 44.9122 24.2961 44.4839ZM15.9578 59.7585C15.8214 60.0356 15.7133 60.326 15.6319 60.6238C15.5101 61.0691 15.4497 61.5311 15.4574 61.9929L15.4669 62.555L15.5249 66.0491C15.5297 66.33 15.4239 66.5949 15.2269 66.7954C15.0302 66.9956 14.7671 67.106 14.4864 67.106H6.51992C6.21673 67.106 5.93964 66.9803 5.73976 66.7523C5.53921 66.5237 5.45075 66.2315 5.49014 65.9297C5.73031 64.0967 6.01819 61.3834 6.02832 58.8671C6.04115 55.6546 5.60248 53.6265 4.6875 52.6671C3.50872 51.4311 2.55886 46.1227 2.20908 38.8135C2.17216 38.0433 2.41254 37.2894 2.88725 36.6845C4.64742 35.1633 6.02496 33.2515 7.48261 31.2281C8.45206 29.8828 9.45211 28.4968 10.6284 27.1299C10.6541 27.0999 10.6788 27.07 10.7047 27.04C9.74067 30.5125 8.92923 33.7624 9.08207 35.8862C8.93486 36.6956 8.85992 37.5221 8.85992 38.3445V39.2954C8.85992 40.086 9.17526 40.8479 9.71839 41.4102C9.82418 41.5196 9.93786 41.6224 10.0603 41.7154C11.1871 42.571 12.907 43.6851 14.7022 44.1343C15.8128 44.4121 17.3598 44.021 18.4198 40.5794C18.8105 39.3107 19.0226 37.9717 19.0518 36.5944C19.0541 36.4845 19.0556 36.3746 19.0556 36.2642V35.3077V32.1024V28.8901C19.0556 27.8586 19.8896 27.0186 20.9182 27.0094C20.9239 27.0094 20.9295 27.0089 20.9353 27.0089C21.2725 27.0089 21.6029 27.0992 21.891 27.2704C21.9259 27.2912 21.9464 27.3365 21.9395 27.3781C21.6147 29.353 22.4729 31.1394 23.0133 32.0283C23.1333 32.2256 23.2047 32.4549 23.2197 32.6912C23.2879 33.7685 23.3237 34.9121 23.3271 36.1281C23.3282 36.5185 23.326 36.9163 23.3204 37.322C23.2961 39.089 23.2078 41.0033 23.0554 43.0823C23.0271 43.47 22.9964 43.8629 22.9636 44.262C22.9258 44.7218 22.885 45.189 22.8411 45.6645C22.8333 45.7492 22.8101 45.8312 22.7723 45.908L20.1592 51.2187L19.4608 52.6383L15.9578 59.7585ZM80.1895 62.3396C73.1607 72.3022 61.5681 78.8207 48.4827 78.8207C35.4187 78.8207 23.8425 72.3236 16.8102 62.3887L16.8032 61.9702C16.7937 61.4126 16.9191 60.8538 17.1651 60.3534L20.1926 54.2005C21.6207 57.0456 23.4835 59.6763 25.7418 62.0125C30.217 66.642 35.8979 69.7608 42.1709 71.0317C42.3635 71.0707 42.5571 71.0898 42.7491 71.0898C43.4084 71.0898 44.0501 70.8641 44.5705 70.4381C45.2386 69.8914 45.6217 69.0823 45.6217 68.2181V58.6691C45.6217 55.3681 44.4474 52.1632 42.3149 49.6445C40.1827 47.126 37.2165 45.4406 33.9629 44.8986L24.3884 43.3037C24.5424 41.2306 24.6335 39.3172 24.6626 37.545L36.0931 39.449L36.2977 39.0974C38.0741 36.0448 42.9706 33.994 48.4823 33.994C53.9829 33.994 58.8763 36.0396 60.659 39.0843L60.8638 39.4344L72.3351 37.5236C72.3639 39.2958 72.4546 41.2095 72.6081 43.2826L63.0015 44.8826C59.7479 45.4246 56.7817 47.1101 54.6492 49.6285C52.5169 52.147 51.3427 55.3521 51.3427 58.6531V68.2179C51.3427 69.0818 51.7258 69.891 52.3938 70.4379C52.914 70.8639 53.556 71.0896 54.2152 71.0896C54.4075 71.0896 54.601 71.0705 54.7937 71.0315C61.0696 69.7599 66.7525 66.6388 71.2286 62.0062C73.4932 59.6623 75.3598 57.0218 76.7889 54.1663L79.8332 60.3534C80.0794 60.8535 80.2046 61.4126 80.1951 61.9702L80.1895 62.3396ZM94.7904 38.8133C94.4404 46.1225 93.4908 51.4309 92.312 52.6669C91.3968 53.6263 90.9581 55.6544 90.9709 58.8669C90.9808 61.3831 91.2691 64.0965 91.5091 65.9294C91.5487 66.2313 91.46 66.5235 91.2595 66.7521C91.0596 66.9801 90.7825 67.1058 90.4793 67.1058H82.5128C82.2322 67.1058 81.9691 66.9954 81.7723 66.7951C81.5756 66.5949 81.4696 66.3297 81.4743 66.0488L81.5333 62.5041L81.5418 61.9927C81.5497 61.5178 81.4865 61.0425 81.3577 60.5854C81.2776 60.3009 81.172 60.0236 81.0415 59.7583L77.52 52.6014L76.8211 51.1809L74.2265 45.9078C74.1887 45.831 74.1655 45.749 74.1579 45.6643C74.1133 45.1816 74.0721 44.7071 74.0336 44.2406C74.0008 43.8412 73.9704 43.4486 73.9422 43.0609C73.7901 40.9815 73.7023 39.0674 73.6784 37.3004C73.6728 36.8947 73.6708 36.4969 73.6721 36.1065C73.676 34.8986 73.7118 33.7621 73.7795 32.6912C73.7944 32.4549 73.8659 32.2256 73.9859 32.0281C74.5263 31.1392 75.3846 29.3528 75.0598 27.3779C75.053 27.3362 75.0733 27.291 75.1082 27.2702C75.3916 27.102 75.7159 27.0121 76.0472 27.0091C76.0529 27.0091 76.0585 27.0087 76.0639 27.0087C77.1002 27.0087 77.9436 27.8525 77.9436 28.8899V32.2299V35.2665V36.264C77.9436 36.3656 77.9447 36.4669 77.9467 36.5683C77.9737 37.9548 78.1862 39.3026 78.5795 40.5794C79.6396 44.021 81.1864 44.4121 82.297 44.1343C84.0923 43.6851 85.8122 42.571 86.9389 41.7154C87.0481 41.6325 87.1501 41.5419 87.246 41.4457C87.8105 40.8803 88.1393 40.1027 88.1393 39.2954V38.3445C88.1393 37.5221 88.0646 36.6956 87.9174 35.8862C88.07 33.7624 87.2586 30.5125 86.2947 27.04C86.3015 27.0477 86.3078 27.0553 86.3146 27.0632C87.5158 28.4515 88.5319 29.861 89.5169 31.2281C90.9745 33.2512 92.3521 35.1631 94.1122 36.6845C94.5865 37.2891 94.8271 38.0429 94.7904 38.8133Z" fill="#292B49"/>
</svg>
