<svg width="14" height="14" viewBox="0 0 14 14" fill="none" xmlns="http://www.w3.org/2000/svg">
<path id="Vector" d="M6.5275 10.5H7.5775V6.3H6.5275V10.5ZM7 5.005C7.16333 5.005 7.30042 4.9525 7.41125 4.8475C7.52208 4.7425 7.5775 4.60833 7.5775 4.445C7.5775 4.28167 7.52208 4.14167 7.41125 4.025C7.30042 3.90833 7.16333 3.85 7 3.85C6.83667 3.85 6.69958 3.90833 6.58875 4.025C6.47792 4.14167 6.4225 4.28167 6.4225 4.445C6.4225 4.60833 6.47792 4.7425 6.58875 4.8475C6.69958 4.9525 6.83667 5.005 7 5.005ZM7 14C6.04333 14 5.13917 13.8162 4.2875 13.4487C3.43583 13.0812 2.69208 12.5796 2.05625 11.9437C1.42042 11.3079 0.91875 10.5642 0.55125 9.7125C0.18375 8.86083 0 7.95083 0 6.9825C0 6.02583 0.18375 5.12167 0.55125 4.27C0.91875 3.41833 1.42042 2.6775 2.05625 2.0475C2.69208 1.4175 3.43583 0.91875 4.2875 0.55125C5.13917 0.18375 6.04917 0 7.0175 0C7.97417 0 8.87833 0.18375 9.73 0.55125C10.5817 0.91875 11.3225 1.4175 11.9525 2.0475C12.5825 2.6775 13.0812 3.41833 13.4487 4.27C13.8162 5.12167 14 6.03167 14 7C14 7.95667 13.8162 8.86083 13.4487 9.7125C13.0812 10.5642 12.5825 11.3079 11.9525 11.9437C11.3225 12.5796 10.5817 13.0812 9.73 13.4487C8.87833 13.8162 7.96833 14 7 14ZM7.0175 12.95C8.6625 12.95 10.0625 12.3696 11.2175 11.2088C12.3725 10.0479 12.95 8.63917 12.95 6.9825C12.95 5.3375 12.3725 3.9375 11.2175 2.7825C10.0625 1.6275 8.65667 1.05 7 1.05C5.355 1.05 3.95208 1.6275 2.79125 2.7825C1.63042 3.9375 1.05 5.34333 1.05 7C1.05 8.645 1.63042 10.0479 2.79125 11.2088C3.95208 12.3696 5.36083 12.95 7.0175 12.95Z" fill="#F79B39"/>
</svg>
