<svg width="10" height="8" viewBox="0 0 10 8" fill="none" xmlns="http://www.w3.org/2000/svg">
<path d="M3.8063 8C3.50209 8 3.21396 7.88399 3.02933 7.68397L0.530572 4.986C0.453318 4.90268 0.396917 4.80774 0.364595 4.70659C0.332272 4.60545 0.324662 4.50009 0.342198 4.39654C0.359735 4.293 0.402074 4.19329 0.466796 4.10312C0.531518 4.01295 0.617354 3.93409 0.719396 3.87104C0.821401 3.80774 0.937692 3.7615 1.0616 3.73499C1.18552 3.70848 1.31461 3.70221 1.4415 3.71654C1.56838 3.73088 1.69055 3.76553 1.80101 3.81852C1.91148 3.87151 2.00806 3.9418 2.08522 4.02534L3.72938 5.79922L7.8632 0.374717C8.0003 0.195615 8.21873 0.0682581 8.47058 0.0205834C8.72243 -0.0270913 8.98714 0.00880839 9.20664 0.120408C9.66332 0.352429 9.80388 0.843904 9.51855 1.21765L4.63433 7.62397C4.55095 7.73382 4.43603 7.82538 4.29953 7.89071C4.16304 7.95604 4.00909 7.99316 3.85106 7.99886C3.83568 8 3.82169 8 3.8063 8V8Z" fill="#181059"/>
</svg>
