<svg width="18" height="17" viewBox="0 0 18 17" fill="none" xmlns="http://www.w3.org/2000/svg">
<path d="M6.375 13.75H6C3 13.75 1.5 13 1.5 9.25V5.5C1.5 2.5 3 1 6 1H12C15 1 16.5 2.5 16.5 5.5V9.25C16.5 12.25 15 13.75 12 13.75H11.625C11.3925 13.75 11.1675 13.8625 11.025 14.05L9.9 15.55C9.405 16.21 8.595 16.21 8.1 15.55L6.975 14.05C6.855 13.885 6.5775 13.75 6.375 13.75Z" stroke="white" stroke-width="1.5" stroke-miterlimit="10" stroke-linecap="round" stroke-linejoin="round"/>
<path d="M5.25 5.5H12.75" stroke="white" stroke-width="1.5" stroke-linecap="round" stroke-linejoin="round"/>
<path d="M5.25 9.25H9.75" stroke="white" stroke-width="1.5" stroke-linecap="round" stroke-linejoin="round"/>
</svg>
