<svg width="18" height="20" viewBox="0 0 18 20" fill="none" xmlns="http://www.w3.org/2000/svg">
<path fill-rule="evenodd" clip-rule="evenodd" d="M16.0797 10.42L9.89968 16.61C8.21778 18.1047 5.66232 18.0295 4.07126 16.4384C2.48019 14.8473 2.40496 12.2919 3.89968 10.61L11.8997 2.60997C12.8916 1.66774 14.4478 1.66774 15.4397 2.60997C16.408 3.59131 16.408 5.16864 15.4397 6.14997L8.53968 13.04C8.35391 13.24 8.0755 13.3258 7.80935 13.2649C7.5432 13.2041 7.32973 13.0059 7.24935 12.7449C7.16897 12.484 7.23391 12.2 7.41968 12L12.5497 6.87997C12.9418 6.48785 12.9418 5.85209 12.5497 5.45997C12.1576 5.06785 11.5218 5.06785 11.1297 5.45997L5.99968 10.6C5.48121 11.1144 5.1896 11.8146 5.1896 12.545C5.1896 13.2754 5.48121 13.9755 5.99968 14.49C7.08883 15.5274 8.80053 15.5274 9.88968 14.49L16.7797 7.58997C18.4318 5.81691 18.3831 3.05391 16.6694 1.34024C14.9557 -0.373432 12.1927 -0.422182 10.4197 1.22997L2.41968 9.22997C0.178446 11.7123 0.288464 15.519 2.66932 17.8677C5.05018 20.2165 8.85807 20.2747 11.3097 18L17.4997 11.82C17.7533 11.5663 17.8524 11.1966 17.7596 10.8501C17.6667 10.5036 17.3961 10.2329 17.0496 10.1401C16.7031 10.0472 16.3333 10.1463 16.0797 10.4V10.42Z" fill="#888AA0"/>
</svg>
