<svg width="16" height="24" viewBox="0 0 16 24" fill="none" xmlns="http://www.w3.org/2000/svg">
<path d="M14.7288 21.6406C14.7288 22.7782 13.8034 23.7036 12.6658 23.7036H2.3593C1.22176 23.7036 0.296279 22.7782 0.296279 21.6406V20.7456C0.296279 20.5888 0.3317 20.4388 0.40152 20.2996C0.563779 19.9764 0.910359 19.7784 1.27786 19.7784C1.3555 19.7784 1.43416 19.7872 1.51214 19.8056L1.6232 19.8318C5.47604 20.7396 9.54912 20.7396 13.402 19.8318L13.513 19.8056C13.9606 19.7002 14.4272 19.908 14.6236 20.2996C14.6936 20.4386 14.729 20.5888 14.729 20.7456V21.6406H14.7288ZM9.65628 20.1262C8.23066 20.246 6.7944 20.246 5.36878 20.1262L6.2783 17.3966C6.45776 16.8674 6.95376 16.5118 7.51254 16.5118C8.0713 16.5118 8.5673 16.8674 8.7465 17.396L9.65628 20.1262ZM9.9594 20.0988L9.02734 17.3016C8.80714 16.652 8.1984 16.2156 7.51254 16.2156C6.82666 16.2156 6.21792 16.652 5.99746 17.3024L5.06566 20.0988C4.6507 20.059 4.23668 20.0092 3.82428 19.9492C4.44576 17.7294 4.71328 15.228 4.57634 12.8798L4.38354 9.572C4.45114 8.5336 5.48054 7.7212 6.7315 7.7212H8.29352C9.54448 7.7212 10.5739 8.5336 10.6415 9.572L10.4486 12.8782C10.3063 15.3164 10.5567 17.8206 11.1524 19.9562C10.756 20.0132 10.3582 20.0606 9.9594 20.0988ZM1.64734 17.2124L2.4995 8.3076C2.62538 6.9922 3.71678 6.0002 5.0382 6.0002H9.9869C11.3083 6.0002 12.3998 6.9922 12.5256 8.3076L13.3778 17.2124C13.4898 18.3826 12.766 19.5006 11.655 19.8782C11.586 19.8896 11.5167 19.9008 11.4475 19.9116C10.8534 17.7994 10.6032 15.3152 10.7444 12.8954L10.9379 9.5804C10.9382 9.5746 10.9382 9.5688 10.9379 9.563C10.866 8.364 9.70444 7.425 8.29356 7.425H6.73154C5.32068 7.425 4.15914 8.364 4.0873 9.563C4.0869 9.5688 4.0869 9.5746 4.0873 9.5804L4.28062 12.897C4.41642 15.2256 4.14912 17.7068 3.52928 19.9042C3.48774 19.8976 3.4462 19.8908 3.40478 19.884C2.27298 19.5206 1.53402 18.3976 1.6474 17.2124H1.64734ZM5.91578 4.5876H9.10938V5.704H5.91578V4.5876ZM4.03766 3.812C3.78992 3.5072 3.69376 3.112 3.77382 2.7276L3.9309 1.9738C4.09762 1.1734 4.71544 0.554197 5.48266 0.360199V1.8522C5.48266 2.6344 6.11906 3.2708 6.90122 3.2708H8.12404C8.9062 3.2708 9.5426 2.6346 9.5426 1.8522V0.360199C10.3098 0.554197 10.9276 1.1734 11.0944 1.9738L11.2514 2.7276C11.3315 3.112 11.2353 3.5072 10.9876 3.812C10.7398 4.1166 10.3725 4.2914 9.9799 4.2914H5.04548C4.65282 4.2914 4.28552 4.1166 4.03776 3.812H4.03766ZM9.03124 0.296198C9.1037 0.296198 9.17534 0.3004 9.24626 0.3078V1.8524C9.24626 2.4712 8.74286 2.9746 8.12398 2.9746H6.90118C6.28236 2.9746 5.7789 2.4712 5.7789 1.8524V0.3078C5.84982 0.3004 5.92146 0.296198 5.99392 0.296198H9.03124ZM13.4452 19.5174L13.334 19.5436C13.084 19.6024 12.8328 19.6572 12.5808 19.7084C13.3316 19.1192 13.767 18.1682 13.6728 17.1842L12.8206 8.2794C12.6802 6.8112 11.4619 5.704 9.9869 5.704H9.40562V4.5878H9.97974C10.462 4.5878 10.913 4.373 11.2173 3.999C11.5216 3.6248 11.6398 3.1394 11.5414 2.6672L11.3843 1.9134C11.1533 0.804598 10.1637 -1.90735e-06 9.03126 -1.90735e-06H5.99392C4.86138 -1.90735e-06 3.8718 0.804598 3.64088 1.9134L3.4838 2.6672C3.38542 3.1394 3.5035 3.6248 3.80784 3.999C4.1121 4.3732 4.56316 4.5878 5.04542 4.5878H5.61954V5.704H5.03826C3.5633 5.704 2.34508 6.8112 2.20458 8.2794L1.35244 17.1842C1.25782 18.1732 1.69524 19.1234 2.45002 19.7096C2.19618 19.658 1.94316 19.6028 1.69116 19.5436L1.58008 19.5174C1.00118 19.3808 0.394119 19.654 0.136739 20.1668C0.0460193 20.3474 0 20.5422 0 20.7458V21.6406C0 22.9416 1.05842 24 2.3593 24H12.6658C13.9668 24 15.0252 22.9416 15.0252 21.6406V20.7458C15.0252 20.5424 14.9792 20.3476 14.8884 20.1668C14.631 19.654 14.024 19.381 13.445 19.5174H13.4452Z" fill="#212353"/>
</svg>
