<svg width="18" height="17" viewBox="0 0 18 17" fill="none" xmlns="http://www.w3.org/2000/svg">
<path d="M13.133 9.62831C12.818 9.93581 12.638 10.3783 12.683 10.8508C12.7505 11.6608 13.493 12.2533 14.303 12.2533H15.728V13.1458C15.728 14.6983 14.4605 15.9658 12.908 15.9658H4.29797C2.74547 15.9658 1.47797 14.6983 1.47797 13.1458V8.09833C1.47797 6.54583 2.74547 5.27832 4.29797 5.27832H12.908C14.4605 5.27832 15.728 6.54583 15.728 8.09833V9.17833H14.213C13.793 9.17833 13.4105 9.34331 13.133 9.62831Z" stroke="white" stroke-width="1.5" stroke-linecap="round" stroke-linejoin="round"/>
<path d="M1.47797 8.7733V5.34584C1.47797 4.45334 2.02547 3.6583 2.85797 3.3433L8.81297 1.0933C9.74297 0.740804 10.7405 1.43083 10.7405 2.42833V5.27832" stroke="white" stroke-width="1.5" stroke-linecap="round" stroke-linejoin="round"/>
<path d="M16.5221 9.94342V11.4885C16.5221 11.901 16.1921 12.2384 15.7721 12.2534H14.3021C13.4921 12.2534 12.7496 11.6609 12.6821 10.8509C12.6371 10.3784 12.8171 9.93593 13.1321 9.62843C13.4096 9.34343 13.7921 9.17845 14.2121 9.17845H15.7721C16.1921 9.19345 16.5221 9.53092 16.5221 9.94342Z" stroke="white" stroke-width="1.5" stroke-linecap="round" stroke-linejoin="round"/>
<path d="M4.85297 8.46581H10.103" stroke="white" stroke-width="1.5" stroke-linecap="round" stroke-linejoin="round"/>
</svg>
