<svg width="22" height="21" viewBox="0 0 22 21" fill="none" xmlns="http://www.w3.org/2000/svg">
<path opacity="0.4" d="M21.1801 11.66C21.0301 10.01 20.5901 8.25 17.3801 8.25H4.62009C1.41009 8.25 0.980086 10.01 0.820086 11.66L0.260086 17.75C0.190086 18.51 0.440086 19.27 0.960086 19.84C1.49009 20.42 2.24009 20.75 3.04009 20.75H4.92009C6.54009 20.75 6.85009 19.82 7.05009 19.21L7.25009 18.61C7.48009 17.92 7.54009 17.75 8.44009 17.75H13.5601C14.4601 17.75 14.4901 17.85 14.7501 18.61L14.9501 19.21C15.1501 19.82 15.4601 20.75 17.0801 20.75H18.9601C19.7501 20.75 20.5101 20.42 21.0401 19.84C21.5601 19.27 21.8101 18.51 21.7401 17.75L21.1801 11.66Z" fill="#292B49"/>
<path d="M20 5.25008H19C18.99 5.25008 18.99 5.25008 18.98 5.25008L18.6 3.44008C18.24 1.69008 17.49 0.0800781 14.51 0.0800781H11.75H10.25H7.49C4.51 0.0800781 3.76 1.69008 3.4 3.44008L3.02 5.25008C3.01 5.25008 3.01 5.25008 3 5.25008H2C1.59 5.25008 1.25 5.59008 1.25 6.00008C1.25 6.41008 1.59 6.75008 2 6.75008H2.71L2.29 8.75008C2.83 8.44008 3.58 8.25008 4.62 8.25008H17.38C18.42 8.25008 19.17 8.44008 19.71 8.75008L19.29 6.75008H20C20.41 6.75008 20.75 6.41008 20.75 6.00008C20.75 5.59008 20.41 5.25008 20 5.25008Z" fill="#292B49"/>
<path d="M8 13.75H5C4.59 13.75 4.25 13.41 4.25 13C4.25 12.59 4.59 12.25 5 12.25H8C8.41 12.25 8.75 12.59 8.75 13C8.75 13.41 8.41 13.75 8 13.75Z" fill="#292B49"/>
<path d="M17 13.75H14C13.59 13.75 13.25 13.41 13.25 13C13.25 12.59 13.59 12.25 14 12.25H17C17.41 12.25 17.75 12.59 17.75 13C17.75 13.41 17.41 13.75 17 13.75Z" fill="#292B49"/>
</svg>
