<svg width="18" height="20" viewBox="0 0 18 20" fill="none" xmlns="http://www.w3.org/2000/svg">
<path opacity="0.4" d="M13.24 1.65039H4.76004C2.29004 1.65039 0.290039 3.66039 0.290039 6.12039V15.5304C0.290039 17.9904 2.30004 20.0004 4.76004 20.0004H13.23C15.7 20.0004 17.7 17.9904 17.7 15.5304V6.12039C17.71 3.65039 15.7 1.65039 13.24 1.65039Z" fill="#292B49"/>
<path d="M11.3503 0H6.65025C5.61025 0 4.76025 0.84 4.76025 1.88V2.82C4.76025 3.86 5.60025 4.7 6.64025 4.7H11.3503C12.3903 4.7 13.2303 3.86 13.2303 2.82V1.88C13.2403 0.84 12.3903 0 11.3503 0Z" fill="#292B49"/>
<path d="M12 10.9502H5C4.59 10.9502 4.25 10.6102 4.25 10.2002C4.25 9.7902 4.59 9.4502 5 9.4502H12C12.41 9.4502 12.75 9.7902 12.75 10.2002C12.75 10.6102 12.41 10.9502 12 10.9502Z" fill="#292B49"/>
<path d="M9.38 14.9502H5C4.59 14.9502 4.25 14.6102 4.25 14.2002C4.25 13.7902 4.59 13.4502 5 13.4502H9.38C9.79 13.4502 10.13 13.7902 10.13 14.2002C10.13 14.6102 9.79 14.9502 9.38 14.9502Z" fill="#292B49"/>
</svg>
