<svg width="22" height="22" viewBox="0 0 22 22" fill="none" xmlns="http://www.w3.org/2000/svg">
<path opacity="0.4" fill-rule="evenodd" clip-rule="evenodd" d="M21 13.25C21.4142 13.25 21.75 13.5858 21.75 14C21.75 18.2842 18.2842 21.75 14 21.75C13.7298 21.75 13.4805 21.6047 13.3474 21.3695C13.2142 21.1344 13.2179 20.8458 13.3569 20.6141L14.4069 18.8641C14.62 18.5089 15.0807 18.3938 15.4359 18.6069C15.791 18.82 15.9062 19.2807 15.6931 19.6359L15.4218 20.0881C18.1909 19.4456 20.25 16.9666 20.25 14C20.25 13.5858 20.5858 13.25 21 13.25Z" fill="#292D32"/>
<path opacity="0.4" fill-rule="evenodd" clip-rule="evenodd" d="M6.57821 1.91194C3.8091 2.55436 1.75 5.03342 1.75 8C1.75 8.41421 1.41421 8.75 1 8.75C0.585786 8.75 0.25 8.41421 0.25 8C0.25 3.71579 3.71579 0.25 8 0.25C8.2702 0.25 8.51952 0.395344 8.65265 0.630474C8.78578 0.865605 8.78214 1.15417 8.64312 1.38587L7.59313 3.13587C7.38002 3.49105 6.91933 3.60623 6.56414 3.39312C6.20896 3.18001 6.09378 2.71932 6.30689 2.36413L6.57821 1.91194Z" fill="#292D32"/>
<path opacity="0.4" d="M11 14.7V15.31H1V14.7C1 12.94 1.44 12.5 3.22 12.5H8.78C10.56 12.5 11 12.94 11 14.7Z" fill="#292D32"/>
<path d="M1 15.3096V16.8096V18.7996C1 20.5596 1.44 20.9996 3.22 20.9996H8.78C10.56 20.9996 11 20.5596 11 18.7996V16.8096V15.3096H1Z" fill="#292D32"/>
<path opacity="0.4" d="M21 3.2V3.81H11V3.2C11 1.44 11.44 1 13.22 1H18.78C20.56 1 21 1.44 21 3.2Z" fill="#292D32"/>
<path d="M11 3.80957V5.30957V7.29957C11 9.05957 11.44 9.49957 13.22 9.49957H18.78C20.56 9.49957 21 9.05957 21 7.29957V5.30957V3.80957H11Z" fill="#292D32"/>
</svg>
