<svg width="24" height="24" viewBox="0 0 24 24" fill="none" xmlns="http://www.w3.org/2000/svg">
<path d="M20.114 16.0464C19.8088 16.6319 19.4422 17.1807 19.0225 17.6836V17.6843C17.8766 17.1739 17.6402 16.1478 17.6738 15.2875C17.7097 14.3673 18.0712 13.491 18.6714 12.7921C19.7533 11.5324 20.7783 11.8219 21.0647 11.9383C21.0647 11.9592 21.0651 11.9794 21.0651 12C21.0651 13.4543 20.7225 14.8285 20.114 16.0464ZM14.8378 8.99203C14.8378 8.99203 13.0991 8.49458 12.0005 8.54391H11.9998C10.9004 8.49458 9.16245 8.99203 9.16245 8.99203C6.40083 9.99172 4.09451 10.0263 3.31992 10.004C3.26133 10.002 3.20858 9.97904 3.16952 9.94238C4.07053 6.05977 7.46663 3.13333 11.5767 2.9449C11.7168 2.93839 11.8579 2.93497 11.9998 2.93497C16.2986 2.93497 19.8982 5.92718 20.83 9.9417C20.791 9.9787 20.7386 10.0016 20.6796 10.003C19.902 10.0246 17.5867 9.98692 14.8378 8.99203ZM10.2454 12C10.2454 11.0322 11.032 10.2456 11.9998 10.2449H12.0005C12.9676 10.2449 13.7552 11.0322 13.7552 12C13.7552 12.9678 12.9676 13.7551 12.0005 13.7551H11.9998C11.032 13.7544 10.2454 12.9678 10.2454 12ZM11.9998 21.0123C10.0686 21.0123 8.27651 20.4131 6.80063 19.3908C7.24805 18.6977 9.40534 18.1715 12.0005 18.1715C14.5942 18.1715 16.7518 18.6977 17.1989 19.3908C15.723 20.4131 13.9316 21.0123 11.9998 21.0123ZM5.334 17.4911C5.22609 17.5617 5.1079 17.6264 4.97771 17.6843V17.6836C4.55461 17.1769 4.18564 16.624 3.87937 16.0327C3.27469 14.8182 2.93485 13.4492 2.93485 12V11.9383C3.22057 11.8219 4.24628 11.532 5.32852 12.7921C5.60876 13.1182 5.83693 13.4827 6.00411 13.873C6.19527 14.3187 6.3073 14.7969 6.32649 15.2875C6.35595 16.0501 6.17335 16.9426 5.334 17.4911ZM22.9993 11.8732C22.9993 11.8599 22.9986 11.8472 22.9986 11.8342C22.9983 11.8184 22.9983 11.8027 22.9979 11.7872C22.9979 11.766 22.9969 11.7444 22.9962 11.7232V11.7228C22.9962 11.7143 22.9959 11.7057 22.9959 11.6968C22.9955 11.6766 22.9945 11.6564 22.9942 11.6362C22.9935 11.6235 22.9931 11.6108 22.9925 11.5981C22.9907 11.5396 22.988 11.4806 22.9849 11.4224C22.9849 11.419 22.9846 11.4162 22.9846 11.4135C22.9836 11.3998 22.9832 11.3861 22.9822 11.3731C22.9798 11.3278 22.977 11.2826 22.974 11.2381C22.9729 11.2268 22.9723 11.2151 22.9716 11.2038C22.9716 11.2021 22.9709 11.2 22.9709 11.1987C22.9685 11.1658 22.9664 11.1329 22.9633 11.1C22.9627 11.0866 22.9616 11.0736 22.9603 11.061C22.9603 11.0572 22.9596 11.0538 22.9592 11.05C22.9575 11.0253 22.9551 11.0003 22.9527 10.9753C22.9514 10.9575 22.9493 10.94 22.9476 10.9222C22.9455 10.8989 22.9431 10.8753 22.9407 10.8516C22.9404 10.8499 22.9404 10.8485 22.94 10.8465C22.9376 10.8232 22.9352 10.7996 22.9325 10.7756C22.9318 10.7704 22.9315 10.7653 22.9311 10.7602C22.9291 10.7461 22.9277 10.7321 22.926 10.7177C22.926 10.717 22.926 10.7156 22.9253 10.7139C22.9239 10.7023 22.9226 10.6903 22.9212 10.6783C22.9174 10.6468 22.9137 10.6152 22.9096 10.5837C22.9075 10.569 22.9058 10.5539 22.9037 10.5388C22.902 10.5238 22.8996 10.5083 22.8976 10.4933C22.8972 10.4902 22.8969 10.4871 22.8962 10.4837C22.8938 10.4669 22.8914 10.4498 22.8893 10.433C22.8887 10.4295 22.8883 10.4265 22.888 10.423C22.8859 10.4097 22.8835 10.396 22.8818 10.3826C22.8784 10.361 22.8756 10.3394 22.8722 10.3179C22.8719 10.3168 22.8719 10.3155 22.8719 10.3144C22.8695 10.3 22.8671 10.2853 22.8647 10.2709C22.8441 10.1397 22.8212 10.0092 22.7958 9.87934C22.7938 9.87078 22.7924 9.86187 22.7907 9.85296C22.7886 9.84303 22.7862 9.83344 22.7845 9.82282C22.7794 9.79746 22.7739 9.77211 22.7688 9.74745C22.7674 9.74059 22.7667 9.73443 22.765 9.7286C22.7633 9.71867 22.7609 9.70908 22.7592 9.69948C22.7533 9.67379 22.7479 9.64809 22.742 9.62274C22.7393 9.60869 22.7359 9.59396 22.7328 9.57992C22.7266 9.55285 22.7204 9.52579 22.7143 9.49872C22.7126 9.49153 22.7112 9.48502 22.7091 9.47782C22.6934 9.40828 22.6763 9.33873 22.6584 9.26987C22.6584 9.26884 22.6581 9.26781 22.6581 9.26679C22.6506 9.23869 22.643 9.20992 22.6355 9.18148C22.6321 9.16949 22.629 9.1575 22.6259 9.14517C22.6184 9.11844 22.6115 9.09206 22.604 9.06534C22.6002 9.05164 22.5964 9.03793 22.5927 9.02457C22.5851 8.99819 22.5779 8.97216 22.5704 8.94578C22.5663 8.93242 22.5625 8.91871 22.5584 8.90501C22.5509 8.87863 22.543 8.85225 22.5348 8.82621C22.531 8.81353 22.5272 8.8012 22.5235 8.78852C22.5152 8.76112 22.5067 8.73337 22.4981 8.7063C22.4954 8.69774 22.493 8.68917 22.4902 8.68027C22.4587 8.5816 22.4262 8.48328 22.3926 8.38564C22.3902 8.37913 22.3878 8.37262 22.3854 8.36576C22.3755 8.33836 22.3655 8.31061 22.3556 8.28286C22.3515 8.27155 22.3477 8.26025 22.3436 8.24894C22.334 8.22222 22.3244 8.19584 22.3145 8.16946C22.31 8.15713 22.3056 8.14513 22.3008 8.1328C22.2908 8.10711 22.2809 8.08073 22.2713 8.05469C22.2665 8.0427 22.2617 8.03071 22.2569 8.01872C22.2466 7.99234 22.2364 7.96596 22.2261 7.93958C22.2223 7.9293 22.2182 7.91937 22.2138 7.90909C22.162 7.78027 22.1086 7.65283 22.0521 7.52641C22.0479 7.51716 22.0438 7.50757 22.0394 7.49832L22.0041 7.42089C21.999 7.4089 21.9935 7.39725 21.9883 7.38595C21.9763 7.36094 21.9654 7.33627 21.9534 7.31126C21.9479 7.29893 21.9417 7.28694 21.9359 7.2746C21.9243 7.25028 21.9126 7.22527 21.9003 7.20095C21.8948 7.18895 21.889 7.17765 21.8835 7.166C21.8712 7.14065 21.8585 7.11564 21.8462 7.09029C21.842 7.08172 21.8373 7.0735 21.8331 7.06459C21.7886 6.97552 21.7424 6.88781 21.6954 6.79977C21.6913 6.79189 21.6869 6.78332 21.6824 6.77545C21.669 6.75112 21.656 6.72714 21.6427 6.70316C21.6361 6.69117 21.6296 6.67918 21.6231 6.66684C21.6105 6.64423 21.5971 6.62128 21.5844 6.59867C21.5776 6.58565 21.57 6.57297 21.5625 6.55961C21.5498 6.53769 21.5371 6.51507 21.5238 6.49281C21.5162 6.47979 21.5087 6.46677 21.5012 6.45409C21.4882 6.43148 21.4755 6.40921 21.4618 6.38729C21.4549 6.37495 21.4474 6.36296 21.4402 6.35063C21.4265 6.32768 21.4124 6.30438 21.3987 6.28142C21.3943 6.27457 21.3895 6.26704 21.3847 6.2595C21.3528 6.20674 21.3199 6.15398 21.2864 6.10191C21.2826 6.09574 21.2792 6.08957 21.2747 6.08375C21.261 6.06182 21.247 6.04024 21.2329 6.01865C21.2244 6.00564 21.2161 5.99228 21.2076 5.9796C21.1945 5.95939 21.1808 5.93917 21.1675 5.91896C21.1582 5.90491 21.149 5.89087 21.1394 5.87682C21.1264 5.85695 21.113 5.83742 21.0993 5.8179C21.0897 5.80351 21.0798 5.78877 21.0698 5.77473C21.0568 5.75554 21.0435 5.73636 21.0298 5.71683C21.0202 5.70244 21.0096 5.68771 21 5.67366C20.9863 5.65448 20.9726 5.63529 20.9595 5.61645C20.9489 5.6024 20.9386 5.58836 20.9287 5.57397C20.9147 5.55478 20.901 5.5356 20.8869 5.51675C20.8831 5.51127 20.879 5.50545 20.8749 5.49997C20.8434 5.45715 20.8112 5.41398 20.779 5.3715C20.7677 5.35642 20.7564 5.34135 20.7451 5.32627C20.7321 5.30914 20.7184 5.29167 20.7046 5.2742C20.693 5.25912 20.681 5.24371 20.6694 5.22863C20.6557 5.21185 20.6426 5.19437 20.6289 5.17759C20.6169 5.16251 20.6046 5.14676 20.5926 5.13168C20.5793 5.11489 20.5656 5.0981 20.5519 5.08166C20.5399 5.0659 20.5268 5.05049 20.5142 5.03507C20.5011 5.01862 20.4874 5.00252 20.4744 4.98608C20.4611 4.97032 20.4477 4.95456 20.4343 4.9388C20.4213 4.92304 20.408 4.90728 20.3949 4.89152C20.3799 4.87371 20.3648 4.85658 20.3497 4.83842C20.3295 4.81512 20.3093 4.79149 20.2887 4.76853C20.272 4.74866 20.2548 4.72948 20.238 4.71029C20.2247 4.69556 20.212 4.68151 20.1993 4.66712C20.1843 4.65068 20.1699 4.63423 20.1551 4.61813C20.1414 4.60306 20.1284 4.58867 20.1147 4.57394C20.1007 4.55783 20.0863 4.54242 20.0715 4.527C20.0578 4.51193 20.0445 4.4972 20.0308 4.48281C20.016 4.46739 20.001 4.45163 19.9866 4.43622C19.9729 4.42148 19.9592 4.40709 19.9455 4.39305C19.9307 4.37695 19.915 4.36153 19.8999 4.34543C19.8865 4.33172 19.8732 4.31768 19.8595 4.30432C19.843 4.28719 19.8266 4.27074 19.8101 4.25396C19.7975 4.24162 19.7855 4.22895 19.7728 4.21627C19.7451 4.18852 19.7166 4.16077 19.6885 4.13302C19.6762 4.12137 19.6642 4.10972 19.6522 4.09773C19.6351 4.08094 19.6173 4.06416 19.5998 4.04737C19.5861 4.03435 19.572 4.02133 19.5583 4.00797C19.5419 3.9929 19.5258 3.97748 19.51 3.96241C19.4953 3.9487 19.4809 3.93568 19.4662 3.92198C19.4508 3.90759 19.4347 3.89286 19.4192 3.87882C19.4042 3.86511 19.3894 3.85141 19.3747 3.83839C19.3586 3.82366 19.3432 3.80961 19.3271 3.79522C19.312 3.78186 19.2969 3.76884 19.2826 3.75582C19.2661 3.74109 19.2497 3.72704 19.2336 3.713C19.2185 3.69964 19.2041 3.68696 19.189 3.67394C19.1712 3.65853 19.1527 3.64277 19.1349 3.62735C19.1109 3.60714 19.0869 3.58693 19.063 3.56705C19.0451 3.55198 19.0273 3.53656 19.0088 3.52217C19.0081 3.5208 19.0064 3.51977 19.0057 3.51875C18.9729 3.49202 18.9403 3.4653 18.9074 3.43858C18.9061 3.43755 18.905 3.43653 18.9037 3.4355C18.9013 3.43378 18.8985 3.43139 18.8961 3.42933C18.8913 3.42556 18.8862 3.42145 18.8814 3.41768C18.8783 3.41494 18.8745 3.41254 18.8711 3.4098C18.8673 3.40706 18.8636 3.40398 18.8605 3.4009C18.8577 3.39884 18.8547 3.39644 18.8523 3.39473C18.8382 3.38343 18.8245 3.37246 18.8105 3.3615C18.8101 3.36081 18.8091 3.36047 18.8088 3.35979C18.8064 3.35807 18.804 3.35601 18.8016 3.3543C18.7858 3.34163 18.7694 3.32895 18.7529 3.31628C18.7399 3.30497 18.7272 3.29401 18.7128 3.2851C18.6789 3.25872 18.6447 3.23303 18.6104 3.20733C18.6104 3.20665 18.6097 3.20665 18.6094 3.2063C18.609 3.20562 18.608 3.20528 18.6077 3.20493C18.5933 3.19465 18.5792 3.18369 18.5652 3.17341C18.5641 3.17239 18.5628 3.17136 18.5621 3.17101C18.5559 3.16622 18.5501 3.16142 18.5439 3.15731C18.5295 3.14669 18.5148 3.13573 18.5004 3.12545C18.4864 3.11517 18.4723 3.10455 18.4579 3.09428C18.4477 3.08674 18.4374 3.0792 18.4275 3.07235C18.4257 3.07098 18.4244 3.07029 18.423 3.06892C18.4137 3.06241 18.4048 3.05625 18.3959 3.04974C18.375 3.03466 18.3531 3.01925 18.3322 3.00452C18.312 2.99013 18.2911 2.9754 18.2709 2.96135C18.2688 2.95964 18.2668 2.95792 18.2644 2.95655C18.2318 2.93394 18.1996 2.91201 18.1667 2.88975C18.1661 2.8894 18.1654 2.88906 18.1647 2.88837C18.163 2.887 18.1609 2.88632 18.1592 2.88461C18.1438 2.87399 18.1277 2.86371 18.1116 2.85275C18.1102 2.85172 18.1085 2.85035 18.1064 2.84966C18.0938 2.8411 18.0811 2.83253 18.0684 2.82397C18.0667 2.8226 18.0646 2.82191 18.0633 2.8202C18.0629 2.81986 18.0623 2.81986 18.0619 2.81951C18.0458 2.80924 18.0304 2.79862 18.0143 2.78834C18.0129 2.78731 18.0115 2.78662 18.0102 2.7856C18.0088 2.78525 18.0078 2.78423 18.0064 2.7832C17.9787 2.76539 17.9509 2.74688 17.9232 2.72907C17.9184 2.72633 17.9139 2.7229 17.9091 2.71982C17.9016 2.71571 17.8947 2.71125 17.8879 2.7068C17.8838 2.7044 17.8797 2.70132 17.8752 2.69858C17.869 2.69481 17.8632 2.69104 17.857 2.68727C17.8348 2.67357 17.8132 2.65952 17.7913 2.64582C17.7913 2.64582 17.7913 2.64582 17.7906 2.64582C17.7813 2.63999 17.7714 2.63383 17.7621 2.628C17.7433 2.61636 17.7245 2.60505 17.706 2.59374C17.7053 2.5934 17.7042 2.59272 17.7036 2.59238C17.6816 2.57867 17.6597 2.566 17.6378 2.55298C17.6326 2.54955 17.6282 2.54681 17.6234 2.54407C17.6231 2.54338 17.622 2.54338 17.6213 2.54304C17.598 2.52899 17.5741 2.51495 17.5501 2.5009C17.5453 2.49782 17.5405 2.49508 17.536 2.49234C17.5323 2.48994 17.5285 2.48857 17.5247 2.48617C17.5223 2.48446 17.5196 2.48309 17.5165 2.48137C17.5158 2.48069 17.5144 2.48 17.5131 2.47897C17.5055 2.47486 17.498 2.47007 17.4905 2.46596C17.4833 2.46185 17.4757 2.45739 17.4682 2.45328C17.4682 2.45328 17.4682 2.45328 17.4679 2.45328C17.4627 2.44985 17.4569 2.44677 17.4514 2.44403C17.4374 2.43547 17.423 2.42759 17.4086 2.41937C17.4038 2.41662 17.3987 2.41388 17.3935 2.41114C17.3925 2.41046 17.3911 2.40943 17.3901 2.40909C17.3894 2.40875 17.3884 2.40806 17.388 2.40772C17.3781 2.40189 17.3678 2.39641 17.3579 2.39093C17.3569 2.39025 17.3565 2.3899 17.3555 2.38922C17.3555 2.38922 17.3555 2.38922 17.3551 2.38922C17.3312 2.37586 17.3072 2.36249 17.2832 2.34948C17.2808 2.3481 17.2787 2.34708 17.2763 2.34605C17.2698 2.34228 17.263 2.33817 17.2561 2.3344C17.2541 2.33338 17.2517 2.332 17.2486 2.33063C17.2342 2.32275 17.2195 2.31522 17.2051 2.307C17.2047 2.30665 17.2041 2.30665 17.2037 2.30631C17.19 2.29912 17.176 2.29158 17.1619 2.28404C17.1585 2.28233 17.1554 2.28027 17.152 2.27856C17.1383 2.27136 17.1246 2.26451 17.1116 2.25732C17.1051 2.25389 17.0989 2.25013 17.0924 2.24704C17.0893 2.24567 17.0862 2.2443 17.0835 2.24224C17.0739 2.23745 17.065 2.233 17.0557 2.2282C17.0338 2.21689 17.0119 2.20559 16.9899 2.19428C16.9879 2.19325 16.9865 2.19257 16.9851 2.19188C16.9845 2.19154 16.9845 2.19154 16.9841 2.19154C16.9574 2.17784 16.9307 2.16413 16.904 2.15112C16.8981 2.14837 16.893 2.14529 16.8872 2.14255C16.8769 2.13741 16.8666 2.13227 16.8563 2.12748C16.8433 2.12062 16.83 2.11446 16.8169 2.10829C16.7998 2.09973 16.7827 2.0915 16.7652 2.08294C16.7505 2.07574 16.7354 2.06821 16.7203 2.0617C16.7022 2.05279 16.684 2.04457 16.6655 2.03532C16.6552 2.03086 16.645 2.02607 16.6343 2.02093C16.6045 2.00723 16.5744 1.99318 16.5446 1.97947C16.5391 1.97673 16.5329 1.97433 16.5274 1.97194C16.5113 1.9644 16.4949 1.95755 16.4788 1.95035C16.4648 1.94419 16.451 1.93768 16.4377 1.93151C16.4339 1.93014 16.4302 1.92843 16.4267 1.92672C16.425 1.92637 16.4233 1.92535 16.4216 1.925C16.4137 1.92123 16.4055 1.91747 16.3973 1.91404C16.3921 1.91198 16.3866 1.90959 16.3815 1.90719C16.3702 1.90239 16.3589 1.8976 16.3479 1.89246C16.3397 1.88937 16.3322 1.88595 16.3243 1.88286C16.3178 1.87978 16.3106 1.8767 16.3041 1.87361C16.2911 1.86813 16.2774 1.86265 16.264 1.85683C16.2609 1.8558 16.2582 1.85443 16.2547 1.85306C16.2476 1.84998 16.24 1.84689 16.2325 1.84381C16.2304 1.84278 16.2273 1.84175 16.2246 1.84038C16.2229 1.84004 16.2215 1.83901 16.2198 1.83867C16.2143 1.83627 16.2092 1.83387 16.2034 1.83182C16.1989 1.8301 16.1944 1.82805 16.1903 1.82633C16.1749 1.81982 16.1592 1.81366 16.1437 1.80715C16.1372 1.80475 16.1307 1.80201 16.1246 1.79893C16.1146 1.79516 16.1054 1.79139 16.0958 1.78762C16.093 1.78694 16.0896 1.78557 16.0869 1.78454C16.0033 1.75062 15.9187 1.71807 15.834 1.68656L15.7888 1.66977C15.7868 1.66874 15.7844 1.66806 15.7823 1.66737C15.7481 1.6547 15.7135 1.64236 15.6785 1.62969C15.6765 1.62934 15.6747 1.629 15.673 1.62797C15.6076 1.60502 15.5422 1.58275 15.4764 1.56082C15.4716 1.55945 15.4671 1.5574 15.4623 1.55603C15.4257 1.5437 15.389 1.53205 15.3524 1.5204C15.3465 1.51834 15.3411 1.51663 15.3349 1.51457C15.3246 1.51149 15.3137 1.50806 15.3034 1.50498C15.2876 1.4995 15.2725 1.49505 15.2564 1.49025C15.2527 1.48888 15.2486 1.48751 15.2448 1.48614C15.2403 1.48511 15.2366 1.48374 15.2325 1.48271C15.2287 1.48134 15.2249 1.48031 15.2212 1.47929C15.216 1.47757 15.2112 1.4762 15.2061 1.47483C15.2037 1.47381 15.2009 1.47278 15.1985 1.47244C15.1657 1.4625 15.1328 1.45256 15.0995 1.44263C15.0961 1.44194 15.0923 1.44058 15.0893 1.43955C15.0694 1.43372 15.0495 1.42824 15.0293 1.42242C14.981 1.40837 14.932 1.39501 14.8827 1.38165C14.8823 1.38131 14.8813 1.38131 14.8803 1.38062L14.7847 1.35527C14.7809 1.35458 14.7775 1.35356 14.7737 1.35253C14.7713 1.35218 14.7696 1.3515 14.7672 1.35116C14.7467 1.34533 14.7258 1.3402 14.7052 1.33506C14.6932 1.33232 14.6823 1.32889 14.6703 1.32615C14.6614 1.32375 14.6514 1.32135 14.6425 1.3193C14.6394 1.31861 14.636 1.31793 14.6329 1.3169C14.5706 1.30183 14.5082 1.28709 14.4459 1.27304C14.44 1.27167 14.4339 1.27031 14.4284 1.26894C14.4277 1.26894 14.4274 1.26894 14.4263 1.26825C14.4239 1.26791 14.4219 1.26756 14.4195 1.26688C14.4188 1.26654 14.4185 1.26654 14.4174 1.26654C14.4099 1.26482 14.403 1.26311 14.3955 1.26174C14.3681 1.25557 14.341 1.24975 14.314 1.24392C14.3112 1.2429 14.3085 1.24255 14.3058 1.24221C14.2759 1.23536 14.2465 1.22954 14.2167 1.22337C14.2023 1.22063 14.1876 1.21755 14.1732 1.21446C14.1488 1.20967 14.1242 1.20487 14.1002 1.20042C14.092 1.1987 14.0838 1.19699 14.0759 1.19562C14.0724 1.19493 14.0697 1.19425 14.0663 1.19357C14.0646 1.19357 14.0625 1.19288 14.0608 1.19288C14.0235 1.18569 13.9871 1.17849 13.9498 1.17198C13.9488 1.17198 13.9481 1.17164 13.9471 1.17164C13.9107 1.16547 13.8751 1.15896 13.8388 1.1528C13.8371 1.1528 13.8357 1.15245 13.8337 1.15177C13.833 1.15177 13.8313 1.15177 13.8299 1.15142C13.8295 1.15142 13.8296 1.15142 13.8285 1.15142C13.8275 1.15108 13.8261 1.15108 13.8254 1.15108C13.8128 1.14868 13.7994 1.14663 13.7867 1.14423C13.7723 1.14183 13.758 1.13978 13.7436 1.13738C13.735 1.13601 13.7271 1.13498 13.7186 1.13361C13.7155 1.13293 13.7117 1.13224 13.7079 1.13155C13.7031 1.13121 13.6983 1.13018 13.6942 1.12984C13.6816 1.12779 13.6689 1.12539 13.6562 1.12368C13.6398 1.12128 13.6233 1.11854 13.6069 1.11614C13.5969 1.11511 13.5873 1.11374 13.5781 1.11237C13.5695 1.111 13.5613 1.10997 13.5527 1.1086C13.5387 1.10689 13.525 1.10483 13.5109 1.10312C13.5034 1.10209 13.4959 1.10072 13.4883 1.09969C13.4859 1.09935 13.4835 1.09935 13.4808 1.09867C13.4757 1.09832 13.4705 1.0973 13.4657 1.09695C13.463 1.09627 13.4606 1.09593 13.4578 1.09593C13.4493 1.09456 13.4414 1.09353 13.4328 1.0925C13.4277 1.09182 13.4226 1.09113 13.4178 1.09044C13.416 1.09044 13.414 1.08976 13.4123 1.08976C13.4109 1.08941 13.4095 1.08942 13.4078 1.08942C13.4061 1.08873 13.4041 1.08873 13.4027 1.08839C13.3989 1.08805 13.3951 1.08736 13.3914 1.08702C13.3825 1.08599 13.3736 1.08496 13.3643 1.08359C13.3585 1.08325 13.353 1.08222 13.3472 1.08188C13.3444 1.08119 13.341 1.08085 13.3383 1.08051C13.3359 1.08051 13.3342 1.07982 13.3318 1.07948C13.3129 1.07708 13.2934 1.07537 13.2739 1.07297C13.2684 1.07229 13.2626 1.0716 13.2567 1.07091C13.2509 1.07023 13.2454 1.06954 13.2396 1.0692C13.2379 1.06852 13.2358 1.06852 13.2341 1.06817C13.2328 1.06817 13.231 1.06818 13.2304 1.06783H13.2293C13.1947 1.06406 13.1598 1.0603 13.1245 1.05653C13.1183 1.05584 13.1122 1.0555 13.1063 1.05447C13.0687 1.0507 13.0306 1.04762 12.9926 1.04419C12.9919 1.04419 12.9916 1.04419 12.9916 1.04385C12.9539 1.04043 12.9159 1.03769 12.8782 1.03426H12.8765C12.87 1.03392 12.8631 1.03357 12.8563 1.03289C12.8528 1.03255 12.8497 1.03186 12.8463 1.03186C12.8134 1.02981 12.7802 1.02672 12.7466 1.02432C12.7439 1.02432 12.7405 1.02432 12.7377 1.02398C12.7274 1.02364 12.7175 1.02295 12.7076 1.02227H12.7035C12.6812 1.0209 12.6589 1.01918 12.6363 1.01781C12.624 1.01747 12.6123 1.01678 12.6 1.0161C12.5743 1.01473 12.5489 1.0137 12.5229 1.01233C12.5085 1.01165 12.4941 1.01096 12.4797 1.00993C12.465 1.00959 12.4506 1.00891 12.4359 1.00857C12.4294 1.00788 12.4232 1.00788 12.4171 1.00753C12.4078 1.00753 12.3986 1.00719 12.3893 1.00651C12.3777 1.00617 12.366 1.00582 12.3547 1.00514C12.3355 1.0048 12.3163 1.00411 12.2975 1.00377C12.2889 1.00377 12.281 1.00343 12.2728 1.00343C12.266 1.00274 12.2584 1.00274 12.2512 1.00274H12.2464C12.2451 1.00274 12.2444 1.00274 12.2434 1.0024H12.2317C12.2142 1.00205 12.1968 1.00205 12.1793 1.00137C12.1625 1.00103 12.145 1.00103 12.1283 1.00034H12.1005C12.0669 0.999999 12.0337 1 12.0005 1C12.0005 1 12.0005 1 11.9998 1H11.9426C11.921 1.00034 11.8994 1.00034 11.8775 1.00034H11.8761C11.8758 1.00034 11.8758 1.00034 11.8758 1.00034C11.8754 1.00034 11.8754 1.00034 11.8754 1.00034H11.873C11.8542 1.00103 11.835 1.00137 11.8155 1.00137C11.7963 1.00205 11.7768 1.00205 11.7569 1.0024C11.7555 1.00274 11.7541 1.00274 11.7528 1.00274H11.7504C11.7439 1.00274 11.7377 1.00274 11.7315 1.00343C11.7213 1.00343 11.7103 1.00377 11.7 1.00377C11.6815 1.00411 11.6634 1.0048 11.6449 1.00514C11.6346 1.00582 11.624 1.00617 11.6133 1.00651C11.6079 1.00651 11.6024 1.00719 11.5965 1.00719C11.5825 1.00754 11.5685 1.00856 11.5544 1.00891C11.5417 1.00959 11.5284 1.00994 11.5157 1.01028C11.5051 1.01096 11.4945 1.0113 11.4842 1.01165C11.4715 1.01233 11.4588 1.01336 11.4462 1.0137C11.4393 1.01405 11.4318 1.01405 11.4246 1.01473C11.4157 1.01507 11.4061 1.01541 11.3972 1.0161C11.3859 1.01644 11.3752 1.01747 11.3636 1.01781C11.3441 1.01884 11.3256 1.02021 11.306 1.02158C11.2995 1.02227 11.2923 1.02227 11.2858 1.02261C11.2759 1.02364 11.2666 1.02398 11.2574 1.02432C11.2296 1.02638 11.2022 1.02809 11.1748 1.03049C11.1659 1.03117 11.1567 1.03152 11.1478 1.03255C11.1454 1.03255 11.143 1.03289 11.1406 1.03289C11.1275 1.03392 11.1142 1.03529 11.1012 1.03631C11.0724 1.03871 11.0429 1.04111 11.0141 1.04317C10.946 1.04933 10.8778 1.05653 10.8103 1.06338C10.8017 1.06441 10.7939 1.06543 10.7853 1.06646C10.7802 1.0668 10.7747 1.06783 10.7689 1.06817C10.7658 1.06852 10.7627 1.0692 10.7596 1.0692C10.7432 1.07091 10.726 1.07297 10.7096 1.07469C10.6955 1.07674 10.6815 1.07811 10.6678 1.07948C10.6626 1.08051 10.6572 1.08085 10.6513 1.08188C10.6465 1.08222 10.6421 1.08291 10.6373 1.08359C10.6147 1.08667 10.5921 1.08942 10.5695 1.09216C10.5564 1.09387 10.5434 1.09558 10.5301 1.09729C10.5287 1.09729 10.527 1.0973 10.5256 1.09764C10.5099 1.0997 10.4944 1.10209 10.4783 1.10449C10.4681 1.10586 10.4574 1.10723 10.4465 1.1086C10.4348 1.11066 10.4225 1.11203 10.4108 1.11374C10.4047 1.11477 10.3992 1.1158 10.393 1.11614C10.3793 1.11854 10.3656 1.12025 10.3516 1.12265C10.3159 1.12779 10.28 1.13361 10.245 1.13909C10.2396 1.14012 10.2344 1.14115 10.2293 1.14183C10.2276 1.14183 10.2262 1.14252 10.2241 1.14252C10.206 1.1456 10.1871 1.14869 10.1686 1.15177C10.1683 1.15177 10.1683 1.15177 10.1679 1.15177C10.1292 1.15794 10.0909 1.16513 10.0525 1.17164C10.0518 1.17164 10.0508 1.17198 10.0504 1.17198C10.0176 1.17815 9.98432 1.18431 9.95143 1.19048C9.94355 1.19185 9.93499 1.19322 9.92711 1.19493C9.9254 1.19493 9.92368 1.19562 9.92197 1.19596C9.91649 1.19699 9.91101 1.19802 9.90552 1.1987C9.87675 1.20453 9.84763 1.21069 9.81919 1.21618C9.8144 1.2172 9.80926 1.21823 9.8048 1.21892L9.79658 1.22063C9.77157 1.22577 9.74656 1.23125 9.7219 1.23639C9.71367 1.23776 9.70579 1.23981 9.69723 1.24118C9.69483 1.24153 9.69243 1.24255 9.69038 1.2429C9.68661 1.24358 9.68216 1.24427 9.67805 1.2453C9.65543 1.25044 9.63351 1.25523 9.6109 1.26037C9.6013 1.26243 9.59171 1.26414 9.58212 1.26654C9.58075 1.26688 9.57938 1.26688 9.57801 1.26756C9.57561 1.26791 9.57321 1.26825 9.57082 1.26928C9.56945 1.26928 9.56773 1.26996 9.56602 1.2703C9.54032 1.27579 9.51394 1.28195 9.48825 1.28812L9.41631 1.30525C9.39472 1.31039 9.37314 1.31553 9.3519 1.32101C9.3495 1.32135 9.3471 1.32204 9.34436 1.32238C9.33682 1.32478 9.32894 1.32683 9.32141 1.32855C9.29366 1.33574 9.26591 1.34225 9.23816 1.34979C9.23473 1.35013 9.23199 1.35116 9.22857 1.35219C9.21178 1.3563 9.19431 1.36109 9.17752 1.36555C9.09633 1.38679 9.01582 1.4094 8.93531 1.43235C8.91955 1.43715 8.90311 1.44195 8.887 1.4464C8.88529 1.44708 8.88324 1.44743 8.88152 1.44811C8.8781 1.44948 8.87433 1.45017 8.8709 1.45119C8.85994 1.45462 8.84898 1.4577 8.83801 1.46113C8.82328 1.46593 8.80855 1.47004 8.79348 1.47483C8.7856 1.47723 8.77703 1.47929 8.76847 1.48237C8.76265 1.48374 8.75682 1.48614 8.75134 1.48751C8.42965 1.58721 8.11481 1.70026 7.80648 1.82771C7.79791 1.83113 7.78969 1.8349 7.78078 1.83798C7.77359 1.84141 7.76605 1.84415 7.7592 1.84689C7.74823 1.85169 7.73796 1.8558 7.727 1.86059C7.72151 1.86299 7.71535 1.86573 7.70918 1.86813C7.70301 1.87087 7.69685 1.87327 7.69102 1.87601C7.68863 1.87704 7.68623 1.87807 7.68383 1.87909C7.68211 1.87978 7.68006 1.88081 7.67766 1.88115C7.67389 1.8832 7.66978 1.88492 7.66567 1.88697C7.4471 1.98084 7.23161 2.08157 7.02057 2.1888C7.02023 2.18914 7.0192 2.18948 7.01818 2.19017C7.01646 2.1912 7.01475 2.19188 7.0127 2.19291C6.99146 2.20387 6.97021 2.21449 6.94932 2.2258C6.94281 2.22923 6.93561 2.23231 6.9291 2.23608C6.92773 2.23711 6.92671 2.23745 6.92534 2.23813C6.92465 2.23813 6.92431 2.23848 6.92396 2.23882C6.89553 2.25355 6.8671 2.26862 6.83866 2.2837C6.83832 2.2837 6.83797 2.28404 6.83729 2.28404C6.83352 2.28644 6.82975 2.28849 6.82598 2.29021C6.8253 2.29123 6.82358 2.29158 6.8229 2.29192C6.79138 2.30905 6.75918 2.32584 6.728 2.34331C6.72458 2.34502 6.72115 2.34708 6.71807 2.34879C6.7119 2.35222 6.70573 2.35564 6.70025 2.35873C6.6725 2.3738 6.64509 2.38887 6.61837 2.40395C6.617 2.40498 6.61563 2.40532 6.61461 2.40635C6.60912 2.40909 6.60364 2.41251 6.5985 2.41525C6.57007 2.4317 6.54129 2.4478 6.5132 2.46424C6.51217 2.46459 6.51114 2.46493 6.50977 2.46562C6.47654 2.4848 6.44365 2.50399 6.41008 2.52386C6.32101 2.57696 6.23262 2.63109 6.14457 2.68624C6.13909 2.68967 6.13327 2.69344 6.12779 2.69687C6.12093 2.70098 6.11442 2.70509 6.10826 2.70954C6.07982 2.72736 6.05139 2.74551 6.02295 2.76401C6.01679 2.76812 6.01062 2.7719 6.00445 2.77635C6.00069 2.7784 5.99692 2.7808 5.9928 2.78354C5.74169 2.94764 5.49742 3.12168 5.26103 3.30531C5.26001 3.30634 5.25864 3.30668 5.25761 3.30771C5.25589 3.30977 5.2535 3.31114 5.25178 3.31251C5.1932 3.35807 5.13564 3.40364 5.07809 3.45023C5.07398 3.454 5.06987 3.45708 5.06541 3.46051C5.06267 3.4629 5.06027 3.46462 5.05787 3.46668C4.61422 3.82845 4.19935 4.2238 3.81667 4.64931C3.81633 4.64965 3.81564 4.65068 3.81496 4.65102C3.78241 4.68733 3.75055 4.72331 3.71835 4.75997C3.71801 4.76065 3.71766 4.76099 3.71698 4.76134C3.52239 4.98436 3.33636 5.21459 3.16027 5.45235C3.15924 5.45372 3.15787 5.45509 3.15685 5.45715C3.1291 5.49415 3.10169 5.53183 3.07462 5.56952C3.07223 5.5726 3.06983 5.57603 3.06743 5.57877C3.04105 5.61542 3.01501 5.65276 2.98898 5.68908C2.98658 5.6925 2.98418 5.69593 2.98247 5.69902C2.95574 5.73704 2.92902 5.77576 2.90264 5.81481C2.90161 5.81584 2.90059 5.81721 2.89956 5.81858C2.76115 6.02208 2.6296 6.23072 2.50455 6.44347C2.5025 6.44655 2.50113 6.44861 2.49976 6.45169C2.4768 6.49075 2.45419 6.53015 2.43158 6.56955C2.42918 6.57434 2.42644 6.57845 2.42404 6.58325C2.40246 6.62128 2.38088 6.65965 2.35964 6.69836C2.3569 6.70316 2.3545 6.70727 2.3521 6.71207C2.33017 6.75181 2.30859 6.79189 2.28735 6.83197C2.28598 6.83471 2.28392 6.83745 2.28255 6.8402C2.16642 7.05843 2.05751 7.28111 1.95596 7.50757C1.95504 7.50997 1.95411 7.51305 1.95271 7.5151C1.93387 7.5569 1.91557 7.59938 1.89721 7.64152C1.89536 7.64632 1.893 7.65111 1.89111 7.65591C1.87374 7.69668 1.85634 7.73745 1.83942 7.77856C1.83705 7.78301 1.8352 7.78815 1.83332 7.79295C1.81591 7.83543 1.79854 7.87757 1.78158 7.92005C1.78018 7.92279 1.77925 7.92587 1.77785 7.92896C1.68525 8.16089 1.60066 8.3966 1.52403 8.63573C1.52358 8.63744 1.52262 8.63916 1.52218 8.64087C1.50758 8.68609 1.4935 8.73166 1.47987 8.77722C1.47846 8.78133 1.47706 8.7851 1.4761 8.78955C1.4625 8.83306 1.44979 8.87691 1.43663 8.92111C1.43571 8.92522 1.43427 8.93002 1.43286 8.93447C1.41971 8.97935 1.407 9.02389 1.3948 9.06911C1.39388 9.07185 1.39292 9.07528 1.39244 9.07802C1.32525 9.32194 1.2665 9.5693 1.21621 9.81973C1.21573 9.82007 1.21573 9.82042 1.21573 9.82145C1.20586 9.86941 1.19644 9.91772 1.18753 9.96671C1.18658 9.97047 1.18613 9.97424 1.18517 9.9787C1.17671 10.0246 1.16873 10.0702 1.16074 10.1161C1.15982 10.1209 1.15886 10.1257 1.15838 10.1305C1.1504 10.1767 1.14241 10.224 1.13536 10.2702C1.13488 10.2737 1.13443 10.2764 1.13347 10.2798C1.09401 10.534 1.06249 10.7906 1.04042 11.0507V11.051C1.03621 11.1014 1.03196 11.1521 1.02868 11.2024C1.0282 11.2066 1.02775 11.211 1.02775 11.2148C1.02443 11.2621 1.02114 11.3097 1.01833 11.357C1.01833 11.3621 1.01785 11.3672 1.01737 11.3727C1.01504 11.42 1.01271 11.4676 1.01035 11.5156C1.01035 11.5193 1.01035 11.5235 1.00987 11.5272C1.00798 11.5783 1.0061 11.63 1.00469 11.6814C1.00141 11.7872 1 11.8935 1 12C1 12.061 1.00048 12.1223 1.00141 12.1833V12.1908C1.00281 12.2487 1.00425 12.3063 1.0061 12.3642V12.3758C1.01223 12.5571 1.02302 12.7369 1.03762 12.9161C1.03806 12.9199 1.03806 12.9236 1.03854 12.9274C1.05358 13.1069 1.07284 13.2844 1.09634 13.4612C1.09682 13.4639 1.09682 13.467 1.0973 13.4701C1.12124 13.6472 1.14899 13.8233 1.18096 13.9977C1.18144 13.9997 1.18188 14.0021 1.18236 14.0045C1.19271 14.0617 1.2035 14.1186 1.21525 14.1755V14.1775C1.23875 14.2937 1.26414 14.4091 1.29093 14.5239C1.29141 14.5263 1.29189 14.5287 1.29281 14.5314C1.30549 14.5849 1.3182 14.6387 1.33183 14.6918C1.33276 14.6966 1.33416 14.7007 1.33512 14.7055C1.69748 16.1382 2.34148 17.4596 3.20446 18.6062C3.93829 19.583 4.83143 20.4329 5.84515 21.1185C5.84618 21.1188 5.8472 21.1198 5.84789 21.1205C5.89585 21.1527 5.94382 21.1843 5.99246 21.2158C6.00548 21.2247 6.0185 21.2332 6.03186 21.2418C6.07743 21.2713 6.12333 21.3004 6.16958 21.3295C6.17335 21.3319 6.17712 21.3343 6.18089 21.3367C6.23056 21.3675 6.28058 21.398 6.3306 21.4282C6.34327 21.4357 6.35595 21.4439 6.36863 21.4511C6.41659 21.4799 6.46523 21.5087 6.51388 21.5364C6.51628 21.5382 6.51937 21.5395 6.52211 21.5412C6.57315 21.5707 6.62454 21.5998 6.67627 21.6279C6.68895 21.6351 6.70162 21.642 6.7143 21.6492C6.76466 21.6766 6.81468 21.7036 6.86572 21.731C6.86744 21.7317 6.86949 21.7327 6.87121 21.7338C6.92397 21.7615 6.97638 21.7886 7.02948 21.8157C7.04216 21.8222 7.05483 21.8283 7.06751 21.8348C7.11924 21.8605 7.17166 21.8866 7.22373 21.9119C7.2251 21.9123 7.22647 21.9133 7.22784 21.9143C7.28197 21.94 7.3361 21.9654 7.39023 21.9904C7.40325 21.9965 7.41592 22.002 7.4286 22.0082C7.4817 22.0322 7.5348 22.0562 7.58859 22.0798C7.58996 22.0801 7.59133 22.0812 7.5927 22.0815C7.64717 22.1055 7.70267 22.1291 7.75748 22.1521C7.77085 22.1576 7.78387 22.163 7.79723 22.1685C7.85101 22.1911 7.90514 22.2127 7.95927 22.2343C7.96098 22.2346 7.9627 22.2357 7.96441 22.2364C8.01991 22.2583 8.07575 22.2795 8.13159 22.3004C8.1453 22.3059 8.159 22.311 8.1727 22.3162C8.22718 22.3364 8.28165 22.3559 8.33681 22.3755C8.33852 22.3761 8.34092 22.3768 8.34263 22.3775C8.39916 22.3974 8.45568 22.4166 8.51255 22.4354C8.5266 22.4402 8.54099 22.445 8.55538 22.4495C8.61019 22.468 8.66535 22.4858 8.72051 22.5032C8.7229 22.5036 8.7253 22.5046 8.7277 22.505C8.78457 22.5228 8.84178 22.5399 8.89934 22.5567C8.91441 22.5615 8.9288 22.5656 8.94388 22.57C8.99903 22.5858 9.05385 22.6016 9.10935 22.6163C9.11277 22.6173 9.11551 22.6184 9.1186 22.6187C9.17615 22.6345 9.23405 22.6492 9.29161 22.6639C9.30736 22.668 9.32312 22.6718 9.33854 22.6756C9.39369 22.6896 9.4492 22.703 9.50401 22.7156C9.50778 22.7167 9.51223 22.7174 9.516 22.7184C9.57356 22.7317 9.63145 22.7448 9.68969 22.7571C9.70614 22.7609 9.72258 22.764 9.73971 22.7674C9.79418 22.779 9.849 22.79 9.9045 22.8006C9.91032 22.8016 9.9158 22.803 9.92163 22.804C9.9785 22.8147 10.0361 22.8249 10.0936 22.8356C10.1107 22.8383 10.1279 22.841 10.1453 22.8445C10.2002 22.8537 10.2553 22.8626 10.3108 22.8712C10.3177 22.8722 10.3242 22.8736 10.3314 22.8746C10.3882 22.8828 10.4454 22.8911 10.5023 22.8989C10.5201 22.9013 10.5383 22.9037 10.5561 22.9058C10.6116 22.9133 10.6664 22.9202 10.7219 22.9267C10.7298 22.9277 10.738 22.9284 10.7459 22.9294C10.8028 22.9359 10.8596 22.9418 10.9165 22.9472C10.9347 22.9493 10.9532 22.9507 10.9713 22.9524C11.0268 22.9575 11.0823 22.9623 11.1385 22.9664C11.1471 22.9675 11.1563 22.9681 11.1652 22.9688C11.2214 22.9733 11.2783 22.977 11.3352 22.9801C11.354 22.9812 11.3725 22.9825 11.3913 22.9836C11.4472 22.9863 11.5034 22.989 11.5599 22.9914C11.5688 22.9921 11.5784 22.9921 11.5876 22.9925C11.6445 22.9949 11.7014 22.9962 11.7586 22.9973C11.7771 22.9976 11.7959 22.9979 11.8148 22.9986C11.872 22.9993 11.9292 23 11.9868 23H12.0107C12.0738 23 12.1372 22.9993 12.2002 22.9979C12.217 22.9976 12.2338 22.9976 12.2509 22.9973C12.3153 22.9959 12.3787 22.9938 12.4424 22.9914C12.4571 22.9904 12.4719 22.9901 12.4863 22.989C12.5435 22.9866 12.6003 22.9839 12.6579 22.9808C12.6702 22.9798 12.6822 22.9791 12.6946 22.9784C12.7593 22.9746 12.8237 22.9699 12.8881 22.9647C12.9032 22.9633 12.9176 22.9623 12.9327 22.9609C12.9995 22.9555 13.0663 22.9493 13.132 22.9428C13.1344 22.9421 13.1361 22.9421 13.1382 22.9418C13.2074 22.9346 13.2763 22.927 13.3455 22.9188C13.351 22.9178 13.3571 22.9171 13.3633 22.9164C13.5819 22.8893 13.7984 22.8558 14.0128 22.816C14.0166 22.8153 14.0207 22.8147 14.0252 22.814C14.0276 22.8133 14.0296 22.8129 14.032 22.8123C14.0663 22.8064 14.1009 22.7996 14.1345 22.7931C14.1406 22.7917 14.1464 22.7907 14.1523 22.7893C14.5901 22.7023 15.0187 22.5896 15.436 22.4529C15.4363 22.4525 15.437 22.4525 15.4373 22.4525C15.4387 22.4518 15.4401 22.4515 15.4418 22.4508C15.6196 22.3922 15.7957 22.3292 15.9694 22.2621C15.9779 22.2586 15.9865 22.2555 15.9944 22.2521C15.9971 22.2511 15.9995 22.2504 16.0019 22.2494C16.0249 22.2405 16.0485 22.2309 16.0715 22.222C16.0852 22.2165 16.0982 22.2107 16.1119 22.2055C16.1818 22.1774 16.2513 22.1483 16.3205 22.1192C16.3315 22.1144 16.3424 22.1096 16.3534 22.1051C16.3866 22.0904 16.4195 22.076 16.4531 22.0613C16.461 22.0575 16.4696 22.0544 16.4774 22.0507C16.4822 22.0486 16.487 22.0462 16.4911 22.0445C16.5504 22.0181 16.6086 21.9914 16.6669 21.9637C16.6672 21.9637 16.6672 21.9637 16.6679 21.963C16.7309 21.9338 16.793 21.904 16.855 21.8732H16.8553C16.8574 21.8725 16.8598 21.8712 16.8615 21.8701C16.882 21.8598 16.9033 21.8492 16.9242 21.839C16.9389 21.8314 16.9547 21.8235 16.9701 21.816C16.9937 21.8037 17.0177 21.7917 17.041 21.7793C17.0526 21.7732 17.0639 21.7677 17.0759 21.7615C17.1064 21.7454 17.1366 21.7297 17.1671 21.7132C17.1862 21.7026 17.2054 21.693 17.225 21.682C17.2256 21.6817 17.2267 21.681 17.2277 21.6807C17.2414 21.6731 17.2555 21.6656 17.2688 21.6581C17.277 21.6539 17.2853 21.6495 17.2935 21.645C17.299 21.642 17.3041 21.6389 17.3099 21.6354C17.3466 21.6152 17.3826 21.595 17.4192 21.5745C17.4226 21.5724 17.4261 21.5707 17.4291 21.5686C17.4336 21.5666 17.4374 21.5645 17.4411 21.5621C17.4596 21.5515 17.4781 21.5412 17.4963 21.5303H17.497C17.5049 21.5255 17.5131 21.521 17.521 21.5162C17.5549 21.4964 17.5881 21.4768 17.622 21.457C17.6296 21.4522 17.6371 21.4474 17.6446 21.4433C17.6813 21.4213 17.7173 21.3991 17.7536 21.3771C17.757 21.3747 17.7604 21.3727 17.7639 21.371C17.7666 21.3689 17.77 21.3672 17.7728 21.3651C17.8104 21.3418 17.8474 21.3189 17.8848 21.2949C17.8903 21.2915 17.8954 21.2881 17.9005 21.285C20.2315 19.8005 21.9654 17.4633 22.6625 14.713L22.6711 14.6805C22.6821 14.6363 22.6927 14.5921 22.703 14.5475C22.7061 14.5366 22.7088 14.5253 22.7112 14.5146C22.7365 14.4067 22.7598 14.2988 22.7821 14.1902C22.7845 14.1772 22.7869 14.1645 22.7897 14.1511C22.7975 14.1097 22.8054 14.0679 22.8136 14.0268L22.8219 13.9816C22.8304 13.9346 22.8383 13.888 22.8465 13.8411C22.8479 13.8336 22.8493 13.8264 22.8503 13.8188C22.8592 13.7654 22.8678 13.7113 22.876 13.6571C22.878 13.6427 22.8804 13.6277 22.8822 13.6129C22.8883 13.5732 22.8938 13.5334 22.8989 13.4937C22.902 13.4759 22.9044 13.4574 22.9065 13.4392C22.9116 13.3992 22.9171 13.3591 22.9215 13.319C22.9236 13.3043 22.9253 13.2892 22.9267 13.2741C22.9329 13.221 22.939 13.1679 22.9442 13.1148C22.9455 13.0994 22.9469 13.0833 22.9483 13.0679C22.952 13.0288 22.9558 12.9898 22.9592 12.9504C22.9613 12.9301 22.9627 12.9099 22.9644 12.8894C22.9671 12.8527 22.9702 12.8161 22.9723 12.7794C22.974 12.7599 22.9753 12.741 22.9767 12.7225C22.9798 12.6694 22.9832 12.6167 22.986 12.5636C22.9866 12.5485 22.987 12.5338 22.988 12.5194C22.9897 12.4789 22.9911 12.4382 22.9925 12.3978C22.9935 12.3758 22.9942 12.3549 22.9949 12.3333C22.9959 12.2981 22.9969 12.2624 22.9973 12.2265C22.9979 12.2059 22.9983 12.1847 22.9986 12.1634C22.9993 12.1175 22.9997 12.0709 22.9997 12.0243C22.9997 12.0161 23 12.0079 23 12C23 11.9579 22.9997 11.9154 22.9993 11.8732Z" fill="#F79B39"/>
</svg>
