<svg width="16" height="16" viewBox="0 0 16 16" fill="none" xmlns="http://www.w3.org/2000/svg">
<g id="material-symbols:flip-camera-ios-outline">
<path id="Vector" d="M10.8335 7L9.16683 8.66667L9.86683 9.36667L10.3002 8.93333C10.2335 9.52222 9.9835 10.014 9.55016 10.4087C9.11683 10.8029 8.60016 11 8.00016 11C7.84461 11 7.70016 10.9862 7.56683 10.9587C7.4335 10.9307 7.30016 10.8889 7.16683 10.8333L6.4335 11.5667C6.66683 11.7 6.91416 11.8056 7.1755 11.8833C7.43638 11.9611 7.71127 12 8.00016 12C8.88905 12 9.64727 11.7 10.2748 11.1C10.9028 10.5 11.2446 9.76667 11.3002 8.9L11.8002 9.36667L12.5002 8.66667L10.8335 7ZM5.16683 10.3333L6.8335 8.66667L6.1335 7.96667L5.70016 8.4C5.76683 7.81111 6.01683 7.31933 6.45016 6.92467C6.8835 6.53044 7.40016 6.33333 8.00016 6.33333C8.15572 6.33333 8.30016 6.34711 8.4335 6.37467C8.56683 6.40267 8.70016 6.44444 8.8335 6.5L9.56683 5.76667C9.3335 5.63333 9.08639 5.52778 8.8255 5.45C8.56416 5.37222 8.28905 5.33333 8.00016 5.33333C7.11127 5.33333 6.35305 5.63333 5.7255 6.23333C5.0975 6.83333 4.75572 7.56667 4.70016 8.43333L4.20016 7.96667L3.50016 8.66667L5.16683 10.3333ZM2.66683 14C2.30016 14 1.98639 13.8696 1.7255 13.6087C1.46416 13.3473 1.3335 13.0333 1.3335 12.6667V4.66667C1.3335 4.3 1.46416 3.98622 1.7255 3.72533C1.98639 3.464 2.30016 3.33333 2.66683 3.33333H4.76683L6.00016 2H10.0002L11.2335 3.33333H13.3335C13.7002 3.33333 14.0142 3.464 14.2755 3.72533C14.5364 3.98622 14.6668 4.3 14.6668 4.66667V12.6667C14.6668 13.0333 14.5364 13.3473 14.2755 13.6087C14.0142 13.8696 13.7002 14 13.3335 14H2.66683ZM13.3335 12.6667V4.66667H10.6335L9.41683 3.33333H6.5835L5.36683 4.66667H2.66683V12.6667H13.3335Z" fill="#F79C39"/>
</g>
</svg>
