<svg width="20" height="17" viewBox="0 0 20 17" fill="none" xmlns="http://www.w3.org/2000/svg">
<path opacity="0.4" d="M15 17H5C2 17 0 15.5 0 12V5C0 1.5 2 0 5 0H15C18 0 20 1.5 20 5V12C20 15.5 18 17 15 17Z" fill="#F79B39"/>
<path d="M9.99978 9.36997C9.15978 9.36997 8.30978 9.10997 7.65978 8.57997L4.52978 6.07997C4.20978 5.81997 4.14978 5.34997 4.40978 5.02997C4.66978 4.70997 5.13978 4.64997 5.45978 4.90997L8.58977 7.40997C9.34977 8.01997 10.6398 8.01997 11.3998 7.40997L14.5298 4.90997C14.8498 4.64997 15.3298 4.69997 15.5798 5.02997C15.8398 5.34997 15.7898 5.82997 15.4598 6.07997L12.3298 8.57997C11.6898 9.10997 10.8398 9.36997 9.99978 9.36997Z" fill="#F79B39"/>
</svg>
