<svg width="22" height="25" viewBox="0 0 22 25" fill="none" xmlns="http://www.w3.org/2000/svg">
<g clip-path="url(#clip0_608_6078)">
<path d="M20.93 15.66C20.78 14.01 20.34 12.25 17.13 12.25H4.36998C1.15998 12.25 0.749979 14 0.569979 15.66L0.00997891 21.75C-0.0197245 22.1308 0.0307894 22.5135 0.158256 22.8735C0.285723 23.2335 0.487306 23.5628 0.749979 23.84C1.00512 24.1183 1.31372 24.3422 1.65734 24.4986C2.00097 24.6549 2.37258 24.7404 2.74998 24.75H4.66998C5.15428 24.8123 5.64411 24.6877 6.0398 24.4016C6.4355 24.1155 6.70733 23.6894 6.79998 23.21L6.99998 22.61C7.22998 21.92 7.28998 21.75 8.18998 21.75H13.31C14.21 21.75 14.24 21.85 14.5 22.61L14.7 23.21C14.7926 23.6894 15.0645 24.1155 15.4602 24.4016C15.8559 24.6877 16.3457 24.8123 16.83 24.75H18.75C19.1273 24.7399 19.4987 24.6541 19.8423 24.4978C20.1858 24.3415 20.4945 24.1178 20.75 23.84C21.0055 23.5594 21.1998 23.2286 21.3203 22.8688C21.4408 22.5089 21.485 22.1279 21.45 21.75L20.93 15.66Z" fill="#F79B39" fill-opacity="0.4"/>
<path d="M16.3399 4.45C15.6792 4.18563 14.9713 4.0597 14.2599 4.08H12.5099C12.5525 4.15022 12.5893 4.22379 12.6199 4.3C12.6281 4.33621 12.6281 4.37378 12.6199 4.41C12.641 4.45153 12.6577 4.49509 12.6699 4.54C12.6744 4.56647 12.6744 4.59352 12.6699 4.62C12.6746 4.63972 12.6746 4.66027 12.6699 4.68C12.7089 4.78322 12.7357 4.8906 12.7499 5C12.7499 5.45617 12.5687 5.89366 12.2462 6.21622C11.9236 6.53878 11.4861 6.72 11.0299 6.72C10.5738 6.72 10.1363 6.53878 9.81372 6.21622C9.49116 5.89366 9.30995 5.45617 9.30995 5C9.305 4.95012 9.305 4.89987 9.30995 4.85C9.30507 4.80011 9.30507 4.74988 9.30995 4.7C9.30527 4.68027 9.30527 4.65972 9.30995 4.64C9.30547 4.61352 9.30547 4.58647 9.30995 4.56C9.30586 4.51676 9.30586 4.47323 9.30995 4.43C9.31795 4.38691 9.33499 4.34601 9.35995 4.31C9.37977 4.24543 9.41019 4.1846 9.44995 4.13H7.23995C6.75529 4.12584 6.27187 4.17955 5.79995 4.29C5.78478 4.38607 5.78478 4.48392 5.79995 4.58V5.52C5.79995 5.78521 5.9053 6.03957 6.09284 6.2271C6.28038 6.41464 6.53473 6.52 6.79995 6.52H7.03995H7.15995H7.29995L7.46995 6.59C7.59663 6.65436 7.70243 6.75338 7.77501 6.87554C7.8476 6.99769 7.88399 7.13796 7.87995 7.28C7.86694 7.53892 7.7802 7.78873 7.62995 8C7.57776 8.08548 7.54372 8.18079 7.52995 8.28C7.52012 8.36638 7.52012 8.45361 7.52995 8.54C7.52513 8.57985 7.52513 8.62014 7.52995 8.66C7.52502 8.69315 7.52502 8.72684 7.52995 8.76C7.52102 8.79273 7.52102 8.82726 7.52995 8.86C7.57653 8.99637 7.65952 9.1174 7.76995 9.21C7.82624 9.26832 7.89015 9.31878 7.95995 9.36L8.87995 9.89C9.04465 9.99017 9.23938 10.0291 9.42995 10H9.53995C9.61273 9.9813 9.68318 9.95447 9.74995 9.92C9.81074 9.88234 9.86768 9.8388 9.91995 9.79C9.97115 9.73609 10.0149 9.67555 10.0499 9.61L10.1099 9.51C10.1708 9.39024 10.252 9.28196 10.3499 9.19C10.3994 9.13522 10.4567 9.08804 10.5199 9.05C10.5852 8.99671 10.6598 8.95602 10.7399 8.93C10.7929 8.92044 10.847 8.92044 10.8999 8.93H11.0599C11.1129 8.92044 11.167 8.92044 11.2199 8.93C11.3001 8.95602 11.3747 8.99671 11.4399 9.05C11.5032 9.08804 11.5605 9.13522 11.6099 9.19C11.7079 9.28196 11.7891 9.39024 11.8499 9.51L11.9099 9.61C12.0289 9.81188 12.2227 9.95871 12.4492 10.0186C12.6757 10.0785 12.9167 10.0467 13.1199 9.93L14.0299 9.4C14.1844 9.31317 14.313 9.18686 14.4026 9.03399C14.4923 8.88113 14.5396 8.70719 14.5399 8.53C14.5381 8.35391 14.4898 8.18143 14.3999 8.03C14.2752 7.8283 14.2061 7.59709 14.1999 7.36C14.1902 7.29033 14.1902 7.21966 14.1999 7.15C14.2242 7.04841 14.2698 6.95311 14.3336 6.87038C14.3973 6.78765 14.4779 6.71936 14.5699 6.67L14.7399 6.6L14.7382 6.6005C14.8691 6.57031 14.8691 6.57031 14.9999 6.54011L15.2399 6.54C15.5052 6.54 15.7595 6.43464 15.9471 6.2471C16.1346 6.05957 16.2399 5.80521 16.2399 5.54V4.53C16.2805 4.51384 16.3153 4.48599 16.3399 4.45Z" fill="#F79B39"/>
<path d="M20.5 9.99992C20.4974 10.198 20.4176 10.3873 20.2775 10.5274C20.1374 10.6675 19.9481 10.7473 19.75 10.7499H19.04L19.46 12.7499L19.25 12.6399L19.01 12.5399L18.53 12.3899L18.09 12.3199L17.75 12.2699H17.17H4.37H3.79L3.41 12.3199L2.97 12.3899L2.75 12.4599C2.57517 12.5094 2.40462 12.573 2.24 12.6499L2.05 12.7499L2.47 10.7499H1.75C1.55109 10.7499 1.36032 10.6709 1.21967 10.5303C1.07902 10.3896 1 10.1988 1 9.99992C1 9.80101 1.07902 9.61024 1.21967 9.46959C1.36032 9.32894 1.55109 9.24992 1.75 9.24992H2.75L3.15 7.43992C3.21176 6.89297 3.38573 6.36465 3.66104 5.88802C3.93635 5.41138 4.30707 4.9967 4.75 4.66992V5.46992C4.75 6.00035 4.96071 6.50906 5.33579 6.88414C5.71086 7.25921 6.21957 7.46992 6.75 7.46992C6.61868 7.69969 6.53426 7.95324 6.50165 8.21588C6.46903 8.47851 6.48887 8.74501 6.56 8.99992C6.62946 9.25349 6.74824 9.49088 6.90953 9.69851C7.07083 9.90613 7.27148 10.0799 7.5 10.2099L8.41 10.7299C8.83978 10.9813 9.35174 11.052 9.83355 10.9264C10.3154 10.8008 10.7277 10.4892 10.98 10.0599L11.05 9.99992L11.11 10.0899C11.235 10.3038 11.4009 10.4909 11.5984 10.6404C11.7959 10.7899 12.021 10.8989 12.2607 10.9612C12.5005 11.0235 12.7502 11.0377 12.9955 11.0032C13.2407 10.9687 13.4768 10.886 13.69 10.7599L14.58 10.2399C14.8852 10.0637 15.1384 9.80999 15.314 9.50443C15.4896 9.19887 15.5814 8.85234 15.58 8.49992C15.5763 8.14775 15.4798 7.80279 15.3 7.49992C15.8304 7.49992 16.3391 7.28921 16.7142 6.91414C17.0893 6.53906 17.3 6.03035 17.3 5.49992V5.19992C17.831 5.85313 18.1764 6.63722 18.3 7.46992L18.75 9.24992H19.75C19.9481 9.25251 20.1374 9.33236 20.2775 9.47246C20.4176 9.61255 20.4974 9.80181 20.5 9.99992Z" fill="#F79B39"/>
<path d="M7.75 17.75H4.75C4.55109 17.75 4.36032 17.671 4.21967 17.5303C4.07902 17.3897 4 17.1989 4 17C4 16.8011 4.07902 16.6103 4.21967 16.4697C4.36032 16.329 4.55109 16.25 4.75 16.25H7.75C7.94891 16.25 8.13968 16.329 8.28033 16.4697C8.42098 16.6103 8.5 16.8011 8.5 17C8.5 17.1989 8.42098 17.3897 8.28033 17.5303C8.13968 17.671 7.94891 17.75 7.75 17.75Z" fill="#F79B39"/>
<path d="M16.75 17.75H13.75C13.5511 17.75 13.3603 17.671 13.2197 17.5303C13.079 17.3897 13 17.1989 13 17C13 16.8011 13.079 16.6103 13.2197 16.4697C13.3603 16.329 13.5511 16.25 13.75 16.25H16.75C16.9489 16.25 17.1397 16.329 17.2803 16.4697C17.421 16.6103 17.5 16.8011 17.5 17C17.5 17.1989 17.421 17.3897 17.2803 17.5303C17.1397 17.671 16.9489 17.75 16.75 17.75Z" fill="#F79B39"/>
<path d="M16.34 4.45002C16.3199 4.19891 16.2057 3.96465 16.0203 3.79409C15.8349 3.62352 15.5919 3.52922 15.34 3.53003H15.1C14.9693 3.50003 14.9693 3.50002 14.8393 3.47003L14.67 3.40002C14.546 3.33337 14.4429 3.23355 14.3722 3.11171C14.3016 2.98987 14.2662 2.8508 14.27 2.71002C14.2655 2.66681 14.2655 2.62324 14.27 2.58002C14.2614 2.53039 14.2614 2.47966 14.27 2.43002C14.3117 2.27636 14.3794 2.13094 14.47 2.00002C14.5871 1.79759 14.6296 1.56052 14.59 1.33002C14.59 1.33002 14.59 1.27002 14.59 1.24002C14.5941 1.20347 14.5941 1.16658 14.59 1.13002C14.5434 0.993652 14.4604 0.872618 14.35 0.780025C14.2937 0.721697 14.2298 0.67124 14.16 0.630025L13.25 0.100025C13.0468 -0.016662 12.8058 -0.0485062 12.5793 0.0114031C12.3527 0.0713125 12.159 0.218141 12.04 0.420025L11.98 0.520025C11.9192 0.639784 11.8379 0.74806 11.74 0.840025C11.6906 0.894802 11.6333 0.941977 11.57 0.980025C11.5048 1.03331 11.4302 1.074 11.35 1.10002C11.2971 1.10958 11.2429 1.10958 11.19 1.10002C11.1372 1.11003 11.0829 1.11003 11.03 1.10002C10.9771 1.10958 10.9229 1.10958 10.87 1.10002C10.7705 1.08775 10.6748 1.0536 10.59 1.00002C10.5268 0.961977 10.4695 0.914802 10.42 0.860025C10.3221 0.76806 10.2409 0.659784 10.18 0.540025L10.12 0.440025C10.0917 0.384432 10.0545 0.333781 10.01 0.290025L9.91002 0.200025C9.89362 0.195791 9.87642 0.195791 9.86002 0.200025L9.75002 0.0900248C9.62504 0.0190197 9.48376 -0.0183105 9.34002 -0.0183105C9.19628 -0.0183105 9.055 0.0190197 8.93002 0.0900248L8.01002 0.620025C7.84907 0.707013 7.71701 0.839078 7.63002 1.00002C7.54014 1.15146 7.49185 1.32394 7.49002 1.50002C7.49185 1.67611 7.54014 1.84859 7.63002 2.00002C7.75746 2.20113 7.82987 2.43216 7.84002 2.67002C7.84104 2.85427 7.77763 3.03307 7.66076 3.1755C7.54389 3.31794 7.38091 3.41504 7.20002 3.45002C7.13375 3.46034 7.06629 3.46034 7.00002 3.45002L6.75002 3.53003C6.52816 3.52054 6.30946 3.58518 6.1284 3.71373C5.94734 3.84228 5.81422 4.02745 5.75002 4.24002C5.73486 4.3361 5.73486 4.43395 5.75002 4.53003V5.47002C5.75002 5.73524 5.85538 5.9896 6.04291 6.17713C6.23045 6.36467 6.4848 6.47002 6.75002 6.47002H6.99002H7.11002H7.25002L7.42002 6.54002C7.54671 6.60438 7.6525 6.70341 7.72509 6.82556C7.79767 6.94772 7.83406 7.08799 7.83002 7.23002C7.84159 7.50089 7.77195 7.76903 7.63002 8.00002C7.57783 8.08551 7.54379 8.18082 7.53002 8.28002C7.52019 8.36641 7.52019 8.45364 7.53002 8.54002C7.5252 8.57988 7.5252 8.62017 7.53002 8.66002C7.52509 8.69318 7.52509 8.72687 7.53002 8.76003C7.52109 8.79276 7.52109 8.82729 7.53002 8.86002C7.5766 8.9964 7.6596 9.11743 7.77002 9.21002C7.82631 9.26835 7.89022 9.31881 7.96002 9.36002L8.88002 9.89003C9.04472 9.9902 9.23946 10.0291 9.43002 10H9.54002C9.6128 9.98133 9.68325 9.9545 9.75002 9.92002C9.81081 9.88237 9.86776 9.83883 9.92002 9.79002C9.97122 9.73612 10.0149 9.67558 10.05 9.61002L10.11 9.51003C10.1709 9.39027 10.2521 9.28199 10.35 9.19002C10.3995 9.13525 10.4568 9.08807 10.52 9.05002C10.5853 8.99674 10.6599 8.95605 10.74 8.93003C10.7929 8.92047 10.8471 8.92047 10.9 8.93003H11.06C11.1129 8.92047 11.1671 8.92047 11.22 8.93003C11.3002 8.95605 11.3748 8.99674 11.44 9.05002C11.5033 9.08807 11.5606 9.13525 11.61 9.19002C11.7079 9.28199 11.7892 9.39027 11.85 9.51003L11.91 9.61002C12.029 9.81191 12.2227 9.95874 12.4493 10.0186C12.6758 10.0786 12.9168 10.0467 13.12 9.93003L14.03 9.40002C14.1845 9.3132 14.3131 9.18689 14.4027 9.03402C14.4923 8.88115 14.5397 8.70722 14.54 8.53002C14.5382 8.35394 14.4899 8.18146 14.4 8.03002C14.2752 7.82833 14.2062 7.59712 14.2 7.36002C14.1903 7.29036 14.1903 7.21969 14.2 7.15002C14.2243 7.04843 14.2699 6.95314 14.3336 6.87041C14.3974 6.78768 14.478 6.71939 14.57 6.67002L14.74 6.60002L14.7383 6.60053C14.8692 6.57034 14.8692 6.57034 15 6.54014L15.24 6.54002C15.5052 6.54002 15.7596 6.43467 15.9471 6.24713C16.1347 6.05959 16.24 5.80524 16.24 5.54002V4.53003C16.2805 4.51386 16.3154 4.48602 16.34 4.45002ZM12.75 5.00002C12.75 5.4562 12.5688 5.89369 12.2462 6.21625C11.9237 6.53881 11.4862 6.72002 11.03 6.72002C10.5738 6.72002 10.1364 6.53881 9.8138 6.21625C9.49123 5.89369 9.31002 5.4562 9.31002 5.00002C9.30507 4.95015 9.30507 4.8999 9.31002 4.85002C9.30514 4.80014 9.30514 4.74991 9.31002 4.70002C9.30534 4.6803 9.30534 4.65975 9.31002 4.64002C9.30555 4.61355 9.30555 4.5865 9.31002 4.56002C9.30593 4.51679 9.30593 4.47326 9.31002 4.43002C9.31802 4.38694 9.33506 4.34604 9.36002 4.31002C9.37985 4.24546 9.41026 4.18463 9.45002 4.13002C9.53434 4.02676 9.63582 3.93881 9.75002 3.87002L9.86002 3.75002L10.02 3.62002C10.0596 3.58765 10.1033 3.56074 10.15 3.54002C10.2884 3.4432 10.4448 3.37519 10.61 3.34002C10.6562 3.3306 10.7038 3.3306 10.75 3.34002C10.9413 3.30012 11.1387 3.30012 11.33 3.34002C11.3762 3.3306 11.4238 3.3306 11.47 3.34002C11.6352 3.37519 11.7916 3.4432 11.93 3.54002C11.9767 3.56074 12.0205 3.58765 12.06 3.62002L12.22 3.75002L12.33 3.87002C12.3912 3.93371 12.4449 4.00416 12.49 4.08002C12.5326 4.15024 12.5694 4.22382 12.6 4.30002C12.6082 4.33624 12.6082 4.37381 12.6 4.41002C12.621 4.45156 12.6378 4.49512 12.65 4.54002C12.6545 4.5665 12.6545 4.59355 12.65 4.62002C12.6547 4.63975 12.6547 4.6603 12.65 4.68002C12.6958 4.7824 12.7294 4.88981 12.75 5.00002Z" fill="white"/>
<path d="M7.52002 8.64003C7.51509 8.67318 7.51509 8.70687 7.52002 8.74002C7.52002 8.74002 7.53002 8.67003 7.52002 8.64003ZM16.34 4.45002C16.3199 4.19891 16.2057 3.96465 16.0203 3.79409C15.8349 3.62352 15.5919 3.52922 15.34 3.53003H15.1C14.9693 3.50003 14.9693 3.50002 14.8393 3.47003L14.67 3.40002C14.546 3.33337 14.4429 3.23355 14.3722 3.11171C14.3016 2.98987 14.2662 2.8508 14.27 2.71002C14.2655 2.66681 14.2655 2.62324 14.27 2.58002C14.2614 2.53039 14.2614 2.47966 14.27 2.43002C14.3117 2.27636 14.3794 2.13094 14.47 2.00002C14.5871 1.79759 14.6296 1.56052 14.59 1.33002C14.5808 1.2606 14.5605 1.19309 14.53 1.13002C14.4834 0.993652 14.4004 0.872618 14.29 0.780025C14.2337 0.721697 14.1698 0.67124 14.1 0.630025L13.19 0.100025C12.9868 -0.016662 12.7458 -0.0485062 12.5193 0.0114031C12.2927 0.0713125 12.099 0.218141 11.98 0.420025L11.92 0.520025C11.8592 0.639784 11.7779 0.74806 11.68 0.840025C11.6306 0.894802 11.5733 0.941977 11.51 0.980025C11.4448 1.03331 11.3702 1.074 11.29 1.10002C11.2371 1.10958 11.1829 1.10958 11.13 1.10002C11.0772 1.11003 11.0229 1.11003 10.97 1.10002C10.9171 1.10958 10.8629 1.10958 10.81 1.10002C10.7313 1.08009 10.6568 1.04623 10.59 1.00002C10.5268 0.961977 10.4695 0.914802 10.42 0.860025C10.3221 0.76806 10.2409 0.659784 10.18 0.540025L10.12 0.440025C10.0917 0.384432 10.0545 0.333781 10.01 0.290025L9.91002 0.200025C9.89362 0.195791 9.87642 0.195791 9.86002 0.200025L9.75002 0.0900248C9.62504 0.0190197 9.48376 -0.0183105 9.34002 -0.0183105C9.19628 -0.0183105 9.055 0.0190197 8.93002 0.0900248L8.01002 0.620025C7.84907 0.707013 7.71701 0.839078 7.63002 1.00002C7.54014 1.15146 7.49185 1.32394 7.49002 1.50002C7.49185 1.67611 7.54014 1.84859 7.63002 2.00002C7.75746 2.20113 7.82987 2.43216 7.84002 2.67002C7.84104 2.85427 7.77763 3.03307 7.66076 3.1755C7.54389 3.31794 7.38091 3.41504 7.20002 3.45002C7.13375 3.46034 7.06629 3.46034 7.00002 3.45002L6.75002 3.53003C6.52816 3.52054 6.30946 3.58518 6.1284 3.71373C5.94734 3.84228 5.81422 4.02745 5.75002 4.24002C5.73486 4.3361 5.73486 4.43395 5.75002 4.53003V4.71002L9.34002 4.85002C9.33514 4.80014 9.33514 4.74991 9.34002 4.70002C9.33534 4.6803 9.33534 4.65975 9.34002 4.64002C9.33555 4.61355 9.33555 4.5865 9.34002 4.56002C9.33593 4.51679 9.33593 4.47326 9.34002 4.43002C9.34802 4.38694 9.36506 4.34604 9.39002 4.31002C9.40985 4.24546 9.44026 4.18463 9.48002 4.13002C9.55533 4.02929 9.64652 3.94148 9.75002 3.87002L9.86002 3.75002L10.02 3.62002C10.0596 3.58765 10.1033 3.56074 10.15 3.54002C10.2884 3.4432 10.4448 3.37519 10.61 3.34002C10.6562 3.3306 10.7038 3.3306 10.75 3.34002C10.9413 3.30012 11.1387 3.30012 11.33 3.34002C11.3762 3.3306 11.4238 3.3306 11.47 3.34002C11.6352 3.37519 11.7916 3.4432 11.93 3.54002C11.9767 3.56074 12.0205 3.58765 12.06 3.62002L12.22 3.75002L12.33 3.87002C12.3912 3.93371 12.4449 4.00416 12.49 4.08002C12.5326 4.15024 12.5694 4.22382 12.6 4.30002C12.6082 4.33624 12.6082 4.37381 12.6 4.41002C12.621 4.45156 12.6378 4.49512 12.65 4.54002C12.6545 4.5665 12.6545 4.59355 12.65 4.62002C12.6547 4.63975 12.6547 4.6603 12.65 4.68002C12.6958 4.7824 12.7294 4.88981 12.75 5.00002L16.33 5.14002V4.54002C16.3396 4.51104 16.343 4.48039 16.34 4.45002Z" fill="white"/>
<path d="M16.34 4.45002C16.3199 4.19891 16.2057 3.96465 16.0203 3.79409C15.8349 3.62352 15.5919 3.52922 15.34 3.53003H15.1C14.9693 3.50003 14.9693 3.50002 14.8393 3.47003L14.67 3.40002C14.546 3.33337 14.4429 3.23355 14.3722 3.11171C14.3016 2.98987 14.2662 2.8508 14.27 2.71002C14.2655 2.66681 14.2655 2.62324 14.27 2.58002C14.2614 2.53039 14.2614 2.47966 14.27 2.43002C14.3117 2.27636 14.3794 2.13094 14.47 2.00002C14.5871 1.79759 14.6296 1.56052 14.59 1.33002C14.59 1.33002 14.59 1.27002 14.59 1.24002C14.5941 1.20347 14.5941 1.16658 14.59 1.13002C14.5434 0.993652 14.4604 0.872618 14.35 0.780025C14.2937 0.721697 14.2298 0.67124 14.16 0.630025L13.25 0.100025C13.0468 -0.016662 12.8058 -0.0485062 12.5793 0.0114031C12.3527 0.0713125 12.159 0.218141 12.04 0.420025L11.98 0.520025C11.9192 0.639784 11.8379 0.74806 11.74 0.840025C11.6906 0.894802 11.6333 0.941977 11.57 0.980025C11.5048 1.03331 11.4302 1.074 11.35 1.10002C11.2971 1.10958 11.2429 1.10958 11.19 1.10002C11.1372 1.11003 11.0829 1.11003 11.03 1.10002C10.9771 1.10958 10.9229 1.10958 10.87 1.10002C10.7705 1.08775 10.6748 1.0536 10.59 1.00002C10.5268 0.961977 10.4695 0.914802 10.42 0.860025C10.3221 0.76806 10.2409 0.659784 10.18 0.540025L10.12 0.440025C10.0917 0.384432 10.0545 0.333781 10.01 0.290025L9.91002 0.200025C9.89362 0.195791 9.87642 0.195791 9.86002 0.200025L9.75002 0.0900248C9.62504 0.0190197 9.48376 -0.0183105 9.34002 -0.0183105C9.19628 -0.0183105 9.055 0.0190197 8.93002 0.0900248L8.01002 0.620025C7.84907 0.707013 7.71701 0.839078 7.63002 1.00002C7.54014 1.15146 7.49185 1.32394 7.49002 1.50002C7.49185 1.67611 7.54014 1.84859 7.63002 2.00002C7.75746 2.20113 7.82987 2.43216 7.84002 2.67002C7.84104 2.85427 7.77763 3.03307 7.66076 3.1755C7.54389 3.31794 7.38091 3.41504 7.20002 3.45002C7.13375 3.46034 7.06629 3.46034 7.00002 3.45002L6.75002 3.53003C6.52816 3.52054 6.30946 3.58518 6.1284 3.71373C5.94734 3.84228 5.81422 4.02745 5.75002 4.24002C5.73486 4.3361 5.73486 4.43395 5.75002 4.53003V5.47002C5.75002 5.73524 5.85538 5.9896 6.04291 6.17713C6.23045 6.36467 6.4848 6.47002 6.75002 6.47002H6.99002H7.11002H7.25002L7.42002 6.54002C7.54671 6.60438 7.6525 6.70341 7.72509 6.82556C7.79767 6.94772 7.83406 7.08799 7.83002 7.23002C7.84159 7.50089 7.77195 7.76903 7.63002 8.00002C7.57783 8.08551 7.54379 8.18082 7.53002 8.28002C7.52019 8.36641 7.52019 8.45364 7.53002 8.54002C7.5252 8.57988 7.5252 8.62017 7.53002 8.66002C7.52509 8.69318 7.52509 8.72687 7.53002 8.76003C7.52109 8.79276 7.52109 8.82729 7.53002 8.86002C7.5766 8.9964 7.6596 9.11743 7.77002 9.21002C7.82631 9.26835 7.89022 9.31881 7.96002 9.36002L8.88002 9.89003C9.04472 9.9902 9.23946 10.0291 9.43002 10H9.54002C9.6128 9.98133 9.68325 9.9545 9.75002 9.92002C9.81081 9.88237 9.86776 9.83883 9.92002 9.79002C9.97122 9.73612 10.0149 9.67558 10.05 9.61002L10.11 9.51003C10.1709 9.39027 10.2521 9.28199 10.35 9.19002C10.3995 9.13525 10.4568 9.08807 10.52 9.05002C10.5853 8.99674 10.6599 8.95605 10.74 8.93003C10.7929 8.92047 10.8471 8.92047 10.9 8.93003H11.06C11.1129 8.92047 11.1671 8.92047 11.22 8.93003C11.3002 8.95605 11.3748 8.99674 11.44 9.05002C11.5033 9.08807 11.5606 9.13525 11.61 9.19002C11.7079 9.28199 11.7892 9.39027 11.85 9.51003L11.91 9.61002C12.029 9.81191 12.2227 9.95874 12.4493 10.0186C12.6758 10.0786 12.9168 10.0467 13.12 9.93003L14.03 9.40002C14.1845 9.3132 14.3131 9.18689 14.4027 9.03402C14.4923 8.88115 14.5397 8.70722 14.54 8.53002C14.5382 8.35394 14.4899 8.18146 14.4 8.03002C14.2752 7.82833 14.2062 7.59712 14.2 7.36002C14.1903 7.29036 14.1903 7.21969 14.2 7.15002C14.2243 7.04843 14.2699 6.95314 14.3336 6.87041C14.3974 6.78768 14.478 6.71939 14.57 6.67002L14.74 6.60002L14.7383 6.60053C14.8692 6.57034 14.8692 6.57034 15 6.54014L15.24 6.54002C15.5052 6.54002 15.7596 6.43467 15.9471 6.24713C16.1347 6.05959 16.24 5.80524 16.24 5.54002V4.53003C16.2805 4.51386 16.3154 4.48602 16.34 4.45002ZM12.75 5.00002C12.75 5.4562 12.5688 5.89369 12.2462 6.21625C11.9237 6.53881 11.4862 6.72002 11.03 6.72002C10.5738 6.72002 10.1364 6.53881 9.8138 6.21625C9.49123 5.89369 9.31002 5.4562 9.31002 5.00002C9.30507 4.95015 9.30507 4.8999 9.31002 4.85002C9.30514 4.80014 9.30514 4.74991 9.31002 4.70002C9.30534 4.6803 9.30534 4.65975 9.31002 4.64002C9.30555 4.61355 9.30555 4.5865 9.31002 4.56002C9.30593 4.51679 9.30593 4.47326 9.31002 4.43002C9.31802 4.38694 9.33506 4.34604 9.36002 4.31002C9.37985 4.24546 9.41026 4.18463 9.45002 4.13002C9.53434 4.02676 9.63582 3.93881 9.75002 3.87002L9.86002 3.75002L10.02 3.62002C10.0596 3.58765 10.1033 3.56074 10.15 3.54002C10.2884 3.4432 10.4448 3.37519 10.61 3.34002C10.6562 3.3306 10.7038 3.3306 10.75 3.34002C10.9413 3.30012 11.1387 3.30012 11.33 3.34002C11.3762 3.3306 11.4238 3.3306 11.47 3.34002C11.6352 3.37519 11.7916 3.4432 11.93 3.54002C11.9767 3.56074 12.0205 3.58765 12.06 3.62002L12.22 3.75002L12.33 3.87002C12.3912 3.93371 12.4449 4.00416 12.49 4.08002C12.5346 4.14914 12.5715 4.22291 12.6 4.30002C12.6082 4.33624 12.6082 4.37381 12.6 4.41002C12.621 4.45156 12.6378 4.49512 12.65 4.54002C12.6545 4.5665 12.6545 4.59355 12.65 4.62002C12.6547 4.63975 12.6547 4.6603 12.65 4.68002C12.6958 4.7824 12.7294 4.88981 12.75 5.00002Z" fill="#F79B39" fill-opacity="0.4"/>
</g>
<defs>
<clipPath id="clip0_608_6078">
<rect width="21.5" height="24.75" fill="white"/>
</clipPath>
</defs>
</svg>
