<svg width="23" height="25" viewBox="0 0 23 25" fill="none" xmlns="http://www.w3.org/2000/svg">
<path opacity="0.4" d="M6.08081 9.31879C6.69802 9.86717 7.40838 10.2422 8.28693 10.2866C8.36329 10.2915 8.43832 10.2928 8.5121 10.2915C9.60028 10.2866 10.4517 9.80331 11.1543 9.05068C12.227 7.89995 12.6643 6.5268 12.7083 4.82663C12.6799 4.59927 12.6592 4.17012 12.5724 3.7528C12.2063 1.98772 10.8554 0.839457 8.95721 0.65055C8.77605 0.633793 8.59619 0.625325 8.42021 0.625325C6.72907 0.629029 5.31222 1.47903 4.6588 2.91709C3.75561 4.9023 4.4013 7.82904 6.08081 9.31879Z" fill="#292B49"/>
<path d="M15.125 12.378C15.084 12.3285 15.0421 12.2795 14.9992 12.2311C14.1436 11.2674 12.9158 10.5826 11.5127 10.3517C11.3576 10.326 11.2004 10.306 11.0412 10.2917L11.0398 10.2932C11.0362 10.2932 11.0326 10.2932 11.0291 10.2917C10.8064 10.5519 10.555 10.7698 10.2835 10.9444C9.72627 11.3051 9.08583 11.4842 8.4461 11.4842C7.80424 11.4842 7.1638 11.3046 6.60607 10.9432C6.33506 10.7691 6.08409 10.5516 5.86172 10.2917C5.85813 10.2932 5.85503 10.2932 5.85147 10.2932V10.2917C5.69224 10.306 5.53446 10.326 5.37954 10.3517C3.9752 10.5826 2.74749 11.2674 1.89181 12.2311C1.3112 12.8844 0.901969 13.6662 0.724394 14.5212C0.659087 14.8341 0.625 15.1575 0.625 15.4877V20.1364C1.09598 20.5355 1.68564 20.896 2.37041 21.2041C2.43476 21.2332 2.50007 21.2618 2.56633 21.2899C2.73486 21.3628 2.90884 21.4319 3.08783 21.4975C3.14765 21.5189 3.20987 21.5419 3.27208 21.5636C3.27517 21.5646 3.27827 21.5657 3.28138 21.5665V17.5686L4.0641 21.8104C5.36309 22.1697 6.85657 22.375 8.4461 22.375C9.30487 22.375 10.136 22.3148 10.9235 22.2027C10.2637 21.1936 9.88001 19.986 9.88001 18.6888C9.88001 15.5385 12.1423 12.9186 15.125 12.378Z" fill="#292B49"/>
<path d="M21.4258 21.2071C21.2593 21.5265 21.0594 21.8258 20.8305 22.1002V22.1005C20.2054 21.8221 20.0765 21.2624 20.0948 20.7932C20.1144 20.2913 20.3115 19.8133 20.6389 19.432C21.2291 18.7449 21.7882 18.9028 21.9444 18.9664C21.9444 18.9778 21.9446 18.9888 21.9446 19C21.9446 19.7933 21.7577 20.5428 21.4258 21.2071ZM18.5479 17.3593C18.5479 17.3593 17.5995 17.088 17.0003 17.1149H16.9999C16.4002 17.088 15.4522 17.3593 15.4522 17.3593C13.9459 17.9046 12.6879 17.9234 12.2654 17.9113C12.2335 17.9102 12.2047 17.8977 12.1834 17.8777C12.6748 15.7599 14.5273 14.1636 16.7691 14.0609C16.8455 14.0573 16.9225 14.0554 16.9999 14.0554C19.3447 14.0554 21.3081 15.6876 21.8164 17.8773C21.7951 17.8975 21.7665 17.91 21.7343 17.9107C21.3102 17.9225 20.0473 17.902 18.5479 17.3593ZM16.0429 19C16.0429 18.4721 16.472 18.043 16.9999 18.0427H17.0003C17.5278 18.0427 17.9574 18.4721 17.9574 19C17.9574 19.5279 17.5278 19.9573 17.0003 19.9573H16.9999C16.472 19.957 16.0429 19.5279 16.0429 19ZM16.9999 23.9158C15.9465 23.9158 14.969 23.5889 14.164 23.0313C14.408 22.6533 15.5847 22.3663 17.0003 22.3663C18.415 22.3663 19.5919 22.6533 19.8358 23.0313C19.0308 23.5889 18.0536 23.9158 16.9999 23.9158ZM13.364 21.9951C13.3051 22.0336 13.2407 22.069 13.1697 22.1005V22.1002C12.9389 21.8238 12.7376 21.5222 12.5706 21.1996C12.2407 20.5372 12.0554 19.7905 12.0554 19V18.9664C12.2112 18.9028 12.7707 18.7447 13.361 19.432C13.5139 19.6099 13.6383 19.8088 13.7295 20.0216C13.8338 20.2647 13.8949 20.5256 13.9054 20.7932C13.9214 21.2092 13.8218 21.696 13.364 21.9951ZM22.9996 18.9309C22.9996 18.9236 22.9993 18.9167 22.9993 18.9096C22.9991 18.901 22.9991 18.8924 22.9989 18.884C22.9989 18.8724 22.9983 18.8606 22.9979 18.849V18.8488C22.9979 18.8442 22.9978 18.8395 22.9978 18.8346C22.9976 18.8236 22.997 18.8126 22.9968 18.8015C22.9964 18.7946 22.9963 18.7877 22.9959 18.7808C22.995 18.7488 22.9935 18.7167 22.9918 18.6849C22.9918 18.6831 22.9916 18.6816 22.9916 18.6801C22.991 18.6726 22.9908 18.6651 22.9903 18.658C22.989 18.6334 22.9875 18.6087 22.9858 18.5844C22.9852 18.5782 22.9849 18.5719 22.9845 18.5657C22.9845 18.5648 22.9841 18.5637 22.9841 18.5629C22.9828 18.545 22.9817 18.527 22.98 18.5091C22.9796 18.5018 22.9791 18.4947 22.9783 18.4878C22.9783 18.4857 22.978 18.4839 22.9778 18.4818C22.9768 18.4684 22.9755 18.4547 22.9742 18.4411C22.9735 18.4314 22.9723 18.4218 22.9714 18.4121C22.9703 18.3994 22.969 18.3865 22.9677 18.3736C22.9675 18.3727 22.9675 18.3719 22.9673 18.3708C22.966 18.3581 22.9647 18.3452 22.9632 18.3321C22.9628 18.3293 22.9626 18.3265 22.9624 18.3237C22.9613 18.3161 22.9606 18.3084 22.9596 18.3005C22.9596 18.3002 22.9596 18.2994 22.9593 18.2985C22.9585 18.2921 22.9578 18.2856 22.957 18.2791C22.955 18.2619 22.9529 18.2447 22.9507 18.2275C22.9495 18.2194 22.9486 18.2112 22.9475 18.203C22.9466 18.1948 22.9452 18.1864 22.9441 18.1781C22.9439 18.1765 22.9438 18.1748 22.9434 18.1729C22.9421 18.1638 22.9408 18.1544 22.9396 18.1453C22.9393 18.1434 22.9391 18.1417 22.9389 18.1398C22.9378 18.1326 22.9365 18.1251 22.9355 18.1178C22.9337 18.106 22.9322 18.0942 22.9303 18.0825C22.9301 18.0819 22.9301 18.0812 22.9301 18.0806C22.9288 18.0728 22.9275 18.0647 22.9262 18.0569C22.915 17.9853 22.9025 17.9141 22.8886 17.8433C22.8875 17.8386 22.8868 17.8337 22.8858 17.8289C22.8847 17.8235 22.8834 17.8182 22.8825 17.8124C22.8797 17.7986 22.8767 17.7848 22.8739 17.7713C22.8731 17.7676 22.8727 17.7642 22.8718 17.7611C22.8709 17.7556 22.8696 17.7504 22.8686 17.7452C22.8655 17.7312 22.8625 17.7171 22.8593 17.7033C22.8578 17.6957 22.8559 17.6876 22.8542 17.68C22.8509 17.6652 22.8475 17.6504 22.8442 17.6357C22.8432 17.6317 22.8425 17.6282 22.8414 17.6243C22.8328 17.5863 22.8234 17.5484 22.8137 17.5108C22.8137 17.5103 22.8135 17.5097 22.8135 17.5092C22.8094 17.4938 22.8053 17.4781 22.8012 17.4626C22.7993 17.4561 22.7976 17.4495 22.7959 17.4428C22.7918 17.4282 22.7881 17.4139 22.784 17.3993C22.7819 17.3918 22.7799 17.3843 22.7778 17.377C22.7737 17.3627 22.7698 17.3484 22.7657 17.3341C22.7634 17.3268 22.7614 17.3193 22.7591 17.3118C22.755 17.2974 22.7507 17.283 22.7462 17.2688C22.7442 17.2619 22.7421 17.2552 22.7401 17.2483C22.7356 17.2333 22.7309 17.2182 22.7262 17.2034C22.7247 17.1988 22.7234 17.1941 22.7219 17.1892C22.7047 17.1354 22.687 17.0818 22.6687 17.0285C22.6674 17.025 22.6661 17.0214 22.6648 17.0177C22.6593 17.0027 22.6539 16.9876 22.6485 16.9725C22.6463 16.9663 22.6442 16.9601 22.642 16.954C22.6367 16.9394 22.6315 16.925 22.6261 16.9106C22.6236 16.9039 22.6212 16.8973 22.6186 16.8906C22.6132 16.8766 22.6078 16.8622 22.6025 16.848C22.5999 16.8415 22.5973 16.8349 22.5947 16.8284C22.5891 16.814 22.5835 16.7996 22.5779 16.7852C22.5758 16.7796 22.5736 16.7742 22.5711 16.7686C22.5429 16.6983 22.5138 16.6288 22.4829 16.5599C22.4807 16.5548 22.4785 16.5496 22.476 16.5445L22.4568 16.5023C22.454 16.4958 22.451 16.4894 22.4482 16.4832C22.4416 16.4696 22.4357 16.4561 22.4291 16.4425C22.4261 16.4358 22.4228 16.4292 22.4196 16.4225C22.4132 16.4092 22.4069 16.3956 22.4002 16.3823C22.3972 16.3758 22.394 16.3696 22.391 16.3633C22.3843 16.3494 22.3774 16.3358 22.3706 16.322C22.3684 16.3173 22.3658 16.3128 22.3635 16.308C22.3392 16.2594 22.314 16.2115 22.2884 16.1635C22.2862 16.1592 22.2837 16.1545 22.2813 16.1502C22.274 16.137 22.2669 16.1239 22.2596 16.1108C22.2561 16.1043 22.2525 16.0977 22.249 16.091C22.2421 16.0787 22.2348 16.0662 22.2279 16.0538C22.2241 16.0467 22.22 16.0398 22.2159 16.0325C22.209 16.0206 22.2021 16.0082 22.1948 15.9961C22.1907 15.989 22.1866 15.9819 22.1825 15.975C22.1754 15.9626 22.1684 15.9505 22.161 15.9385C22.1572 15.9318 22.1531 15.9253 22.1492 15.9185C22.1417 15.906 22.1341 15.8933 22.1266 15.8808C22.1242 15.877 22.1215 15.8729 22.1189 15.8688C22.1015 15.84 22.0836 15.8113 22.0653 15.7829C22.0632 15.7795 22.0614 15.7761 22.0589 15.773C22.0515 15.761 22.0438 15.7492 22.0361 15.7374C22.0315 15.7303 22.027 15.7231 22.0223 15.7161C22.0152 15.7051 22.0077 15.6941 22.0004 15.6831C21.9954 15.6754 21.9904 15.6677 21.9851 15.6601C21.978 15.6492 21.9707 15.6386 21.9633 15.6279C21.958 15.6201 21.9526 15.6121 21.9472 15.6044C21.9401 15.5939 21.9328 15.5835 21.9253 15.5728C21.9201 15.565 21.9143 15.5569 21.9091 15.5493C21.9016 15.5388 21.8941 15.5283 21.887 15.5181C21.8812 15.5104 21.8756 15.5027 21.8702 15.4949C21.8625 15.4844 21.8551 15.474 21.8474 15.4637C21.8453 15.4607 21.8431 15.4575 21.8409 15.4545C21.8237 15.4312 21.8061 15.4076 21.7885 15.3845C21.7824 15.3762 21.7762 15.368 21.77 15.3598C21.7629 15.3504 21.7555 15.3409 21.748 15.3314C21.7416 15.3232 21.7351 15.3147 21.7287 15.3065C21.7213 15.2974 21.7142 15.2878 21.7067 15.2787C21.7002 15.2705 21.6934 15.2619 21.6869 15.2536C21.6796 15.2445 21.6721 15.2353 21.6646 15.2264C21.6581 15.2178 21.651 15.2094 21.6441 15.2009C21.637 15.192 21.6295 15.1832 21.6224 15.1742C21.6151 15.1656 21.6078 15.157 21.6006 15.1484C21.5935 15.1398 21.5862 15.1312 21.5791 15.1226C21.5708 15.1129 21.5626 15.1036 21.5544 15.0937C21.5434 15.081 21.5323 15.0681 21.5211 15.0556C21.512 15.0447 21.5026 15.0343 21.4935 15.0238C21.4862 15.0158 21.4793 15.0081 21.4724 15.0002C21.4641 14.9913 21.4563 14.9823 21.4483 14.9735C21.4408 14.9653 21.4337 14.9575 21.4262 14.9494C21.4185 14.9406 21.4107 14.9322 21.4027 14.9238C21.3952 14.9156 21.3879 14.9076 21.3804 14.8997C21.3724 14.8913 21.3642 14.8827 21.3563 14.8743C21.3488 14.8663 21.3414 14.8584 21.3339 14.8508C21.3259 14.842 21.3173 14.8336 21.309 14.8248C21.3018 14.8173 21.2945 14.8096 21.287 14.8024C21.278 14.793 21.269 14.784 21.2601 14.7749C21.2532 14.7682 21.2466 14.7612 21.2397 14.7543C21.2246 14.7392 21.2091 14.7241 21.1937 14.7089C21.187 14.7026 21.1805 14.6962 21.1739 14.6897C21.1646 14.6805 21.1549 14.6714 21.1453 14.6622C21.1379 14.6551 21.1302 14.648 21.1227 14.6407C21.1138 14.6325 21.105 14.6241 21.0964 14.6159C21.0883 14.6084 21.0805 14.6013 21.0725 14.5938C21.0641 14.586 21.0553 14.5779 21.0469 14.5703C21.0386 14.5628 21.0306 14.5553 21.0226 14.5482C21.0138 14.5402 21.0054 14.5325 20.9966 14.5247C20.9884 14.5174 20.9802 14.5103 20.9723 14.5032C20.9633 14.4951 20.9544 14.4875 20.9456 14.4798C20.9374 14.4725 20.9295 14.4656 20.9213 14.4585C20.9116 14.4501 20.9015 14.4415 20.8918 14.4331C20.8787 14.4221 20.8656 14.411 20.8525 14.4002C20.8428 14.392 20.8331 14.3836 20.823 14.3757C20.8226 14.375 20.8217 14.3744 20.8213 14.3739C20.8034 14.3593 20.7856 14.3447 20.7677 14.3301C20.7669 14.3296 20.7664 14.329 20.7656 14.3285C20.7643 14.3275 20.7628 14.3262 20.7615 14.3251C20.7589 14.323 20.7561 14.3208 20.7535 14.3187C20.7518 14.3172 20.7497 14.3159 20.7479 14.3144C20.7458 14.3129 20.7438 14.3113 20.7421 14.3096C20.7406 14.3085 20.7389 14.3072 20.7376 14.3062C20.7299 14.3 20.7225 14.2941 20.7148 14.2881C20.7146 14.2877 20.7141 14.2875 20.7139 14.2872C20.7126 14.2862 20.7112 14.2851 20.7099 14.2842C20.7013 14.2773 20.6924 14.2703 20.6834 14.2634C20.6763 14.2573 20.6694 14.2513 20.6615 14.2464C20.643 14.232 20.6244 14.218 20.6057 14.204C20.6057 14.2036 20.6053 14.2036 20.6051 14.2034C20.6049 14.2031 20.6044 14.2029 20.6042 14.2027C20.5963 14.1971 20.5887 14.1911 20.581 14.1855C20.5804 14.1849 20.5797 14.1844 20.5793 14.1842C20.576 14.1816 20.5728 14.179 20.5694 14.1767C20.5616 14.1709 20.5535 14.1649 20.5457 14.1593C20.538 14.1537 20.5304 14.1479 20.5225 14.1423C20.5169 14.1382 20.5113 14.1341 20.5059 14.1304C20.5049 14.1296 20.5042 14.1293 20.5035 14.1285C20.4984 14.125 20.4936 14.1216 20.4887 14.118C20.4773 14.1098 20.4653 14.1014 20.4539 14.0934C20.4429 14.0855 20.4315 14.0775 20.4205 14.0698C20.4194 14.0689 20.4182 14.068 20.4169 14.0672C20.3992 14.0549 20.3816 14.0429 20.3637 14.0308C20.3633 14.0306 20.3629 14.0304 20.3626 14.03C20.3616 14.0293 20.3605 14.0289 20.3596 14.028C20.3512 14.0222 20.3424 14.0166 20.3336 14.0106C20.3328 14.01 20.3319 14.0093 20.3308 14.0089C20.3239 14.0042 20.317 13.9996 20.31 13.9949C20.3091 13.9941 20.308 13.9938 20.3072 13.9928C20.3071 13.9926 20.3067 13.9926 20.3065 13.9925C20.2977 13.9869 20.2893 13.9811 20.2805 13.9755C20.2798 13.9749 20.279 13.9745 20.2783 13.974C20.2775 13.9738 20.277 13.9732 20.2762 13.9727C20.2611 13.9629 20.246 13.9528 20.2308 13.9431C20.2282 13.9416 20.2258 13.9398 20.2232 13.9381C20.219 13.9358 20.2153 13.9334 20.2116 13.931C20.2093 13.9297 20.2071 13.928 20.2047 13.9265C20.2013 13.9244 20.1981 13.9224 20.1947 13.9203C20.1826 13.9129 20.1708 13.9052 20.1589 13.8977C20.1589 13.8977 20.1589 13.8977 20.1585 13.8977C20.1535 13.8945 20.148 13.8912 20.143 13.888C20.1327 13.8816 20.1224 13.8755 20.1123 13.8693C20.112 13.8691 20.1114 13.8688 20.111 13.8686C20.0991 13.8611 20.0871 13.8542 20.0752 13.8471C20.0723 13.8452 20.0699 13.8437 20.0673 13.8422C20.0671 13.8418 20.0666 13.8418 20.0662 13.8417C20.0535 13.834 20.0404 13.8263 20.0273 13.8187C20.0247 13.817 20.0221 13.8155 20.0197 13.814C20.0176 13.8127 20.0155 13.8119 20.0135 13.8106C20.0122 13.8097 20.0107 13.809 20.009 13.808C20.0086 13.8076 20.0079 13.8073 20.0071 13.8067C20.003 13.8045 19.9989 13.8019 19.9948 13.7996C19.9909 13.7974 19.9868 13.7949 19.9827 13.7927C19.9827 13.7927 19.9827 13.7927 19.9825 13.7927C19.9797 13.7908 19.9765 13.7891 19.9735 13.7877C19.9658 13.783 19.958 13.7787 19.9501 13.7742C19.9475 13.7727 19.9447 13.7712 19.9419 13.7697C19.9414 13.7693 19.9406 13.7688 19.94 13.7686C19.9397 13.7684 19.9391 13.768 19.9389 13.7678C19.9335 13.7647 19.9279 13.7617 19.9225 13.7587C19.9219 13.7583 19.9217 13.7581 19.9212 13.7578C19.9212 13.7578 19.9212 13.7578 19.921 13.7578C19.9079 13.7505 19.8948 13.7432 19.8817 13.7361C19.8804 13.7353 19.8793 13.7348 19.878 13.7342C19.8745 13.7322 19.8707 13.7299 19.867 13.7279C19.8659 13.7273 19.8646 13.7265 19.8629 13.7258C19.855 13.7215 19.847 13.7174 19.8391 13.7129C19.839 13.7127 19.8386 13.7127 19.8384 13.7125C19.8309 13.7086 19.8233 13.7045 19.8156 13.7004C19.8137 13.6995 19.812 13.6983 19.8102 13.6974C19.8027 13.6935 19.7952 13.6897 19.7881 13.6858C19.7846 13.6839 19.7812 13.6819 19.7777 13.6802C19.776 13.6795 19.7743 13.6787 19.7728 13.6776C19.7676 13.675 19.7627 13.6725 19.7577 13.6699C19.7457 13.6638 19.7337 13.6576 19.7218 13.6514C19.7207 13.6509 19.7199 13.6505 19.7192 13.6501C19.7188 13.6499 19.7188 13.6499 19.7186 13.6499C19.704 13.6425 19.6895 13.635 19.6749 13.6279C19.6717 13.6264 19.6689 13.6247 19.6657 13.6232C19.6601 13.6204 19.6545 13.6176 19.6489 13.615C19.6418 13.6112 19.6345 13.6079 19.6274 13.6045C19.6181 13.5999 19.6087 13.5954 19.5992 13.5907C19.5912 13.5868 19.5829 13.5827 19.5747 13.5791C19.5648 13.5742 19.5549 13.5698 19.5448 13.5647C19.5392 13.5623 19.5336 13.5597 19.5278 13.5569C19.5116 13.5494 19.4951 13.5417 19.4789 13.5343C19.4759 13.5328 19.4725 13.5315 19.4695 13.5301C19.4607 13.526 19.4518 13.5223 19.443 13.5184C19.4353 13.515 19.4278 13.5115 19.4206 13.5081C19.4185 13.5073 19.4164 13.5064 19.4146 13.5055C19.4136 13.5053 19.4127 13.5047 19.4118 13.5045C19.4075 13.5025 19.403 13.5004 19.3985 13.4986C19.3957 13.4974 19.3927 13.4961 19.3899 13.4948C19.3837 13.4922 19.3776 13.4896 19.3716 13.4868C19.3671 13.4851 19.363 13.4832 19.3587 13.4816C19.3552 13.4799 19.3512 13.4782 19.3477 13.4765C19.3406 13.4735 19.3331 13.4705 19.3258 13.4674C19.3241 13.4668 19.3226 13.4661 19.3208 13.4653C19.3168 13.4636 19.3127 13.4619 19.3086 13.4603C19.3075 13.4597 19.3058 13.4591 19.3043 13.4584C19.3034 13.4582 19.3026 13.4576 19.3017 13.4575C19.2987 13.4561 19.2959 13.4548 19.2927 13.4537C19.2903 13.4528 19.2879 13.4517 19.2856 13.4507C19.2772 13.4472 19.2686 13.4438 19.2602 13.4403C19.2567 13.439 19.2531 13.4375 19.2498 13.4358C19.2443 13.4337 19.2393 13.4317 19.2341 13.4296C19.2326 13.4292 19.2307 13.4285 19.2292 13.4279C19.1836 13.4094 19.1375 13.3917 19.0913 13.3745L19.0666 13.3653C19.0655 13.3648 19.0642 13.3644 19.0631 13.364C19.0444 13.3571 19.0255 13.3504 19.0065 13.3435C19.0053 13.3433 19.0044 13.3431 19.0035 13.3425C18.9678 13.33 18.9321 13.3179 18.8962 13.3059C18.8936 13.3052 18.8912 13.304 18.8885 13.3033C18.8686 13.2966 18.8486 13.2902 18.8286 13.2839C18.8254 13.2827 18.8224 13.2818 18.819 13.2807C18.8134 13.279 18.8074 13.2771 18.8018 13.2754C18.7932 13.2725 18.785 13.27 18.7762 13.2674C18.7742 13.2667 18.7719 13.2659 18.7699 13.2652C18.7675 13.2646 18.7654 13.2639 18.7632 13.2633C18.7611 13.2626 18.759 13.262 18.757 13.2614C18.7542 13.2605 18.7516 13.2597 18.7488 13.259C18.7475 13.2584 18.746 13.2579 18.7447 13.2577C18.7267 13.2523 18.7088 13.2469 18.6907 13.2414C18.6888 13.2411 18.6867 13.2403 18.685 13.2398C18.6742 13.2366 18.6634 13.2336 18.6523 13.2304C18.626 13.2227 18.5993 13.2155 18.5724 13.2082C18.5722 13.208 18.5716 13.208 18.5711 13.2076L18.5189 13.1938C18.5169 13.1934 18.515 13.1928 18.5129 13.1923C18.5116 13.1921 18.5107 13.1917 18.5094 13.1915C18.4982 13.1884 18.4868 13.1856 18.4756 13.1828C18.469 13.1813 18.4631 13.1794 18.4565 13.1779C18.4517 13.1766 18.4462 13.1753 18.4414 13.1742C18.4397 13.1738 18.4378 13.1734 18.4361 13.1729C18.4021 13.1646 18.3681 13.1566 18.3341 13.1489C18.3309 13.1482 18.3276 13.1474 18.3246 13.1467C18.3242 13.1467 18.324 13.1467 18.3235 13.1463C18.3222 13.1461 18.321 13.1459 18.3197 13.1456C18.3193 13.1454 18.3192 13.1454 18.3186 13.1454C18.3145 13.1444 18.3108 13.1435 18.3066 13.1428C18.2917 13.1394 18.2769 13.1362 18.2622 13.133C18.2607 13.1325 18.2592 13.1323 18.2577 13.1321C18.2414 13.1284 18.2254 13.1252 18.2091 13.1218C18.2012 13.1203 18.1932 13.1187 18.1854 13.117C18.1721 13.1144 18.1586 13.1117 18.1456 13.1093C18.1411 13.1084 18.1366 13.1074 18.1323 13.1067C18.1304 13.1063 18.1289 13.106 18.1271 13.1056C18.1261 13.1056 18.125 13.1052 18.1241 13.1052C18.1037 13.1013 18.0839 13.0974 18.0635 13.0938C18.063 13.0938 18.0626 13.0936 18.062 13.0936C18.0422 13.0903 18.0228 13.0867 18.003 13.0833C18.002 13.0833 18.0013 13.0832 18.0002 13.0828C17.9998 13.0828 17.9989 13.0828 17.9981 13.0826C17.9979 13.0826 17.9979 13.0826 17.9974 13.0826C17.9968 13.0824 17.9961 13.0824 17.9957 13.0824C17.9888 13.0811 17.9815 13.08 17.9746 13.0787C17.9667 13.0774 17.9589 13.0762 17.951 13.0749C17.9464 13.0742 17.9421 13.0736 17.9374 13.0729C17.9357 13.0725 17.9337 13.0721 17.9316 13.0718C17.929 13.0716 17.9264 13.071 17.9241 13.0708C17.9172 13.0697 17.9103 13.0684 17.9034 13.0675C17.8944 13.0662 17.8854 13.0647 17.8765 13.0633C17.8711 13.0628 17.8658 13.062 17.8608 13.0613C17.8561 13.0605 17.8516 13.06 17.8469 13.0592C17.8393 13.0583 17.8318 13.0572 17.8242 13.0562C17.82 13.0557 17.8159 13.0549 17.8118 13.0544C17.8105 13.0542 17.8092 13.0542 17.8077 13.0538C17.8049 13.0536 17.8021 13.0531 17.7995 13.0529C17.798 13.0525 17.7967 13.0523 17.7952 13.0523C17.7905 13.0516 17.7862 13.051 17.7815 13.0505C17.7787 13.0501 17.7759 13.0497 17.7733 13.0493C17.7724 13.0493 17.7713 13.049 17.7703 13.049C17.7696 13.0488 17.7688 13.0488 17.7679 13.0488C17.767 13.0484 17.7658 13.0484 17.7651 13.0482C17.763 13.048 17.761 13.0477 17.7589 13.0475C17.7541 13.0469 17.7492 13.0463 17.7442 13.0456C17.741 13.0454 17.738 13.0448 17.7348 13.0447C17.7333 13.0443 17.7315 13.0441 17.73 13.0439C17.7287 13.0439 17.7277 13.0435 17.7264 13.0434C17.7161 13.042 17.7055 13.0411 17.6948 13.0398C17.6918 13.0394 17.6887 13.0391 17.6855 13.0387C17.6823 13.0383 17.6793 13.0379 17.6762 13.0377C17.6752 13.0374 17.6741 13.0374 17.6732 13.0372C17.6724 13.0372 17.6715 13.0372 17.6711 13.037H17.6705C17.6517 13.0349 17.6326 13.0329 17.6134 13.0308C17.61 13.0305 17.6066 13.0303 17.6035 13.0297C17.5829 13.0277 17.5622 13.026 17.5414 13.0241C17.541 13.0241 17.5409 13.0241 17.5409 13.0239C17.5203 13.0221 17.4996 13.0206 17.479 13.0187H17.4781C17.4745 13.0185 17.4708 13.0183 17.467 13.0179C17.4652 13.0178 17.4635 13.0174 17.4616 13.0174C17.4437 13.0163 17.4256 13.0146 17.4073 13.0133C17.4058 13.0133 17.4039 13.0133 17.4024 13.0131C17.3968 13.0129 17.3914 13.0125 17.3859 13.0121H17.3837C17.3716 13.0114 17.3594 13.0105 17.3471 13.0097C17.3404 13.0095 17.334 13.0092 17.3273 13.0088C17.3133 13.008 17.2994 13.0075 17.2852 13.0067C17.2774 13.0064 17.2695 13.006 17.2617 13.0054C17.2536 13.0052 17.2458 13.0049 17.2378 13.0047C17.2342 13.0043 17.2308 13.0043 17.2275 13.0041C17.2224 13.0041 17.2174 13.0039 17.2123 13.0035C17.206 13.0034 17.1996 13.0032 17.1935 13.0028C17.183 13.0026 17.1725 13.0022 17.1623 13.0021C17.1576 13.0021 17.1533 13.0019 17.1488 13.0019C17.1451 13.0015 17.141 13.0015 17.137 13.0015H17.1344C17.1337 13.0015 17.1333 13.0015 17.1327 13.0013H17.1264C17.1169 13.0011 17.1073 13.0011 17.0978 13.0007C17.0886 13.0006 17.0791 13.0006 17.07 13.0002H17.0548C17.0365 13 17.0184 13 17.0003 13C17.0003 13 17.0003 13 16.9999 13H16.9687C16.9569 13.0002 16.9451 13.0002 16.9332 13.0002H16.9324C16.9322 13.0002 16.9322 13.0002 16.9322 13.0002C16.932 13.0002 16.932 13.0002 16.932 13.0002H16.9307C16.9205 13.0006 16.91 13.0007 16.8993 13.0007C16.8889 13.0011 16.8782 13.0011 16.8674 13.0013C16.8666 13.0015 16.8659 13.0015 16.8651 13.0015H16.8638C16.8603 13.0015 16.8569 13.0015 16.8536 13.0019C16.848 13.0019 16.842 13.0021 16.8364 13.0021C16.8263 13.0022 16.8164 13.0026 16.8063 13.0028C16.8007 13.0032 16.7949 13.0034 16.7891 13.0035C16.7861 13.0035 16.7831 13.0039 16.7799 13.0039C16.7723 13.0041 16.7646 13.0047 16.757 13.0049C16.75 13.0052 16.7427 13.0054 16.7358 13.0056C16.73 13.006 16.7243 13.0062 16.7186 13.0064C16.7117 13.0067 16.7048 13.0073 16.6979 13.0075C16.6942 13.0077 16.6901 13.0077 16.6861 13.008C16.6813 13.0082 16.676 13.0084 16.6712 13.0088C16.665 13.009 16.6592 13.0095 16.6529 13.0097C16.6422 13.0103 16.6321 13.011 16.6215 13.0118C16.6179 13.0121 16.614 13.0121 16.6104 13.0123C16.605 13.0129 16.6 13.0131 16.5949 13.0133C16.5798 13.0144 16.5649 13.0153 16.5499 13.0166C16.545 13.017 16.54 13.0172 16.5351 13.0178C16.5338 13.0178 16.5325 13.0179 16.5312 13.0179C16.5241 13.0185 16.5168 13.0192 16.5097 13.0198C16.494 13.0211 16.478 13.0224 16.4623 13.0235C16.4251 13.0269 16.3879 13.0308 16.3511 13.0346C16.3464 13.0351 16.3421 13.0357 16.3374 13.0363C16.3346 13.0364 16.3316 13.037 16.3285 13.0372C16.3268 13.0374 16.3251 13.0377 16.3234 13.0377C16.3145 13.0387 16.3051 13.0398 16.2961 13.0407C16.2885 13.0419 16.2808 13.0426 16.2733 13.0434C16.2705 13.0439 16.2675 13.0441 16.2644 13.0447C16.2618 13.0448 16.2593 13.0452 16.2567 13.0456C16.2444 13.0473 16.232 13.0488 16.2197 13.0503C16.2126 13.0512 16.2055 13.0521 16.1982 13.0531C16.1975 13.0531 16.1965 13.0531 16.1958 13.0533C16.1872 13.0544 16.1788 13.0557 16.17 13.057C16.1644 13.0577 16.1586 13.0585 16.1526 13.0592C16.1463 13.0604 16.1395 13.0611 16.1332 13.062C16.1298 13.0626 16.1268 13.0632 16.1235 13.0633C16.116 13.0647 16.1085 13.0656 16.1009 13.0669C16.0814 13.0697 16.0618 13.0729 16.0427 13.0759C16.0398 13.0764 16.037 13.077 16.0341 13.0774C16.0332 13.0774 16.0325 13.0777 16.0313 13.0777C16.0214 13.0794 16.0112 13.0811 16.0011 13.0828C16.0009 13.0828 16.0009 13.0828 16.0007 13.0828C15.9796 13.0861 15.9587 13.0901 15.9377 13.0936C15.9374 13.0936 15.9368 13.0938 15.9366 13.0938C15.9187 13.0972 15.9005 13.1005 15.8826 13.1039C15.8783 13.1046 15.8736 13.1054 15.8693 13.1063C15.8684 13.1063 15.8675 13.1067 15.8665 13.1069C15.8635 13.1074 15.8605 13.108 15.8576 13.1084C15.8419 13.1116 15.826 13.1149 15.8105 13.1179C15.8079 13.1185 15.805 13.119 15.8026 13.1194L15.7981 13.1203C15.7845 13.1231 15.7709 13.1261 15.7574 13.1289C15.7529 13.1297 15.7486 13.1308 15.7439 13.1316C15.7426 13.1317 15.7413 13.1323 15.7402 13.1325C15.7382 13.1329 15.7357 13.1332 15.7335 13.1338C15.7211 13.1366 15.7092 13.1392 15.6969 13.142C15.6916 13.1431 15.6864 13.1441 15.6812 13.1454C15.6804 13.1456 15.6797 13.1456 15.6789 13.1459C15.6776 13.1461 15.6763 13.1463 15.675 13.1469C15.6742 13.1469 15.6733 13.1473 15.6724 13.1474C15.6584 13.1504 15.644 13.1538 15.63 13.1572L15.5907 13.1665C15.5789 13.1693 15.5672 13.1721 15.5556 13.1751C15.5543 13.1753 15.553 13.1757 15.5515 13.1758C15.5474 13.1772 15.5431 13.1783 15.5389 13.1792C15.5238 13.1831 15.5087 13.1867 15.4935 13.1908C15.4917 13.191 15.4902 13.1915 15.4883 13.1921C15.4792 13.1943 15.4696 13.197 15.4605 13.1994C15.4162 13.211 15.3723 13.2233 15.3284 13.2358C15.3198 13.2384 15.3108 13.2411 15.302 13.2435C15.3011 13.2439 15.2999 13.2441 15.299 13.2444C15.2971 13.2452 15.2951 13.2455 15.2932 13.2461C15.2872 13.248 15.2813 13.2497 15.2753 13.2515C15.2672 13.2541 15.2592 13.2564 15.251 13.259C15.2467 13.2603 15.242 13.2614 15.2373 13.2631C15.2342 13.2639 15.231 13.2652 15.228 13.2659C15.0525 13.3203 14.8808 13.382 14.7126 13.4515C14.708 13.4533 14.7035 13.4554 14.6986 13.4571C14.6947 13.459 14.6906 13.4604 14.6868 13.4619C14.6809 13.4646 14.6753 13.4668 14.6693 13.4694C14.6663 13.4707 14.6629 13.4722 14.6596 13.4735C14.6562 13.475 14.6528 13.4763 14.6496 13.4778C14.6483 13.4784 14.647 13.4789 14.6457 13.4795C14.6448 13.4799 14.6437 13.4804 14.6424 13.4806C14.6403 13.4817 14.6381 13.4827 14.6358 13.4838C14.5166 13.535 14.3991 13.5899 14.2839 13.6484C14.2838 13.6486 14.2832 13.6488 14.2826 13.6492C14.2817 13.6497 14.2808 13.6501 14.2797 13.6507C14.2681 13.6567 14.2565 13.6625 14.2451 13.6686C14.2415 13.6705 14.2376 13.6722 14.2341 13.6742C14.2333 13.6748 14.2327 13.675 14.232 13.6753C14.2316 13.6753 14.2314 13.6755 14.2313 13.6757C14.2157 13.6838 14.2002 13.692 14.1847 13.7002C14.1845 13.7002 14.1843 13.7004 14.184 13.7004C14.1819 13.7017 14.1799 13.7028 14.1778 13.7037C14.1774 13.7043 14.1765 13.7045 14.1761 13.7047C14.1589 13.714 14.1414 13.7232 14.1244 13.7327C14.1225 13.7336 14.1206 13.7348 14.1189 13.7357C14.1156 13.7376 14.1122 13.7394 14.1092 13.7411C14.0941 13.7493 14.0791 13.7576 14.0646 13.7658C14.0638 13.7664 14.0631 13.7665 14.0625 13.7671C14.0595 13.7686 14.0565 13.7705 14.0537 13.772C14.0382 13.7809 14.0225 13.7897 14.0072 13.7987C14.0066 13.7989 14.0061 13.7991 14.0053 13.7994C13.9872 13.8099 13.9693 13.8204 13.951 13.8312C13.9024 13.8602 13.8542 13.8897 13.8061 13.9198C13.8031 13.9216 13.8 13.9237 13.797 13.9256C13.7932 13.9278 13.7897 13.93 13.7863 13.9325C13.7708 13.9422 13.7553 13.9521 13.7398 13.9622C13.7364 13.9644 13.7331 13.9665 13.7297 13.9689C13.7276 13.97 13.7256 13.9713 13.7233 13.9728C13.5864 14.0624 13.4531 14.1573 13.3242 14.2574C13.3236 14.258 13.3229 14.2582 13.3223 14.2588C13.3214 14.2599 13.3201 14.2606 13.3192 14.2614C13.2872 14.2862 13.2558 14.3111 13.2244 14.3365C13.2222 14.3385 13.2199 14.3402 13.2175 14.3421C13.216 14.3434 13.2147 14.3443 13.2134 14.3455C12.9714 14.5428 12.7451 14.7584 12.5364 14.9905C12.5362 14.9907 12.5358 14.9913 12.5354 14.9915C12.5177 15.0113 12.5003 15.0309 12.4827 15.0509C12.4825 15.0513 12.4824 15.0515 12.482 15.0516C12.3758 15.1733 12.2744 15.2989 12.1783 15.4286C12.1778 15.4293 12.177 15.43 12.1765 15.4312C12.1613 15.4514 12.1464 15.4719 12.1316 15.4925C12.1303 15.4941 12.129 15.496 12.1277 15.4975C12.1133 15.5175 12.0991 15.5379 12.0849 15.5577C12.0836 15.5595 12.0823 15.5614 12.0813 15.5631C12.0668 15.5838 12.0522 15.605 12.0378 15.6263C12.0372 15.6268 12.0367 15.6276 12.0361 15.6283C11.9606 15.7393 11.8889 15.8531 11.8207 15.9692C11.8195 15.9708 11.8188 15.972 11.818 15.9737C11.8055 15.995 11.7932 16.0164 11.7809 16.0379C11.7796 16.0406 11.7781 16.0428 11.7768 16.0454C11.765 16.0662 11.7532 16.0871 11.7416 16.1082C11.7401 16.1108 11.7388 16.1131 11.7375 16.1157C11.7255 16.1373 11.7138 16.1592 11.7022 16.1811C11.7014 16.1826 11.7003 16.1841 11.6996 16.1856C11.6362 16.3046 11.5768 16.4261 11.5214 16.5496C11.5209 16.5509 11.5204 16.5526 11.5197 16.5537C11.5094 16.5765 11.4994 16.5997 11.4894 16.6226C11.4884 16.6253 11.4871 16.6279 11.4861 16.6305C11.4766 16.6527 11.4671 16.675 11.4579 16.6974C11.4566 16.6998 11.4556 16.7026 11.4545 16.7052C11.445 16.7284 11.4356 16.7514 11.4263 16.7746C11.4256 16.7761 11.425 16.7777 11.4243 16.7794C11.3738 16.9059 11.3276 17.0345 11.2858 17.1649C11.2856 17.1659 11.2851 17.1668 11.2848 17.1677C11.2769 17.1924 11.2692 17.2173 11.2617 17.2421C11.261 17.2444 11.2602 17.2464 11.2597 17.2488C11.2523 17.2726 11.2453 17.2965 11.2382 17.3206C11.2377 17.3228 11.2369 17.3255 11.2361 17.3279C11.2289 17.3524 11.222 17.3767 11.2153 17.4013C11.2148 17.4028 11.2143 17.4047 11.2141 17.4062C11.1774 17.5392 11.1454 17.6742 11.1179 17.8108C11.1177 17.8109 11.1177 17.8111 11.1177 17.8117C11.1123 17.8379 11.1072 17.8642 11.1023 17.8909C11.1018 17.893 11.1015 17.895 11.101 17.8975C11.0964 17.9225 11.092 17.9474 11.0877 17.9724C11.0872 17.975 11.0867 17.9776 11.0864 17.9803C11.082 18.0055 11.0777 18.0313 11.0738 18.0565C11.0736 18.0584 11.0733 18.0599 11.0728 18.0617C11.0513 18.2004 11.0341 18.3404 11.022 18.4822V18.4824C11.0198 18.5098 11.0174 18.5375 11.0156 18.565C11.0154 18.5672 11.0151 18.5696 11.0151 18.5717C11.0133 18.5975 11.0115 18.6235 11.01 18.6492C11.01 18.652 11.0097 18.6549 11.0095 18.6578C11.0082 18.6836 11.0069 18.7096 11.0056 18.7358C11.0056 18.7378 11.0056 18.7401 11.0054 18.7421C11.0044 18.77 11.0033 18.7982 11.0026 18.8262C11.0008 18.884 11 18.9419 11 19C11 19.0333 11.0003 19.0667 11.0008 19.1V19.1041C11.0015 19.1357 11.0023 19.1671 11.0033 19.1986V19.205C11.0067 19.3038 11.0126 19.402 11.0205 19.4997C11.0208 19.5017 11.0208 19.5038 11.021 19.5059C11.0292 19.6038 11.0397 19.7006 11.0525 19.797C11.0528 19.7985 11.0528 19.8002 11.0531 19.8019C11.0661 19.8985 11.0813 19.9945 11.0987 20.0896C11.099 20.0908 11.0992 20.0921 11.0995 20.0934C11.1051 20.1246 11.111 20.1556 11.1174 20.1866V20.1877C11.1302 20.2511 11.1441 20.3141 11.1587 20.3767C11.1589 20.378 11.1592 20.3793 11.1597 20.3808C11.1666 20.4099 11.1736 20.4393 11.181 20.4682C11.1815 20.4708 11.1823 20.4731 11.1828 20.4757C11.3804 21.2572 11.7317 21.9779 12.2024 22.6034C12.6027 23.1362 13.0899 23.5998 13.6428 23.9737C13.6434 23.9739 13.6439 23.9745 13.6443 23.9748C13.6705 23.9924 13.6966 24.0096 13.7232 24.0268C13.7303 24.0316 13.7374 24.0363 13.7447 24.041C13.7695 24.0571 13.7945 24.0729 13.8198 24.0888C13.8218 24.0901 13.8239 24.0914 13.8259 24.0927C13.853 24.1096 13.8803 24.1262 13.9076 24.1426C13.9145 24.1468 13.9214 24.1512 13.9283 24.1552C13.9545 24.1709 13.981 24.1866 14.0076 24.2017C14.0089 24.2026 14.0106 24.2034 14.0121 24.2043C14.0399 24.2204 14.0679 24.2363 14.0961 24.2516C14.1031 24.2555 14.11 24.2592 14.1169 24.2632C14.1444 24.2781 14.1716 24.2929 14.1995 24.3078C14.2004 24.3082 14.2015 24.3088 14.2025 24.3093C14.2313 24.3245 14.2598 24.3392 14.2888 24.354C14.2957 24.3575 14.3026 24.3609 14.3096 24.3645C14.3378 24.3785 14.3664 24.3927 14.3948 24.4065C14.3955 24.4067 14.3963 24.4073 14.397 24.4078C14.4265 24.4218 14.4561 24.4357 14.4856 24.4493C14.4927 24.4527 14.4996 24.4556 14.5065 24.459C14.5355 24.4721 14.5644 24.4852 14.5938 24.4981C14.5945 24.4983 14.5953 24.4988 14.596 24.499C14.6257 24.5121 14.656 24.525 14.6859 24.5375C14.6932 24.5405 14.7003 24.5435 14.7076 24.5465C14.7369 24.5588 14.7664 24.5706 14.796 24.5823C14.7969 24.5825 14.7978 24.5831 14.7988 24.5835C14.829 24.5954 14.8595 24.607 14.89 24.6184C14.8974 24.6214 14.9049 24.6242 14.9124 24.627C14.9421 24.638 14.9718 24.6487 15.0019 24.6593C15.0028 24.6597 15.0041 24.6601 15.0051 24.6605C15.0359 24.6713 15.0667 24.6818 15.0978 24.692C15.1054 24.6947 15.1133 24.6973 15.1211 24.6997C15.151 24.7098 15.1811 24.7195 15.2112 24.729C15.2125 24.7292 15.2138 24.7298 15.2151 24.73C15.2461 24.7397 15.2773 24.749 15.3087 24.7582C15.317 24.7608 15.3248 24.763 15.333 24.7655C15.3631 24.7741 15.393 24.7827 15.4233 24.7907C15.4251 24.7913 15.4266 24.7918 15.4283 24.792C15.4597 24.8006 15.4913 24.8086 15.5227 24.8167C15.5313 24.8189 15.5399 24.821 15.5483 24.823C15.5784 24.8307 15.6087 24.838 15.6386 24.8449C15.6406 24.8455 15.643 24.8458 15.6451 24.8464C15.6765 24.8537 15.7081 24.8608 15.7398 24.8675C15.7488 24.8696 15.7578 24.8712 15.7671 24.8731C15.7968 24.8795 15.8267 24.8854 15.857 24.8912C15.8602 24.8918 15.8632 24.8926 15.8663 24.8931C15.8974 24.8989 15.9288 24.9045 15.9601 24.9103C15.9695 24.9118 15.9788 24.9133 15.9884 24.9152C16.0183 24.9202 16.0484 24.9251 16.0786 24.9297C16.0824 24.9303 16.0859 24.931 16.0898 24.9316C16.1209 24.9361 16.1521 24.9406 16.1831 24.9449C16.1928 24.9462 16.2027 24.9475 16.2124 24.9486C16.2427 24.9527 16.2726 24.9565 16.3029 24.96C16.3072 24.9606 16.3116 24.9609 16.3159 24.9615C16.347 24.9651 16.378 24.9682 16.409 24.9712C16.4189 24.9723 16.429 24.9731 16.4389 24.974C16.4692 24.9768 16.4994 24.9794 16.5301 24.9817C16.5348 24.9822 16.5398 24.9826 16.5447 24.983C16.5753 24.9854 16.6063 24.9875 16.6374 24.9892C16.6476 24.9897 16.6577 24.9905 16.668 24.991C16.6985 24.9925 16.7291 24.994 16.7599 24.9953C16.7648 24.9957 16.77 24.9957 16.7751 24.9959C16.8061 24.9972 16.8371 24.9979 16.8683 24.9985C16.8784 24.9987 16.8887 24.9989 16.899 24.9993C16.9302 24.9996 16.9614 25 16.9928 25H17.0059C17.0402 25 17.0748 24.9996 17.1092 24.9989C17.1184 24.9987 17.1275 24.9987 17.1369 24.9985C17.172 24.9978 17.2066 24.9966 17.2413 24.9953C17.2493 24.9948 17.2574 24.9946 17.2652 24.994C17.2964 24.9927 17.3275 24.9912 17.3589 24.9895C17.3656 24.989 17.3721 24.9886 17.3788 24.9882C17.4142 24.9862 17.4493 24.9836 17.4844 24.9808C17.4926 24.98 17.5005 24.9794 17.5087 24.9787C17.5452 24.9757 17.5816 24.9723 17.6175 24.9688C17.6188 24.9684 17.6197 24.9684 17.6208 24.9682C17.6586 24.9643 17.6961 24.9602 17.7339 24.9557C17.7369 24.9552 17.7402 24.9548 17.7436 24.9544C17.8628 24.9396 17.9809 24.9213 18.0979 24.8997C18.1 24.8993 18.1022 24.8989 18.1046 24.8985C18.1059 24.8982 18.1071 24.898 18.1084 24.8976C18.1271 24.8944 18.1459 24.8907 18.1642 24.8871C18.1676 24.8864 18.1708 24.8858 18.174 24.8851C18.4128 24.8376 18.6466 24.7761 18.8742 24.7016C18.8743 24.7014 18.8747 24.7014 18.8749 24.7014C18.8757 24.701 18.8764 24.7008 18.8773 24.7004C18.9743 24.6685 19.0704 24.6341 19.1651 24.5975C19.1698 24.5956 19.1745 24.5939 19.1788 24.5921C19.1802 24.5915 19.1816 24.5911 19.1829 24.5906C19.1954 24.5857 19.2083 24.5805 19.2208 24.5756C19.2283 24.5726 19.2354 24.5695 19.2428 24.5667C19.281 24.5513 19.3189 24.5354 19.3566 24.5196C19.3626 24.5169 19.3686 24.5143 19.3746 24.5119C19.3927 24.5039 19.4107 24.496 19.429 24.488C19.4333 24.4859 19.4379 24.4842 19.4422 24.4822C19.4449 24.4811 19.4475 24.4798 19.4497 24.4788C19.482 24.4644 19.5138 24.4499 19.5456 24.4347C19.5458 24.4347 19.5458 24.4347 19.5461 24.4343C19.5805 24.4185 19.6143 24.4022 19.6482 24.3854H19.6483C19.6495 24.385 19.6508 24.3843 19.6517 24.3837C19.6629 24.3781 19.6745 24.3723 19.6859 24.3667C19.6939 24.3626 19.7025 24.3583 19.7109 24.3542C19.7238 24.3475 19.7369 24.3409 19.7496 24.3342C19.756 24.3308 19.7622 24.3278 19.7687 24.3245C19.7853 24.3157 19.8018 24.3071 19.8184 24.2981C19.8289 24.2923 19.8393 24.2871 19.85 24.2811C19.8504 24.2809 19.8509 24.2806 19.8515 24.2804C19.8589 24.2763 19.8666 24.2721 19.8739 24.268C19.8784 24.2658 19.8829 24.2634 19.8874 24.2609C19.8903 24.2592 19.8931 24.2576 19.8963 24.2557C19.9163 24.2447 19.9359 24.2336 19.9559 24.2224C19.9578 24.2213 19.9597 24.2204 19.9614 24.2193C19.9638 24.2181 19.9658 24.217 19.9679 24.2157C19.978 24.2099 19.9881 24.2043 19.998 24.1983H19.9984C20.0026 24.1957 20.0071 24.1933 20.0114 24.1907C20.0299 24.1798 20.0481 24.1692 20.0666 24.1583C20.0707 24.1557 20.0748 24.1531 20.0789 24.1509C20.0989 24.1389 20.1185 24.1268 20.1383 24.1148C20.1402 24.1135 20.1421 24.1124 20.1439 24.1114C20.1454 24.1103 20.1473 24.1094 20.1488 24.1083C20.1693 24.0956 20.1895 24.083 20.2099 24.07C20.2129 24.0681 20.2157 24.0662 20.2185 24.0645C21.4899 23.2548 22.4357 21.98 22.8159 20.4798L22.8206 20.4621C22.8266 20.438 22.8324 20.4139 22.838 20.3896C22.8397 20.3836 22.8412 20.3774 22.8425 20.3716C22.8563 20.3128 22.869 20.2539 22.8812 20.1947C22.8825 20.1876 22.8838 20.1806 22.8853 20.1734C22.8896 20.1507 22.8939 20.1279 22.8983 20.1055L22.9028 20.0809C22.9075 20.0553 22.9118 20.0298 22.9163 20.0042C22.917 20.0001 22.9178 19.9962 22.9183 19.9921C22.9232 19.9629 22.9279 19.9334 22.9324 19.9039C22.9335 19.896 22.9348 19.8878 22.9357 19.8798C22.9391 19.8581 22.9421 19.8364 22.9449 19.8148C22.9466 19.805 22.9479 19.7949 22.949 19.785C22.9518 19.7632 22.9548 19.7413 22.9572 19.7194C22.9583 19.7114 22.9593 19.7032 22.96 19.695C22.9634 19.666 22.9667 19.637 22.9695 19.6081C22.9703 19.5997 22.971 19.5909 22.9718 19.5825C22.9738 19.5612 22.9759 19.5399 22.9778 19.5184C22.9789 19.5074 22.9796 19.4963 22.9806 19.4851C22.9821 19.4651 22.9837 19.4451 22.9849 19.4251C22.9858 19.4145 22.9865 19.4042 22.9873 19.3941C22.989 19.3651 22.9908 19.3364 22.9923 19.3074C22.9927 19.2992 22.9929 19.2911 22.9935 19.2833C22.9944 19.2612 22.9951 19.239 22.9959 19.217C22.9964 19.205 22.9968 19.1936 22.9972 19.1818C22.9978 19.1626 22.9983 19.1431 22.9985 19.1235C22.9989 19.1123 22.9991 19.1007 22.9993 19.0891C22.9996 19.0641 22.9998 19.0387 22.9998 19.0133C22.9998 19.0088 23 19.0043 23 19C23 18.977 22.9998 18.9538 22.9996 18.9309Z" fill="#292B49"/>
</svg>
