<svg width="20" height="20" viewBox="0 0 20 20" fill="none" xmlns="http://www.w3.org/2000/svg">
<path opacity="0.4" d="M8.74988 0.450312C9.44988 -0.139687 10.5799 -0.139687 11.2599 0.450312L12.8399 1.80031C13.1399 2.05031 13.7099 2.26031 14.1099 2.26031H15.8099C16.8699 2.26031 17.7399 3.13031 17.7399 4.19031V5.89031C17.7399 6.29031 17.9499 6.85031 18.1999 7.15031L19.5499 8.73031C20.1399 9.43031 20.1399 10.5603 19.5499 11.2403L18.1999 12.8203C17.9499 13.1203 17.7399 13.6803 17.7399 14.0803V15.7803C17.7399 16.8403 16.8699 17.7103 15.8099 17.7103H14.1099C13.7099 17.7103 13.1499 17.9203 12.8499 18.1703L11.2699 19.5203C10.5699 20.1103 9.43988 20.1103 8.75988 19.5203L7.17988 18.1703C6.87988 17.9203 6.30988 17.7103 5.91988 17.7103H4.16988C3.10988 17.7103 2.23988 16.8403 2.23988 15.7803V14.0703C2.23988 13.6803 2.03988 13.1103 1.78988 12.8203L0.439883 11.2303C-0.140117 10.5403 -0.140117 9.42031 0.439883 8.73031L1.78988 7.14031C2.03988 6.84031 2.23988 6.28031 2.23988 5.89031V4.20031C2.23988 3.14031 3.10988 2.27031 4.16988 2.27031H5.89988C6.29988 2.27031 6.85988 2.06031 7.15988 1.81031L8.74988 0.450312Z" fill="#292B49"/>
<path d="M10 14.8701C9.45 14.8701 9 14.4201 9 13.8701C9 13.3201 9.44 12.8701 10 12.8701C10.55 12.8701 11 13.3201 11 13.8701C11 14.4201 10.56 14.8701 10 14.8701Z" fill="#292B49"/>
<path d="M10 11.7199C9.59 11.7199 9.25 11.3799 9.25 10.9699V6.12988C9.25 5.71988 9.59 5.37988 10 5.37988C10.41 5.37988 10.75 5.71988 10.75 6.12988V10.9599C10.75 11.3799 10.42 11.7199 10 11.7199Z" fill="#292B49"/>
</svg>
