<svg width="10" height="10" viewBox="0 0 10 10" fill="none" xmlns="http://www.w3.org/2000/svg">
<path d="M8.59146 3.52067C8.15396 1.59567 6.4748 0.729004 4.9998 0.729004C4.9998 0.729004 4.9998 0.729004 4.99563 0.729004C3.5248 0.729004 1.84146 1.5915 1.40396 3.5165C0.916462 5.6665 2.23313 7.48734 3.4248 8.63317C3.86646 9.05817 4.43313 9.27067 4.9998 9.27067C5.56646 9.27067 6.13313 9.05817 6.57063 8.63317C7.7623 7.48734 9.07896 5.67067 8.59146 3.52067ZM4.9998 5.60817C4.2748 5.60817 3.6873 5.02067 3.6873 4.29567C3.6873 3.57067 4.2748 2.98317 4.9998 2.98317C5.7248 2.98317 6.3123 3.57067 6.3123 4.29567C6.3123 5.02067 5.7248 5.60817 4.9998 5.60817Z" fill="#3A416F"/>
</svg>
