<svg width="24" height="28" viewBox="0 0 24 28" fill="none" xmlns="http://www.w3.org/2000/svg">
<g clip-path="url(#clip0_606_6059)">
<path opacity="0.4" d="M23.4072 18.1208C23.2395 16.3314 22.7474 14.4229 19.1575 14.4229H4.8872C1.29727 14.4229 0.816374 16.3314 0.637436 18.1208L-2.85924e-05 24.7249C-0.0332477 25.1378 0.023245 25.5529 0.165799 25.9433C0.308352 26.3337 0.533795 26.6908 0.827558 26.9914C1.1137 27.2922 1.45899 27.5344 1.84311 27.7039C2.22724 27.8734 2.64243 27.9667 3.06428 27.9782H5.22271C5.76477 28.0485 6.31395 27.9144 6.75712 27.6037C7.2003 27.293 7.5037 26.8293 7.60482 26.3082L7.82849 25.6576C8.08571 24.9093 8.15281 24.7249 9.15934 24.7249H14.8853C15.8919 24.7249 15.9254 24.8334 16.2162 25.6576L16.4399 26.3082C16.541 26.8293 16.8444 27.293 17.2876 27.6037C17.7307 27.9144 18.2799 28.0485 18.822 27.9782H20.9692C21.3911 27.9667 21.8063 27.8734 22.1904 27.7039C22.5745 27.5344 22.9198 27.2922 23.2059 26.9914C23.4917 26.6871 23.7089 26.3284 23.8437 25.9382C23.9785 25.5479 24.0279 25.1347 23.9888 24.7249L23.4072 18.1208Z" fill="#F79B39"/>
<path d="M12.8164 7.59116H12.4586V6.05127L13.0177 6.24647C13.3085 6.34407 13.4763 6.43082 13.4763 6.90797C13.4794 7.08266 13.4122 7.25166 13.2891 7.37918C13.1659 7.50671 12.9964 7.58273 12.8164 7.59116Z" fill="#F79B39"/>
<path d="M17.6141 5.74742C17.6141 7.18546 17.025 8.56461 15.9763 9.58146C14.9277 10.5983 13.5054 11.1696 12.0223 11.1696C10.5393 11.1696 9.11701 10.5983 8.06834 9.58146C7.01968 8.56461 6.43054 7.18546 6.43054 5.74742C6.96767 5.61547 7.52052 5.55347 8.07453 5.56306H11.0717L11.6645 5.76911V7.59095H11.4632C11.2377 7.57974 11.0255 7.48422 10.8712 7.32446C10.7168 7.16469 10.6324 6.95313 10.6356 6.73425C10.6521 6.62676 10.6253 6.51723 10.5607 6.42839C10.4962 6.33954 10.3988 6.27821 10.2889 6.2571C10.1764 6.24138 10.062 6.26885 9.97013 6.33367C9.87823 6.39848 9.81604 6.49551 9.79681 6.60412C9.78544 6.64679 9.78544 6.69157 9.79681 6.73425C9.79081 7.16958 9.96267 7.58953 10.2749 7.90241C10.5871 8.2153 11.0143 8.39572 11.4632 8.40427H11.6645V8.71876C11.648 8.82625 11.6748 8.93578 11.7393 9.02462C11.8039 9.11346 11.9012 9.1748 12.0112 9.19591C12.1236 9.21162 12.238 9.18415 12.3299 9.11934C12.4218 9.05453 12.484 8.95749 12.5032 8.84889C12.5146 8.80621 12.5146 8.76143 12.5032 8.71876V8.41512H12.8611C13.2528 8.39835 13.6226 8.23559 13.8935 7.9608C14.1644 7.68602 14.3154 7.32042 14.315 6.94029C14.3474 6.65641 14.2857 6.36991 14.1389 6.12229C13.9921 5.87467 13.7679 5.6788 13.4986 5.56306H15.903C16.4792 5.55302 17.0543 5.61498 17.6141 5.74742Z" fill="#F79B39"/>
<path d="M22.9264 11.983C22.9207 12.1969 22.8305 12.4006 22.6744 12.552C22.5183 12.7033 22.3083 12.7908 22.0876 12.7963H21.2488L21.7185 14.9651L21.4837 14.8459H21.3495H21.2153L20.7232 14.694H20.2311L19.8061 14.4988H4.1491L3.72413 14.5856H3.35507L3.10903 14.7049L2.80707 14.8025L2.54985 14.9001L2.34854 15.0085L2.81825 12.8397H1.95712C1.73466 12.8397 1.52132 12.754 1.36402 12.6014C1.20672 12.4489 1.11835 12.242 1.11835 12.0263C1.11835 11.8106 1.20672 11.6038 1.36402 11.4512C1.52132 11.2987 1.73466 11.213 1.95712 11.213H3.07548L3.50045 9.25019C3.56171 8.64207 3.75477 8.05335 4.06699 7.52261C4.37921 6.99187 4.80354 6.53107 5.3122 6.17041C5.3122 7.89606 6.01916 9.55104 7.27756 10.7713C8.53596 11.9915 10.2427 12.677 12.0224 12.677C13.802 12.677 15.5088 11.9915 16.7672 10.7713C18.0256 9.55104 18.7325 7.89606 18.7325 6.17041C19.24 6.52419 19.6655 6.97718 19.9814 7.50017C20.2973 8.02316 20.4966 8.60453 20.5666 9.20682L20.9692 11.1696H22.0876C22.3083 11.1751 22.5183 11.2626 22.6744 11.4139C22.8305 11.5653 22.9207 11.769 22.9264 11.983Z" fill="#F79B39"/>
<path d="M8.6673 20.3874H5.31222C5.08976 20.3874 4.87642 20.3017 4.71912 20.1492C4.56182 19.9966 4.47345 19.7898 4.47345 19.5741C4.47345 19.3584 4.56182 19.1515 4.71912 18.999C4.87642 18.8464 5.08976 18.7607 5.31222 18.7607H8.6673C8.88975 18.7607 9.1031 18.8464 9.2604 18.999C9.4177 19.1515 9.50607 19.3584 9.50607 19.5741C9.50607 19.7898 9.4177 19.9966 9.2604 20.1492C9.1031 20.3017 8.88975 20.3874 8.6673 20.3874Z" fill="#F79B39"/>
<path d="M18.7325 20.3874H15.3775C15.155 20.3874 14.9417 20.3017 14.7844 20.1492C14.6271 19.9966 14.5387 19.7898 14.5387 19.5741C14.5387 19.3584 14.6271 19.1515 14.7844 18.999C14.9417 18.8464 15.155 18.7607 15.3775 18.7607H18.7325C18.955 18.7607 19.1683 18.8464 19.3256 18.999C19.4829 19.1515 19.5713 19.3584 19.5713 19.5741C19.5713 19.7898 19.4829 19.9966 19.3256 20.1492C19.1683 20.3017 18.955 20.3874 18.7325 20.3874Z" fill="#F79B39"/>
<path d="M10.5797 4.05585C10.5767 3.96755 10.5917 3.87954 10.6238 3.79685C10.6559 3.71417 10.7045 3.63844 10.7668 3.57398C10.8291 3.50952 10.9039 3.45761 10.987 3.4212C11.07 3.3848 11.1596 3.36462 11.2507 3.36182H11.6085V4.91255L11.0382 4.77158C10.8879 4.72255 10.7599 4.62428 10.6762 4.49366C10.5925 4.36304 10.5584 4.20823 10.5797 4.05585Z" fill="#F79B39"/>
<path d="M12.0224 0C10.5394 0 9.11705 0.571261 8.06839 1.58811C7.01972 2.60496 6.43059 3.98411 6.43059 5.42215C6.41938 5.53032 6.41938 5.63931 6.43059 5.74748C6.43059 7.18553 7.01972 8.56467 8.06839 9.58152C9.11705 10.5984 10.5394 11.1696 12.0224 11.1696C13.5054 11.1696 14.9277 10.5984 15.9764 9.58152C17.0251 8.56467 17.6142 7.18553 17.6142 5.74748C17.6254 5.63931 17.6254 5.53032 17.6142 5.42215C17.6142 4.71011 17.4696 4.00503 17.1885 3.34719C16.9075 2.68934 16.4956 2.09161 15.9764 1.58811C15.4571 1.08462 14.8407 0.685226 14.1623 0.412737C13.4838 0.140248 12.7567 0 12.0224 0ZM12.8612 8.41518H12.5033V8.72967C12.5146 8.77234 12.5146 8.81712 12.5033 8.8598C12.484 8.9684 12.4219 9.06544 12.33 9.13025C12.238 9.19506 12.1237 9.22253 12.0112 9.20682C11.9013 9.18571 11.8039 9.12437 11.7394 9.03553C11.6748 8.94669 11.648 8.83716 11.6645 8.72967V8.41518H11.4632C11.0143 8.40663 10.5871 8.22621 10.2749 7.91332C9.96272 7.60044 9.79086 7.18049 9.79685 6.74516C9.78549 6.70248 9.78549 6.6577 9.79685 6.61503C9.81609 6.50642 9.87828 6.40939 9.97018 6.34458C10.0621 6.27976 10.1765 6.25229 10.2889 6.26801C10.3989 6.28912 10.4962 6.35045 10.5608 6.4393C10.6253 6.52814 10.6521 6.63767 10.6356 6.74516C10.6324 6.96404 10.7169 7.1756 10.8712 7.33537C11.0255 7.49513 11.2377 7.59066 11.4632 7.60186H11.6645V5.76917L11.0718 5.56313L10.8146 5.47638C10.4967 5.39342 10.2192 5.20436 10.031 4.94251C9.84281 4.68066 9.75592 4.3628 9.78567 4.04493C9.78213 3.66074 9.93111 3.28995 10.2018 3.00935C10.4724 2.72875 10.844 2.55982 11.2395 2.53757H11.6086V2.22308C11.6249 2.12663 11.676 2.03893 11.7528 1.97565C11.8297 1.91237 11.9272 1.87763 12.028 1.87763C12.1288 1.87763 12.2263 1.91237 12.3031 1.97565C12.3799 2.03893 12.4311 2.12663 12.4474 2.22308V2.53757H12.6487C13.0956 2.54894 13.5199 2.73059 13.8297 3.04317C14.1395 3.35575 14.3099 3.7741 14.3038 4.20759C14.3152 4.25027 14.3152 4.29505 14.3038 4.33772C14.2846 4.44633 14.2224 4.54336 14.1305 4.60817C14.0386 4.67299 13.9242 4.70046 13.8118 4.68474C13.7533 4.6794 13.6966 4.66268 13.6449 4.63557C13.5933 4.60845 13.5479 4.57151 13.5113 4.52696C13.4748 4.4824 13.4479 4.43115 13.4322 4.37627C13.4166 4.32139 13.4126 4.26402 13.4203 4.20759C13.4265 3.98973 13.3445 3.77817 13.192 3.6181C13.0394 3.45803 12.8284 3.36213 12.6039 3.35089H12.4026V5.19442L13.2414 5.47638L13.4539 5.56313C13.7315 5.6718 13.9654 5.86466 14.1206 6.1129C14.2758 6.36114 14.344 6.65142 14.315 6.94036C14.3154 7.32049 14.1644 7.68608 13.8935 7.96087C13.6226 8.23566 13.2528 8.39841 12.8612 8.41518ZM13.0177 6.24632L12.4585 6.05112V7.59101H12.8164C12.9984 7.58257 13.1696 7.50503 13.2931 7.37516C13.4165 7.24529 13.4823 7.07352 13.4763 6.89698C13.4763 6.43067 13.3085 6.34392 13.0177 6.24632Z" fill="#F79B39"/>
</g>
<defs>
<clipPath id="clip0_606_6059">
<rect width="24" height="28" fill="white"/>
</clipPath>
</defs>
</svg>
