<svg width="20" height="20" viewBox="0 0 20 20" fill="none" xmlns="http://www.w3.org/2000/svg">
<path opacity="0.4" d="M0 10.8804V9.12042C0 8.08042 0.85 7.22043 1.9 7.22043C3.71 7.22043 4.45 5.94042 3.54 4.37042C3.02 3.47042 3.33 2.30042 4.24 1.78042L5.97 0.790425C6.76 0.320425 7.78 0.600425 8.25 1.39042L8.36 1.58042C9.26 3.15042 10.74 3.15042 11.65 1.58042L11.76 1.39042C12.23 0.600425 13.25 0.320425 14.04 0.790425L15.77 1.78042C16.68 2.30042 16.99 3.47042 16.47 4.37042C15.56 5.94042 16.3 7.22043 18.11 7.22043C19.15 7.22043 20.01 8.07042 20.01 9.12042V10.8804C20.01 11.9204 19.16 12.7804 18.11 12.7804C16.3 12.7804 15.56 14.0604 16.47 15.6304C16.99 16.5404 16.68 17.7004 15.77 18.2204L14.04 19.2104C13.25 19.6804 12.23 19.4004 11.76 18.6104L11.65 18.4204C10.75 16.8504 9.27 16.8504 8.36 18.4204L8.25 18.6104C7.78 19.4004 6.76 19.6804 5.97 19.2104L4.24 18.2204C3.33 17.7004 3.02 16.5304 3.54 15.6304C4.45 14.0604 3.71 12.7804 1.9 12.7804C0.85 12.7804 0 11.9204 0 10.8804Z" fill="#292B49"/>
<path d="M10 13.25C11.7949 13.25 13.25 11.7949 13.25 10C13.25 8.20507 11.7949 6.75 10 6.75C8.20507 6.75 6.75 8.20507 6.75 10C6.75 11.7949 8.20507 13.25 10 13.25Z" fill="#292B49"/>
</svg>
