<svg width="18" height="20" viewBox="0 0 18 20" fill="none" xmlns="http://www.w3.org/2000/svg">
<path opacity="0.4" d="M15 16.8597H14.24C13.44 16.8597 12.68 17.1697 12.12 17.7297L10.41 19.4197C9.63 20.1897 8.36 20.1897 7.58 19.4197L5.87 17.7297C5.31 17.1697 4.54 16.8597 3.75 16.8597H3C1.34 16.8597 0 15.5298 0 13.8898V2.97974C0 1.33974 1.34 0.00976562 3 0.00976562H15C16.66 0.00976562 18 1.33974 18 2.97974V13.8898C18 15.5198 16.66 16.8597 15 16.8597Z" fill="#292B49"/>
<path d="M7.38023 12.5099H4.70023C4.26023 12.5099 3.85023 12.2999 3.59023 11.9399C3.34023 11.5999 3.28022 11.18 3.40022 10.78C3.75022 9.70997 4.61022 9.12992 5.37022 8.60992C6.17022 8.06992 6.62022 7.72996 6.62022 7.14996C6.62022 6.62996 6.20022 6.20996 5.68022 6.20996C5.16022 6.20996 4.74023 6.62996 4.74023 7.14996C4.74023 7.55996 4.40023 7.89996 3.99023 7.89996C3.58023 7.89996 3.24023 7.55996 3.24023 7.14996C3.24023 5.80996 4.33022 4.70996 5.68022 4.70996C7.03022 4.70996 8.12022 5.79996 8.12022 7.14996C8.12022 8.55996 7.06024 9.27992 6.21024 9.85992C5.68024 10.2199 5.18022 10.5599 4.93022 11.0099H7.37022C7.78022 11.0099 8.12022 11.3499 8.12022 11.7599C8.12022 12.1699 7.79023 12.5099 7.38023 12.5099Z" fill="#292B49"/>
<path d="M13.0404 12.5099C12.6304 12.5099 12.2904 12.1699 12.2904 11.7599V11.0699H10.3304C10.3304 11.0699 10.3304 11.0699 10.3204 11.0699C9.83037 11.0699 9.38037 10.81 9.13037 10.39C8.88037 9.95995 8.88037 9.42995 9.13037 9.00995C9.81037 7.83995 10.6004 6.50991 11.3204 5.34991C11.6404 4.83991 12.2504 4.60996 12.8204 4.76996C13.3904 4.93996 13.7904 5.45993 13.7804 6.05993V9.57995H14.0004C14.4104 9.57995 14.7504 9.91995 14.7504 10.33C14.7504 10.74 14.4104 11.08 14.0004 11.08H13.7904V11.77C13.7904 12.18 13.4604 12.5099 13.0404 12.5099ZM12.2904 6.63995C11.7004 7.59995 11.0904 8.62994 10.5404 9.56994H12.2904V6.63995Z" fill="#292B49"/>
</svg>
